<?xml version="1.0" encoding="UTF-8"?>
<!DOCTYPE svg PUBLIC "-//W3C//DTD SVG 1.1//EN" "http://www.w3.org/Graphics/SVG/1.1/DTD/svg11.dtd">
<!-- Creator: CorelDRAW 2019 (64-Bit) -->
<svg xmlns="http://www.w3.org/2000/svg" xml:space="preserve" width="437px" height="694px" version="1.1" style="shape-rendering:geometricPrecision; text-rendering:geometricPrecision; image-rendering:optimizeQuality; fill-rule:evenodd; clip-rule:evenodd"
viewBox="0 0 10.55 16.74"
 xmlns:xlink="http://www.w3.org/1999/xlink"
 xmlns:xodm="http://www.corel.com/coreldraw/odm/2003">
 <defs>
  <style type="text/css">
   <![CDATA[
    .fil1 {fill:#00A0E3}
    .fil0 {fill:#064778}
   ]]>
  </style>
 </defs>
 <g id="Слой_x0020_1">
  <metadata id="CorelCorpID_0Corel-Layer"/>
  <path class="fil0" d="M5.15 0c-1.55,3.81 -4.08,5.88 -4.99,9.22 -1.36,6.79 6.24,10.05 9.56,5.2 1.46,-3.04 0.9,-6.02 -1.07,-8.96 -0.48,3.65 -4.09,5.02 -3.11,8.24 0.42,-1.59 1.27,-2.91 2.6,-3.58 0.44,-0.17 0.72,0.02 0.77,0.72 0.33,3.58 -4.95,6.77 -7.17,1.37 -1.18,-4.17 5.15,-8.78 3.41,-12.21z"/>
  <path class="fil1" d="M4.26 13.77c-4.63,-4.69 2.44,-7.28 1.8,-12.14 5.01,5.33 -3.01,7.3 -1.8,12.14z"/>
 </g>
</svg>
