<svg width="50" height="14.999999999999998" xmlns="http://www.w3.org/2000/svg">
 <defs>
  <style type="text/css">
   <![CDATA[
    .fil5 {fill:#FCFDFE}
    .fil1 {fill:#00A0E3}
    .fil0 {fill:#064778}
    .fil4 {fill:red}
    .fil6 {fill:red}
    .fil3 {fill:#00A0E3;fill-rule:nonzero}
    .fil2 {fill:#064778;fill-rule:nonzero}
   ]]>
  </style>
 </defs>
 <g>
  <title>background</title>
  <rect fill="none" id="canvas_background" height="17" width="52" y="-1" x="-1"/>
 </g>
 <g>
  <title>Layer 1</title>
  <metadata transform="translate(1,1) " id="CorelCorpID_0Corel-Layer"/>
  <path id="svg_1" d="m15.38,3.36c-0.71,1.75 -1.88,2.71 -2.3,4.24c-0.62,3.13 2.88,4.63 4.4,2.4c0.68,-1.41 0.42,-2.78 -0.49,-4.13c-0.22,1.68 -1.88,2.31 -1.43,3.79c0.19,-0.73 0.58,-1.33 1.2,-1.64c0.2,-0.08 0.33,0 0.35,0.33c0.15,1.64 -2.28,3.11 -3.3,0.63c-0.54,-1.92 2.37,-4.04 1.57,-5.62z" class="fil0"/>
  <path id="svg_2" d="m14.97,9.69c-2.13,-2.15 1.12,-3.34 0.83,-5.58c2.3,2.45 -1.39,3.36 -0.83,5.58z" class="fil1"/>
  <path id="svg_3" d="m19.45,8.53l0.57,0l0,-1.64l0.64,0l0,-0.51l-1.85,0l0,0.51l0.64,0l0,1.64zm1.52,0l1.71,0l0,-0.49l-1.15,0l0,-0.36l1.02,0l0,-0.46l-1.02,0l0,-0.35l1.14,0l0,-0.49l-1.7,0l0,2.15zm3.39,-2.15l-0.4,0.63l-0.39,-0.63l-0.66,0l0.71,1.06l-0.74,1.09l0.64,0l0.43,-0.67l0.42,0.67l0.66,0l-0.74,-1.1l0.71,-1.05l-0.64,0zm1.81,2.19c0.46,0 0.72,-0.19 0.93,-0.46l-0.42,-0.32c-0.14,0.16 -0.27,0.26 -0.49,0.26c-0.32,0 -0.54,-0.26 -0.54,-0.59l0,-0.01c0,-0.32 0.22,-0.59 0.54,-0.59c0.2,0 0.35,0.1 0.48,0.25l0.42,-0.35c-0.2,-0.24 -0.47,-0.42 -0.9,-0.42c-0.65,0 -1.13,0.49 -1.13,1.12l0,0c0,0.64 0.49,1.11 1.11,1.11zm1.23,-0.04l1.72,0l0,-0.49l-1.15,0l0,-0.36l1.02,0l0,-0.46l-1.02,0l0,-0.35l1.14,0l0,-0.49l-1.71,0l0,2.15zm2.07,0l0.57,0l0,-0.62l0.31,0c0.52,0 0.91,-0.26 0.91,-0.77l0,-0.01c0,-0.46 -0.34,-0.75 -0.87,-0.75l-0.92,0l0,2.15zm0.57,-1.08l0,-0.58l0.3,0c0.22,0 0.35,0.1 0.35,0.29l0,0c0,0.18 -0.13,0.29 -0.35,0.29l-0.3,0zm1.51,1.08l1.09,0c0.51,0 0.81,-0.22 0.81,-0.6l0,0c0,-0.29 -0.16,-0.43 -0.42,-0.52c0.18,-0.09 0.32,-0.23 0.32,-0.48l0,0c0,-0.15 -0.05,-0.26 -0.14,-0.35c-0.13,-0.13 -0.31,-0.2 -0.58,-0.2l-1.08,0l0,2.15zm1.24,-1.48c0,0.13 -0.11,0.19 -0.29,0.19l-0.39,0l0,-0.39l0.4,0c0.19,0 0.28,0.06 0.28,0.19l0,0.01zm0.09,0.81c0,0.13 -0.1,0.2 -0.29,0.2l-0.48,0l0,-0.41l0.47,0c0.21,0 0.3,0.08 0.3,0.2l0,0.01zm2.89,0.67l0,-2.15l-0.53,0l-0.9,1.22l0,-1.22l-0.57,0l0,2.15l0.5,0l0.93,-1.26l0,1.26l0.57,0zm1.46,0.04c0.46,0 0.72,-0.19 0.93,-0.46l-0.42,-0.32c-0.14,0.16 -0.27,0.26 -0.5,0.26c-0.32,0 -0.53,-0.26 -0.53,-0.59l0,-0.01c0,-0.32 0.21,-0.59 0.53,-0.59c0.21,0 0.36,0.1 0.49,0.25l0.41,-0.35c-0.19,-0.24 -0.46,-0.42 -0.89,-0.42c-0.65,0 -1.13,0.49 -1.13,1.12l0,0c0,0.64 0.49,1.11 1.11,1.11z" class="fil2"/>
 </g>
</svg>