<?xml version="1.0" encoding="UTF-8"?>
<!DOCTYPE svg PUBLIC "-//W3C//DTD SVG 1.1//EN" "http://www.w3.org/Graphics/SVG/1.1/DTD/svg11.dtd">
<!-- Creator: CorelDRAW 2019 (64-Bit) -->
<svg xmlns="http://www.w3.org/2000/svg" xml:space="preserve" width="30.3341mm" height="30.3334mm" version="1.1" style="shape-rendering:geometricPrecision; text-rendering:geometricPrecision; image-rendering:optimizeQuality; fill-rule:evenodd; clip-rule:evenodd"
viewBox="0 0 25.25 25.25"
 xmlns:xlink="http://www.w3.org/1999/xlink"
 xmlns:xodm="http://www.corel.com/coreldraw/odm/2003">
 <defs>
  <style type="text/css">
   <![CDATA[
    .fil2 {fill:#010101}
    .fil0 {fill:white}
    .fil4 {fill:#CC2826;fill-rule:nonzero}
    .fil3 {fill:#EF4230;fill-rule:nonzero}
    .fil1 {fill:white;fill-rule:nonzero}
   ]]>
  </style>
 </defs>
 <g id="Слой_x0020_1">
  <metadata id="CorelCorpID_0Corel-Layer"/>
  <path class="fil0" d="M12.63 23.66c6.07,0 11.03,-4.95 11.03,-11.03 0,-6.08 -4.96,-11.03 -11.03,-11.03 -6.07,0 -11.03,4.95 -11.03,11.03 0,6.07 4.95,11.03 11.03,11.03z"/>
  <path class="fil1" d="M12.63 23.66l0 -0.08c3.02,0 5.75,-1.23 7.74,-3.21 1.98,-1.98 3.21,-4.72 3.21,-7.74 0,-3.02 -1.23,-5.75 -3.21,-7.74 -1.98,-1.98 -4.72,-3.21 -7.74,-3.21 -3.02,0 -5.75,1.23 -7.74,3.21 -1.98,1.98 -3.21,4.72 -3.21,7.74 0,3.02 1.23,5.75 3.21,7.74 1.98,1.98 4.72,3.21 7.74,3.21l0 0.08 0 0.08c-6.12,0 -11.11,-4.99 -11.11,-11.11 0,-6.12 4.99,-11.11 11.11,-11.11 6.12,0 11.11,4.99 11.11,11.11 0,6.12 -4.99,11.11 -11.11,11.11l0 -0.08z"/>
  <polygon class="fil2" points="6.9,16.68 21.27,16.68 21.27,14.35 6.9,14.35 "/>
  <polygon class="fil2" points="5.8,16.68 6.48,16.68 6.48,14.35 5.8,14.35 "/>
  <polygon class="fil2" points="4.56,16.68 5.25,16.68 5.25,14.35 4.56,14.35 "/>
  <path class="fil2" d="M5.85 13.89c-0.03,-1.79 0.6,-2.2 1.5,-2.22 0.3,-0.01 0.62,0.04 0.94,0.09 0.75,0.11 1.58,0.23 2.11,-0.38 0.25,-0.28 0.1,-0.77 -0.04,-1.24 -0.19,-0.61 -0.37,-1.21 0.06,-1.71 0.41,-0.47 1.02,-0.45 1.63,-0.44 0.51,0.01 1.02,0.03 1.22,-0.3 0.06,-0.09 0.08,-0.22 0.08,-0.36 0,-0.21 -0.06,-0.44 -0.18,-0.66 -0.12,-0.22 -0.29,-0.42 -0.52,-0.56 -0.22,-0.13 -0.48,-0.21 -0.8,-0.21l0 -0.66c0.45,0 0.84,0.12 1.15,0.31 0.34,0.21 0.59,0.5 0.76,0.82 0.17,0.31 0.25,0.66 0.25,0.97 0,0.26 -0.06,0.51 -0.18,0.71 -0.4,0.66 -1.11,0.64 -1.8,0.62 -0.46,-0.01 -0.91,-0.03 -1.11,0.21 -0.19,0.22 -0.06,0.64 0.08,1.08 0.2,0.65 0.4,1.31 -0.09,1.87 -0.77,0.89 -1.79,0.74 -2.71,0.6 -0.3,-0.05 -0.6,-0.09 -0.84,-0.08 -0.51,0.01 -0.87,0.3 -0.85,1.55l-0.66 0.01z"/>
  <path class="fil2" d="M4.55 13.88c-0.01,-0.93 0.01,-1.55 0.12,-2.01 0.13,-0.52 0.36,-0.85 0.79,-1.19 0.29,-0.23 0.72,-0.32 1.17,-0.41 0.56,-0.12 1.18,-0.25 1.36,-0.65 0.1,-0.21 -0.05,-0.53 -0.2,-0.87 -0.27,-0.59 -0.56,-1.22 -0.13,-1.96 0.29,-0.5 0.67,-0.77 1.22,-0.92 0.49,-0.13 1.11,-0.15 1.93,-0.15l-0 0.66c-0.77,-0 -1.34,0.01 -1.76,0.13 -0.37,0.1 -0.62,0.28 -0.82,0.61 -0.26,0.44 -0.04,0.92 0.16,1.35 0.22,0.48 0.42,0.93 0.21,1.41 -0.32,0.71 -1.11,0.87 -1.83,1.03 -0.37,0.08 -0.73,0.15 -0.9,0.29 -0.31,0.24 -0.47,0.47 -0.56,0.82 -0.1,0.4 -0.11,0.97 -0.1,1.85l-0.66 0z"/>
  <path class="fil3" d="M12.63 -0l0 0c-6.97,0 -12.62,5.65 -12.63,12.62l0 0.02c0.01,6.95 5.62,12.58 12.56,12.62l0.14 0c6.94,-0.04 12.56,-5.68 12.56,-12.63 0,-6.97 -5.65,-12.63 -12.63,-12.63zm-0 23.73c-6.12,-0 -11.11,-4.99 -11.11,-11.11 0,-6.12 4.99,-11.11 11.11,-11.11 6.12,0 11.11,4.99 11.11,11.11 0,6.12 -4.99,11.11 -11.11,11.11l0 -0.08 0 0.08z"/>
  <path class="fil3" d="M12.63 1.68c-3.02,0 -5.75,1.23 -7.74,3.21 -1.98,1.98 -3.21,4.72 -3.21,7.74 0,3.02 1.23,5.75 3.21,7.74 1.98,1.98 4.72,3.21 7.74,3.21l0 0.08 0 -0.08c3.02,0 5.75,-1.23 7.74,-3.21 1.98,-1.98 3.21,-4.72 3.21,-7.74 0,-3.02 -1.23,-5.75 -3.21,-7.74 -1.98,-1.98 -4.72,-3.21 -7.74,-3.21zm-4.76 4.82l-1.8 -1.8c1.78,-1.47 4.06,-2.36 6.56,-2.36 5.68,0 10.29,4.61 10.29,10.29 0,2.49 -0.89,4.78 -2.36,6.55l-2.5 -2.5 -2.75 0 3.87 3.87c-1.78,1.47 -4.06,2.36 -6.56,2.36 -5.68,0 -10.29,-4.61 -10.29,-10.29 0,-2.49 0.89,-4.78 2.36,-6.56l3.33 3.33c-0.02,-0.19 -0.12,-0.41 -0.23,-0.65 -0.27,-0.59 -0.56,-1.22 -0.13,-1.96 0.06,-0.11 0.13,-0.21 0.2,-0.3zm0.47 0.47c-0.04,0.05 -0.07,0.1 -0.1,0.16 -0.26,0.44 -0.04,0.92 0.16,1.35 0.22,0.48 0.42,0.93 0.2,1.41 -0.01,0.02 -0.02,0.04 -0.03,0.06l1.62 1.62c0.07,-0.05 0.14,-0.12 0.21,-0.19 0.25,-0.28 0.1,-0.77 -0.04,-1.24 -0.14,-0.46 -0.28,-0.91 -0.16,-1.31l-1.86 -1.86zm2.52 2.52c0.03,0.14 0.08,0.3 0.13,0.45 0.2,0.65 0.4,1.31 -0.09,1.87 -0.08,0.09 -0.15,0.16 -0.23,0.23l2.3 2.3 2.75 0 -4.85 -4.85z"/>
  <path class="fil3" d="M12.63 1.52c-6.12,0 -11.11,4.99 -11.11,11.11 0,6.12 4.99,11.11 11.11,11.11l0 -0.08 0 -0.08c-3.02,0 -5.75,-1.23 -7.74,-3.21 -1.98,-1.98 -3.21,-4.72 -3.21,-7.74 0,-3.02 1.23,-5.75 3.21,-7.74 1.98,-1.98 4.72,-3.21 7.74,-3.21 3.02,0 5.75,1.23 7.74,3.21 1.98,1.98 3.21,4.72 3.21,7.74 0,3.02 -1.23,5.75 -3.21,7.74 -1.98,1.98 -4.72,3.21 -7.74,3.21l0 0.08 0 0.08c6.12,-0 11.11,-4.99 11.11,-11.11 0,-6.12 -4.99,-11.11 -11.11,-11.11z"/>
  <polygon class="fil4" points="15.72,14.35 12.97,14.35 15.31,16.68 18.06,16.68 "/>
  <path class="fil4" d="M10.2 8.83c-0.11,0.4 0.02,0.85 0.16,1.31 0.14,0.47 0.29,0.96 0.04,1.24 -0.07,0.07 -0.13,0.14 -0.21,0.19l0.47 0.47c0.08,-0.07 0.16,-0.14 0.23,-0.23 0.49,-0.56 0.29,-1.22 0.09,-1.87 -0.05,-0.15 -0.09,-0.31 -0.13,-0.45l-0.67 -0.67z"/>
  <path class="fil4" d="M7.87 6.5c-0.07,0.09 -0.14,0.19 -0.2,0.3 -0.43,0.74 -0.14,1.37 0.13,1.96 0.11,0.24 0.21,0.46 0.23,0.65l0.55 0.55c0.01,-0.02 0.02,-0.04 0.03,-0.06 0.22,-0.48 0.01,-0.93 -0.21,-1.41 -0.2,-0.44 -0.42,-0.91 -0.16,-1.35 0.03,-0.06 0.07,-0.11 0.11,-0.16l-0.47 -0.47z"/>
 </g>
</svg>
