<?xml version="1.0" encoding="UTF-8"?>
<!DOCTYPE svg PUBLIC "-//W3C//DTD SVG 1.1//EN" "http://www.w3.org/Graphics/SVG/1.1/DTD/svg11.dtd">
<!-- Creator: CorelDRAW 2019 (64-Bit) -->
<svg xmlns="http://www.w3.org/2000/svg" xml:space="preserve" width="30.334mm" height="30.3334mm" version="1.1" style="shape-rendering:geometricPrecision; text-rendering:geometricPrecision; image-rendering:optimizeQuality; fill-rule:evenodd; clip-rule:evenodd"
viewBox="0 0 24.73 24.73"
 xmlns:xlink="http://www.w3.org/1999/xlink"
 xmlns:xodm="http://www.corel.com/coreldraw/odm/2003">
 <defs>
  <style type="text/css">
   <![CDATA[
    .fil0 {fill:white}
    .fil2 {fill:#010101;fill-rule:nonzero}
    .fil4 {fill:#CC2826;fill-rule:nonzero}
    .fil3 {fill:#EF4230;fill-rule:nonzero}
    .fil1 {fill:white;fill-rule:nonzero}
   ]]>
  </style>
 </defs>
 <g id="Слой_x0020_1">
  <metadata id="CorelCorpID_0Corel-Layer"/>
  <path class="fil0" d="M12.37 23.17c5.95,0 10.8,-4.85 10.8,-10.8 0,-5.95 -4.85,-10.8 -10.8,-10.8 -5.95,0 -10.8,4.85 -10.8,10.8 0,5.95 4.85,10.8 10.8,10.8z"/>
  <path class="fil1" d="M12.37 23.17l0 -0.08c2.95,0 5.63,-1.2 7.58,-3.15 1.94,-1.94 3.15,-4.62 3.15,-7.58 0,-2.95 -1.2,-5.63 -3.15,-7.58 -1.94,-1.94 -4.62,-3.15 -7.58,-3.15 -2.95,0 -5.63,1.2 -7.58,3.15 -1.94,1.94 -3.15,4.62 -3.15,7.58 0,2.95 1.2,5.63 3.15,7.58 1.94,1.94 4.62,3.15 7.58,3.15l0 0.08 0 0.08c-5.99,0 -10.88,-4.89 -10.88,-10.88 0,-5.99 4.89,-10.88 10.88,-10.88 5.99,0 10.88,4.89 10.88,10.88 0,5.99 -4.89,10.88 -10.88,10.88l0 -0.08z"/>
  <path class="fil2" d="M14.23 14.44l-0.3 0 0.99 -4.33c0.05,-0.21 -0.08,-0.42 -0.3,-0.47 -0.21,-0.05 -0.42,0.08 -0.47,0.3l-0.02 0.09 -0.56 0.23 -0.41 -0.8c-0.04,-0.08 -0.12,-0.13 -0.21,-0.14 -0.09,-0.01 -0.17,0.03 -0.23,0.09l-0.66 0.8 -0.62 -0.58c-0.09,-0.08 -0.22,-0.09 -0.32,-0.03l-0.57 0.35 -0 -0.01c-0.05,-0.21 -0.26,-0.34 -0.47,-0.3 -0.21,0.05 -0.34,0.26 -0.3,0.47l0.99 4.33 -0.3 0c-0.43,-0.71 -0.92,-1.41 -1.43,-2.06 -0.59,-0.74 -0.9,-1.64 -0.9,-2.58 0,-2.31 1.88,-4.19 4.19,-4.19 2.31,0 4.19,1.88 4.19,4.19 0,0.95 -0.31,1.84 -0.9,2.58 -0.52,0.66 -1,1.35 -1.43,2.06zm-3.5 2.46l3.28 0 0 0.88 -3.28 0 0 -0.88zm3.28 -0.52l-3.28 0 0 -0.88 3.28 0 0 0.88zm-2.4 -1.93l-0.91 -3.96 0.55 -0.34 0.67 0.63c0.05,0.05 0.12,0.07 0.2,0.07 0.07,-0 0.14,-0.04 0.19,-0.1l0.58 -0.71 0.34 0.66c0.05,0.09 0.14,0.14 0.23,0.14l0.1 -0.02 0.44 -0.18 -0.87 3.79 -1.52 0zm6 -4.65c0,-2.89 -2.35,-5.24 -5.24,-5.24 -2.89,0 -5.24,2.35 -5.24,5.24 0,1.18 0.39,2.3 1.12,3.23 0.52,0.65 1.01,1.37 1.43,2.08l0 3.19c0,0.29 0.23,0.53 0.52,0.53l0.6 0 0 0.25c0,0.61 0.5,1.11 1.11,1.11l0.92 0c0.61,0 1.11,-0.5 1.11,-1.11l0 -0.25 0.6 0c0.29,0 0.53,-0.24 0.53,-0.53l0 -3.18c0.43,-0.72 0.91,-1.42 1.43,-2.09 0.73,-0.93 1.12,-2.05 1.12,-3.23z"/>
  <path class="fil3" d="M12.37 -0l0 0c-6.83,0 -12.37,5.54 -12.37,12.37 0,6.81 5.5,12.33 12.3,12.36l0.14 0c6.8,-0.04 12.3,-5.56 12.3,-12.36 0,-6.83 -5.54,-12.37 -12.36,-12.37zm-0 23.24c-5.99,-0 -10.88,-4.89 -10.88,-10.88 0,-5.99 4.89,-10.88 10.88,-10.88 5.99,0 10.88,4.89 10.88,10.88 0,5.99 -4.89,10.88 -10.88,10.88l0 -0.08 0 0.08z"/>
  <path class="fil3" d="M12.37 1.64c-2.95,0 -5.63,1.2 -7.58,3.15 -1.94,1.94 -3.15,4.62 -3.15,7.58 0,2.95 1.2,5.63 3.15,7.58 1.94,1.94 4.62,3.15 7.58,3.15l0 0.08 0 -0.08c2.95,0 5.63,-1.2 7.58,-3.15 1.94,-1.94 3.15,-4.62 3.15,-7.58 0,-2.95 -1.2,-5.63 -3.15,-7.58 -1.94,-1.94 -4.62,-3.15 -7.58,-3.15zm-4.27 5.11l-2.15 -2.15c1.74,-1.44 3.98,-2.31 6.42,-2.31 5.56,0 10.07,4.51 10.07,10.07 0,2.44 -0.87,4.68 -2.31,6.42l-4.53 -4.53c-0.19,0.28 -0.37,0.57 -0.54,0.86l0 1.29 3.73 3.73c-1.74,1.44 -3.98,2.31 -6.42,2.31 -5.56,0 -10.08,-4.51 -10.08,-10.07 0,-2.44 0.87,-4.68 2.31,-6.42l2.66 2.66c0.16,-0.68 0.45,-1.3 0.84,-1.85zm0.76 0.76c-0.38,0.59 -0.62,1.28 -0.67,2.02l1.93 1.93 -0.31 -1.35c-0.05,-0.21 0.08,-0.42 0.3,-0.47 0.03,-0.01 0.06,-0.01 0.09,-0.01 0.18,0 0.34,0.12 0.38,0.31l0 0.01 0.44 -0.27 -2.16 -2.16zm2.39 2.64l-0.55 0.34 0.47 2.03 1.93 1.93 0.04 0 0.5 -2.16 -1.44 -1.44c-0.02,0.01 -0.04,0.01 -0.07,0.01 -0,0 -0.01,0 -0.01,0 -0.07,0 -0.14,-0.02 -0.19,-0.07l-0.67 -0.63zm3.04 2.79l-0.34 1.5 0.3 0c0.19,-0.32 0.4,-0.63 0.61,-0.94l-0.56 -0.56z"/>
  <path class="fil3" d="M12.37 1.49c-5.99,0 -10.88,4.89 -10.88,10.88 0,5.99 4.89,10.88 10.88,10.88l0 -0.08 0 -0.08c-2.95,0 -5.63,-1.2 -7.58,-3.15 -1.94,-1.94 -3.15,-4.62 -3.15,-7.58 0,-2.95 1.2,-5.63 3.15,-7.58 1.94,-1.94 4.62,-3.15 7.58,-3.15 2.95,0 5.63,1.2 7.58,3.15 1.94,1.94 3.15,4.62 3.15,7.58 0,2.95 -1.2,5.63 -3.15,7.58 -1.94,1.94 -4.62,3.15 -7.58,3.15l0 0.08 0 0.08c5.99,-0 10.88,-4.89 10.88,-10.88 0,-5.99 -4.89,-10.88 -10.88,-10.88z"/>
  <path class="fil4" d="M8.1 6.75c-0.39,0.55 -0.68,1.18 -0.84,1.85l0.92 0.92c0.05,-0.74 0.29,-1.43 0.67,-2.02l-0.76 -0.76zm2.09 2.87c-0.03,0 -0.06,0 -0.09,0.01 -0.21,0.05 -0.34,0.26 -0.3,0.47l0.31 1.35 1.05 1.05 -0.47 -2.03 0.55 -0.34 0.67 0.63c0.05,0.05 0.12,0.07 0.19,0.07 0,0 0.01,0 0.01,0 0.02,-0 0.05,-0.01 0.07,-0.01l-1.17 -1.17 -0.44 0.27 -0 -0.01c-0.04,-0.18 -0.2,-0.31 -0.38,-0.31zm3.43 2.65l-0.5 2.16 -0.04 0 1.96 1.96 0 -1.29c0.17,-0.29 0.35,-0.58 0.54,-0.86l-0.76 -0.76c-0.21,0.31 -0.41,0.62 -0.61,0.94l-0.3 0 0.34 -1.5 -0.66 -0.66z"/>
 </g>
</svg>
