<?xml version="1.0" encoding="UTF-8"?>
<!DOCTYPE svg PUBLIC "-//W3C//DTD SVG 1.1//EN" "http://www.w3.org/Graphics/SVG/1.1/DTD/svg11.dtd">
<!-- Creator: CorelDRAW 2019 (64-Bit) -->
<svg xmlns="http://www.w3.org/2000/svg" xml:space="preserve" width="30.3336mm" height="30.3331mm" version="1.1" style="shape-rendering:geometricPrecision; text-rendering:geometricPrecision; image-rendering:optimizeQuality; fill-rule:evenodd; clip-rule:evenodd"
viewBox="0 0 24.23 24.23"
 xmlns:xlink="http://www.w3.org/1999/xlink"
 xmlns:xodm="http://www.corel.com/coreldraw/odm/2003">
 <defs>
  <style type="text/css">
   <![CDATA[
    .fil3 {fill:#151717}
    .fil0 {fill:white}
    .fil2 {fill:#151717;fill-rule:nonzero}
    .fil5 {fill:#CE2926;fill-rule:nonzero}
    .fil4 {fill:#EF4230;fill-rule:nonzero}
    .fil1 {fill:white;fill-rule:nonzero}
   ]]>
  </style>
 </defs>
 <g id="Слой_x0020_1">
  <metadata id="CorelCorpID_0Corel-Layer"/>
  <path class="fil0" d="M12.11 22.69c5.83,0 10.58,-4.75 10.58,-10.58 0,-5.83 -4.75,-10.58 -10.58,-10.58 -5.83,0 -10.58,4.75 -10.58,10.58 0,5.83 4.75,10.58 10.58,10.58z"/>
  <path class="fil1" d="M12.11 22.69l0 -0.07c2.89,0 5.52,-1.18 7.42,-3.08 1.9,-1.9 3.08,-4.53 3.08,-7.42 0,-2.89 -1.18,-5.52 -3.08,-7.42 -1.9,-1.9 -4.53,-3.08 -7.42,-3.08 -2.89,0 -5.52,1.18 -7.42,3.08 -1.9,1.9 -3.08,4.53 -3.08,7.42 0,2.89 1.18,5.52 3.08,7.42 1.9,1.9 4.53,3.08 7.42,3.08l0 0.07 0 0.07c-5.87,0 -10.66,-4.79 -10.66,-10.66 0,-5.87 4.79,-10.66 10.66,-10.66 5.87,0 10.66,4.79 10.66,10.66 0,5.87 -4.79,10.66 -10.66,10.66l0 -0.07z"/>
  <path class="fil2" d="M7.34 5.92c-0.49,0.85 -0.74,1.67 -0.74,2.47 0,0.79 0.23,1.57 0.73,2.37 0.08,0.12 0.04,0.29 -0.08,0.37 -0.12,0.08 -0.29,0.04 -0.37,-0.08 -0.54,-0.87 -0.82,-1.76 -0.82,-2.65 -0,-0.92 0.28,-1.83 0.81,-2.74 0.07,-0.13 0.24,-0.17 0.36,-0.1 0.13,0.07 0.17,0.24 0.1,0.36z"/>
  <path class="fil2" d="M8.71 6.85c-0.31,0.53 -0.46,1.03 -0.46,1.53 0,0.48 0.14,0.96 0.45,1.45 0.08,0.12 0.04,0.29 -0.08,0.37 -0.12,0.08 -0.29,0.04 -0.37,-0.08 -0.36,-0.56 -0.53,-1.15 -0.53,-1.74 0,-0.6 0.19,-1.2 0.53,-1.79 0.07,-0.13 0.24,-0.17 0.36,-0.1 0.13,0.07 0.17,0.24 0.1,0.36z"/>
  <path class="fil2" d="M17.35 5.65c0.53,0.91 0.81,1.82 0.81,2.74 0,0.9 -0.27,1.79 -0.82,2.65 -0.08,0.12 -0.24,0.16 -0.37,0.08 -0.12,-0.08 -0.16,-0.24 -0.08,-0.37 0.5,-0.8 0.73,-1.58 0.73,-2.37 0,-0.81 -0.25,-1.63 -0.74,-2.47 -0.07,-0.13 -0.03,-0.29 0.1,-0.36 0.13,-0.07 0.29,-0.03 0.36,0.1z"/>
  <path class="fil2" d="M15.97 6.59c0.34,0.59 0.53,1.19 0.53,1.79 0,0.59 -0.18,1.17 -0.53,1.74 -0.08,0.12 -0.24,0.16 -0.37,0.08 -0.12,-0.08 -0.16,-0.24 -0.08,-0.37 0.31,-0.49 0.45,-0.97 0.45,-1.46 0,-0.49 -0.15,-1 -0.46,-1.53 -0.07,-0.13 -0.03,-0.29 0.1,-0.36 0.13,-0.07 0.29,-0.03 0.36,0.1z"/>
  <path class="fil2" d="M10.72 5.65l0 -0.26 2.8 0c0.51,0 0.93,0.42 0.93,0.93l0 4.75c-0,0.51 -0.42,0.93 -0.93,0.93l-2.8 0c-0.51,-0 -0.93,-0.41 -0.93,-0.93l0 -4.75c0,-0.51 0.42,-0.93 0.93,-0.93l0 0.26 0 0.27c-0.22,0 -0.4,0.18 -0.4,0.4l0 4.75c0,0.22 0.18,0.4 0.4,0.4l2.8 0c0.22,-0 0.4,-0.18 0.4,-0.4l0 -4.75c-0,-0.22 -0.18,-0.4 -0.4,-0.4l-2.8 0 0 -0.27z"/>
  <path class="fil3" d="M12.11 8.81c0.62,0 1.13,-0.51 1.13,-1.13 0,-0.62 -0.51,-1.13 -1.13,-1.13 -0.62,0 -1.13,0.51 -1.13,1.13 0,0.62 0.51,1.13 1.13,1.13z"/>
  <path class="fil0" d="M12.11 7.98c0.17,0 0.31,-0.14 0.31,-0.3 0,-0.17 -0.14,-0.3 -0.31,-0.3 -0.17,0 -0.3,0.14 -0.3,0.3 0,0.17 0.14,0.3 0.3,0.3z"/>
  <path class="fil3" d="M11.53 19.89l-0.01 -0.03c-0.04,-0.08 -0.07,-0.22 -0.09,-0.31l-0.06 -0.36c-0.01,-0.09 -0.05,-0.23 -0.07,-0.31l-0.21 -0.73c-0.03,-0.09 -0.08,-0.22 -0.12,-0.3l-0.3 -0.61c-0.04,-0.08 -0.11,-0.2 -0.17,-0.28l-0.16 -0.22c-0.05,-0.07 -0.15,-0.18 -0.22,-0.24l-0.01 -0.01c-0.07,-0.06 -0.14,-0.18 -0.16,-0.26l-0.47 -2.31 -0.13 -0.45c-0.02,-0.09 -0.03,-0.22 -0.02,-0.29 0.01,-0.07 0.08,-0.17 0.16,-0.22l0.12 -0.07c0.08,-0.04 0.21,-0.09 0.3,-0.1l0.07 -0.01c0.09,-0.01 0.21,0.03 0.28,0.09 0.06,0.06 0.14,0.17 0.17,0.26l0.22 0.57 0.24 0.53c0.04,0.08 0.11,0.21 0.17,0.27l0.04 0.05c0.06,0.07 0.16,0.16 0.24,0.21l0.14 0.08 0 -4.61c0,-0.09 0.03,-0.22 0.07,-0.3 0.04,-0.07 0.14,-0.17 0.21,-0.22l0.1 -0.06c0.08,-0.04 0.21,-0.07 0.3,-0.06l0.08 0.01c0.09,0.01 0.22,0.06 0.29,0.12l0.02 0.02c0.07,0.05 0.15,0.15 0.17,0.21 0.03,0.06 0.04,0.18 0.04,0.27l0 2.25c0,0 0.05,-0.05 0.11,-0.12 0.06,-0.07 0.16,-0.15 0.22,-0.18 0.06,-0.03 0.19,-0.06 0.28,-0.06l0.05 0c0.09,0 0.23,0.03 0.32,0.06l0.01 0c0.09,0.03 0.18,0.1 0.22,0.16 0.03,0.06 0.06,0.18 0.06,0.27l0 0.51 0.14 -0.16c0.06,-0.07 0.17,-0.14 0.24,-0.16 0.07,-0.02 0.2,-0.05 0.28,-0.06 0.08,-0.01 0.22,0 0.3,0.03l0.08 0.03c0.08,0.03 0.19,0.11 0.23,0.17 0.04,0.06 0.07,0.19 0.07,0.28l0 0.49c0,0 0.05,-0.04 0.12,-0.09 0.06,-0.05 0.19,-0.11 0.27,-0.13 0.09,-0.02 0.22,-0.03 0.31,-0.02 0.09,0.01 0.22,0.06 0.29,0.1l0.01 0c0.08,0.04 0.16,0.13 0.18,0.19 0.02,0.06 0.04,0.18 0.04,0.27l0 1.77c0,0.09 -0.03,0.23 -0.06,0.31l-0.2 0.5 -0.4 0.96c-0.03,0.08 -0.08,0.22 -0.1,0.31l-0.16 0.65 -0.19 0.69 -0.07 0.33c-0.02,0.09 -0.06,0.2 -0.09,0.25 -0.03,0.05 -0.1,0.11 -0.14,0.14 -0.05,0.03 -0.16,0.05 -0.25,0.05l-3.16 0.02c-0.09,0 -0.19,-0.07 -0.23,-0.15z"/>
  <path class="fil4" d="M12.11 -0c-6.69,0 -12.11,5.42 -12.11,12.11 0,6.67 5.4,12.09 12.06,12.11l0 0 0.1 0c6.67,-0.03 12.06,-5.44 12.06,-12.11 0,-6.69 -5.42,-12.11 -12.11,-12.11zm-10.66 12.11c0,-5.87 4.79,-10.66 10.66,-10.66l0 0c5.87,0 10.66,4.79 10.66,10.66l0 0c0,5.87 -4.79,10.66 -10.66,10.66l0 0 0 -0.07 0 0.07c-5.87,0 -10.66,-4.79 -10.66,-10.66l0 0z"/>
  <path class="fil4" d="M12.11 1.61c-2.89,0 -5.52,1.18 -7.42,3.08 -1.9,1.9 -3.08,4.53 -3.08,7.42 0,2.89 1.18,5.52 3.08,7.42 1.9,1.9 4.53,3.08 7.42,3.08l0 0.07 0 -0.07c2.89,0 5.52,-1.18 7.42,-3.08 1.9,-1.9 3.08,-4.53 3.08,-7.42 0,-2.89 -1.18,-5.52 -3.08,-7.42 -1.9,-1.9 -4.53,-3.08 -7.42,-3.08zm-5.19 3.99l-1.1 -1.1c1.71,-1.41 3.9,-2.26 6.29,-2.26 5.45,0 9.87,4.42 9.87,9.87 0,2.39 -0.85,4.58 -2.26,6.29l-3.13 -3.13 0 0.55c0,0.09 -0.03,0.23 -0.06,0.31l-0.2 0.5 -0.29 0.71 2.38 2.38c-1.71,1.41 -3.9,2.26 -6.29,2.26 -5.45,0 -9.87,-4.42 -9.87,-9.87 0,-2.39 0.85,-4.58 2.26,-6.29l1.66 1.66c0.12,-0.61 0.37,-1.22 0.72,-1.83 0.01,-0.02 0.02,-0.04 0.04,-0.05zm0.38 0.38c-0.38,0.67 -0.6,1.32 -0.68,1.96l1.2 1.2c-0.07,-0.25 -0.1,-0.51 -0.1,-0.77 -0,-0.53 0.14,-1.05 0.4,-1.56l-0.83 -0.83zm1.23 1.23c-0.18,0.4 -0.27,0.79 -0.27,1.17 0,0.48 0.14,0.96 0.45,1.45 0.04,0.07 0.05,0.15 0.03,0.22l1.05 1.05c-0,-0.01 -0,-0.03 -0,-0.05l0 -2.59 -1.26 -1.26zm1.79 1.79l0 2.06c0,0.22 0.18,0.4 0.4,0.4l0.76 0 0 -1.23c0,-0.02 0,-0.04 0,-0.06l-1.16 -1.16zm0.35 2.99l0.81 0.81 0 -0.81 -0.76 0c-0.02,0 -0.03,-0 -0.05,-0z"/>
  <path class="fil4" d="M12.11 1.46c-5.87,0 -10.66,4.79 -10.66,10.66 0,5.87 4.79,10.66 10.66,10.66l0 -0.07 0 -0.08c-2.89,0 -5.52,-1.18 -7.42,-3.08 -1.9,-1.9 -3.08,-4.53 -3.08,-7.42 0,-2.89 1.18,-5.52 3.08,-7.42 1.9,-1.9 4.53,-3.08 7.42,-3.08 2.89,0 5.52,1.18 7.42,3.08 1.9,1.9 3.08,4.53 3.08,7.42 0,2.89 -1.18,5.52 -3.08,7.42 -1.9,1.9 -4.53,3.08 -7.42,3.08l0 0.08 0 0.07c5.87,-0 10.66,-4.79 10.66,-10.66 0,-5.87 -4.79,-10.66 -10.66,-10.66z"/>
  <path class="fil5" d="M6.92 5.6c-0.01,0.02 -0.03,0.03 -0.04,0.05 -0.35,0.61 -0.6,1.21 -0.72,1.83l0.46 0.46c0.07,-0.64 0.3,-1.29 0.68,-1.96l-0.38 -0.38z"/>
  <path class="fil5" d="M8.13 6.81c-0.26,0.51 -0.4,1.04 -0.4,1.56 0,0.26 0.03,0.51 0.1,0.77l0.91 0.91c0.02,-0.07 0.02,-0.15 -0.03,-0.22 -0.31,-0.49 -0.45,-0.97 -0.45,-1.45 0,-0.38 0.09,-0.77 0.27,-1.17l-0.4 -0.4z"/>
  <path class="fil5" d="M9.79 8.47l0 2.59c0,0.02 0,0.03 0,0.05l0.88 0.88c0.02,0 0.03,0 0.05,0l0.76 0 0 -0.53 -0.76 0c-0.22,-0 -0.4,-0.18 -0.4,-0.4l0 -2.06 -0.53 -0.53z"/>
  <path class="fil4" d="M12.77 11.45l0 0.01 0.01 0 -0.01 -0.01zm0.54 0.54l-0.54 0 0 0.47c0,0 0.05,-0.05 0.11,-0.12 0.06,-0.07 0.16,-0.15 0.22,-0.18 0.06,-0.03 0.18,-0.06 0.27,-0.06 0,0 0,0 0.01,0l0.04 0 -0.11 -0.11z"/>
  <polygon class="fil5" points="12.78,11.46 12.77,11.46 12.77,11.99 13.31,11.99 "/>
  <path class="fil4" d="M14.02 12.7l0 0.4 0.14 -0.16c0.01,-0.02 0.03,-0.03 0.05,-0.05l-0.19 -0.19z"/>
  <path class="fil5" d="M11.48 10.16c-0,0.02 -0,0.04 -0,0.06l0 1.23 0 0.53 0 0.81 4.55 4.55 0.29 -0.71 0.2 -0.5c0.03,-0.08 0.06,-0.22 0.06,-0.31l0 -0.55 -2.37 -2.37c-0.02,0.02 -0.04,0.03 -0.05,0.05l-0.14 0.16 0 -0.4 -0.61 -0.61 -0.04 -0c-0,0 -0,0 -0.01,0 -0.09,0 -0.21,0.03 -0.27,0.06 -0.06,0.03 -0.16,0.12 -0.22,0.18 -0.06,0.07 -0.11,0.12 -0.11,0.12l0 -0.47 0 -0.53 0 -0.01 -1.29 -1.29z"/>
 </g>
</svg>
