<?xml version="1.0" encoding="UTF-8"?>
<!DOCTYPE svg PUBLIC "-//W3C//DTD SVG 1.1//EN" "http://www.w3.org/Graphics/SVG/1.1/DTD/svg11.dtd">
<!-- Creator: CorelDRAW 2019 (64-Bit) -->
<svg xmlns="http://www.w3.org/2000/svg" xml:space="preserve" width="30.3332mm" height="30.3334mm" version="1.1" style="shape-rendering:geometricPrecision; text-rendering:geometricPrecision; image-rendering:optimizeQuality; fill-rule:evenodd; clip-rule:evenodd"
viewBox="0 0 29.43 29.44"
 xmlns:xlink="http://www.w3.org/1999/xlink"
 xmlns:xodm="http://www.corel.com/coreldraw/odm/2003">
 <defs>
  <style type="text/css">
   <![CDATA[
    .fil2 {fill:#010101}
    .fil0 {fill:white}
    .fil4 {fill:#CC2826;fill-rule:nonzero}
    .fil3 {fill:#EF4230;fill-rule:nonzero}
    .fil1 {fill:white;fill-rule:nonzero}
   ]]>
  </style>
 </defs>
 <g id="Слой_x0020_1">
  <metadata id="CorelCorpID_0Corel-Layer"/>
  <path class="fil0" d="M14.72 27.57c7.08,0 12.86,-5.78 12.86,-12.86 0,-7.08 -5.78,-12.86 -12.86,-12.86 -7.08,0 -12.86,5.78 -12.86,12.86 0,7.08 5.77,12.86 12.86,12.86z"/>
  <path class="fil1" d="M14.72 27.57l0 -0.09c3.52,0 6.71,-1.43 9.02,-3.75 2.31,-2.31 3.75,-5.5 3.75,-9.02 0,-3.52 -1.43,-6.71 -3.75,-9.02 -2.31,-2.31 -5.5,-3.75 -9.02,-3.75 -3.51,0 -6.71,1.43 -9.02,3.75 -2.31,2.31 -3.75,5.5 -3.75,9.02 0,3.52 1.43,6.71 3.75,9.02 2.31,2.31 5.5,3.75 9.02,3.75l0 0.09 0 0.09c-7.13,0 -12.95,-5.82 -12.95,-12.95 0,-7.13 5.82,-12.95 12.95,-12.95 7.13,0 12.95,5.82 12.95,12.95 -0,7.13 -5.82,12.95 -12.95,12.95l0 -0.09z"/>
  <path class="fil2" d="M14.57 19.75c-1.08,-0.32 -2.16,-0.64 -3.23,-0.96 -0.24,-0.36 -0.59,-0.9 -0.71,-1.08 -1,-1.52 -1.75,-3.83 -0.89,-5.56 0.46,-0.93 1.84,-1.99 2.79,-3.29 0.17,-0.23 0.32,-0.47 0.46,-0.72 0.35,-0.6 0.79,-1.78 0.76,-2.7 -0.03,-0.82 -0.22,-0.71 -0.46,-1.17 3.46,1.25 4.94,4.33 4.04,7.77 -0.09,0.35 -0.58,1.31 -1.11,2.18 -1.66,2.7 -2.05,2.37 -1.65,5.53z"/>
  <path class="fil2" d="M15.41 17.59c0.47,-1.79 1.78,-2.03 2.6,-4.39 0.21,-0.61 0.25,-1.58 0.29,-2.24 2.89,2.47 1.66,5.14 0.09,7.83 -0.99,0.33 -1.98,0.66 -2.98,0.98 -0.11,-0.68 -0.18,-1.51 -0.01,-2.18z"/>
  <polygon class="fil2" points="20.39,21.67 8.99,18.87 8.99,21.32 20.39,24.11 "/>
  <polygon class="fil2" points="14.85,23.02 10.38,21.92 9.01,22.26 9.01,24.45 "/>
  <polygon class="fil2" points="15.61,20.18 20.16,21.3 20.39,21.24 20.39,19.01 "/>
  <path class="fil3" d="M14.72 -0l0 0c-8.13,0 -14.72,6.59 -14.72,14.72 0,8.1 6.55,14.67 14.64,14.72l0.16 0c8.09,-0.04 14.64,-6.62 14.64,-14.72 0,-8.13 -6.59,-14.72 -14.72,-14.72zm0 27.66c-7.13,0 -12.95,-5.82 -12.95,-12.95 0,-7.13 5.82,-12.95 12.95,-12.95 7.13,0 12.95,5.82 12.95,12.95 0,7.13 -5.82,12.95 -12.95,12.95l0 -0.09 0 0.09z"/>
  <path class="fil3" d="M14.72 1.95c-3.51,0 -6.71,1.43 -9.02,3.75 -2.31,2.31 -3.75,5.5 -3.75,9.02 0,3.52 1.43,6.71 3.75,9.02 2.31,2.31 5.5,3.75 9.02,3.75l0 0.09 0 -0.09c3.52,0 6.71,-1.43 9.02,-3.75 2.31,-2.31 3.75,-5.5 3.75,-9.02 0,-3.52 -1.43,-6.71 -3.75,-9.02 -2.31,-2.31 -5.5,-3.75 -9.02,-3.75zm-3.14 8.03l-4.5 -4.5c2.07,-1.72 4.74,-2.75 7.64,-2.75 6.62,0 11.99,5.37 11.99,11.99 0,2.9 -1.03,5.57 -2.75,7.64l-4.86 -4.86c-0.22,0.43 -0.46,0.85 -0.71,1.28 -0.3,0.1 -0.61,0.2 -0.91,0.3l0.51 0.51 2.4 -0.59 0 2.23 -0.23 0.06 -0.62 -0.15 0.42 0.42 0.44 0.11 0 0.33 1.96 1.96c-2.07,1.72 -4.74,2.75 -7.64,2.75 -6.62,0 -11.99,-5.37 -11.99,-11.99 0,-2.9 1.03,-5.57 2.75,-7.64l4.58 4.58c0.39,-0.51 0.96,-1.06 1.53,-1.67zm4.48 4.48c-0.58,0.92 -0.99,1.46 -1.26,1.95l0.74 0.74c0.31,-0.79 0.8,-1.26 1.31,-1.89l-0.8 -0.8z"/>
  <path class="fil3" d="M14.72 1.77c-7.13,0 -12.95,5.82 -12.95,12.95 0,7.13 5.82,12.95 12.95,12.95l0 -0.09 0 -0.09c-3.51,0 -6.71,-1.43 -9.02,-3.75 -2.31,-2.31 -3.75,-5.5 -3.75,-9.02 0,-3.52 1.43,-6.71 3.75,-9.02 2.31,-2.31 5.5,-3.75 9.02,-3.75 3.52,0 6.71,1.43 9.02,3.75 2.31,2.31 3.75,5.5 3.75,9.02 0,3.52 -1.43,6.71 -3.75,9.02 -2.31,2.31 -5.5,3.75 -9.02,3.75l0 0.09 0 0.09c7.13,0 12.95,-5.82 12.95,-12.95 -0,-7.13 -5.82,-12.95 -12.95,-12.95z"/>
  <path class="fil4" d="M11.58 9.98c-0.57,0.61 -1.14,1.16 -1.53,1.67l4.76 4.76c0.27,-0.48 0.68,-1.03 1.26,-1.95l-4.48 -4.48z"/>
  <path class="fil4" d="M16.86 15.26c-0.51,0.64 -1,1.1 -1.31,1.89l1.93 1.93c0.3,-0.1 0.61,-0.2 0.91,-0.3 0.25,-0.43 0.49,-0.86 0.71,-1.28l-2.24 -2.24z"/>
  <polygon class="fil4" points="19.96,21.56 20.39,22 20.39,21.67 "/>
  <polygon class="fil4" points="20.39,19.01 18,19.6 19.54,21.14 20.16,21.3 20.39,21.24 "/>
 </g>
</svg>
