<?xml version="1.0" encoding="UTF-8"?>
<!DOCTYPE svg PUBLIC "-//W3C//DTD SVG 1.1//EN" "http://www.w3.org/Graphics/SVG/1.1/DTD/svg11.dtd">
<!-- Creator: CorelDRAW 2019 (64-Bit) -->
<svg xmlns="http://www.w3.org/2000/svg" xml:space="preserve" width="938px" height="625px" version="1.1" style="shape-rendering:geometricPrecision; text-rendering:geometricPrecision; image-rendering:optimizeQuality; fill-rule:evenodd; clip-rule:evenodd"
viewBox="0 0 99.4 66.27"
 xmlns:xlink="http://www.w3.org/1999/xlink"
 xmlns:xodm="http://www.corel.com/coreldraw/odm/2003">
 <defs>
  <style type="text/css">
   <![CDATA[
    .fil0 {fill:none}
    .fil1 {fill:#00A0E3}
   ]]>
  </style>
 </defs>
 <g id="Слой_x0020_1">
  <metadata id="CorelCorpID_0Corel-Layer"/>
  <rect class="fil0" width="99.4" height="66.27"/>
  <path class="fil1" d="M68.55 30.84l-0.15 0.01 0 -0.12 -0.53 -0.21 0 17.4c0,1.6 -0.13,3.26 0,4.86l0 0.01 0 0.55 -0.36 0.13 -0.02 0.01c-0.59,0.14 -1.46,0.05 -2.08,0.05 -0.75,0.01 -1.5,0.01 -2.24,0.01 -5.19,0 -10.39,0.03 -15.58,0.03 -3.56,0.01 -7.11,0.01 -10.67,-0.01 -1.2,0 -2.41,-0.01 -3.61,-0.03 -0.36,0 -0.72,-0.01 -1.08,-0.02 -0.15,-0.01 -0.4,-0.01 -0.54,-0.04l-0.19 -0.05 -0.04 -0.19c-0.03,-0.18 -0.03,-0.4 -0.03,-0.58 -0.01,-0.38 -0.02,-0.76 -0.03,-1.14 -0.01,-1.24 -0.02,-2.48 -0.02,-3.73 -0.01,-3.63 -0.01,-7.26 0,-10.89 0.01,-5.15 0.04,-10.3 0.04,-15.45l0 -3.05c0.01,-0.29 0.04,-0.62 0,-0.91l0 -0.02 0 -1.14 0 -0.01c0.05,-0.8 0.01,-1.64 -0.01,-2.44 -0.02,-0.64 -0.14,-2.73 0.13,-3.35 0.35,-1.95 2.28,-1.78 3.83,-1.78l1.96 0 0 -1.45 3.93 0 0.09 -0.04c0.33,-0.12 0.79,-0.27 1.14,-0.22l0.03 0 0.36 0.12c0.13,0.04 0.24,0.05 0.37,0.1l0.1 0.04 0.99 0 0 1.45 10.47 0 0 -1.45 7.01 0 0 1.44c1.34,-0.04 2.72,-0.1 4.02,0.03 0.75,0.07 1.42,0.49 1.77,1.16 0.4,0.75 0.26,1.67 0.26,2.49l0 17.82 0.53 -0.01 0 -0.21 0.15 0.07c0,-6.33 0,-12.66 -0.04,-18.99 0,-0.64 -0.08,-0.96 -0.39,-1.5 -0.11,-0.19 -0.2,-0.36 -0.27,-0.56 -0.27,-0.17 -0.78,-0.53 -1.02,-0.74 -0.61,-0.05 -1.19,-0.19 -1.83,-0.19 -0.7,0 -1.41,0.04 -2.1,-0.02l-0.36 -0.03 0.09 -0.35c0.05,-0.18 0.19,-0.46 0.2,-0.61 0.01,-0.07 -0.02,-0.14 -0.06,-0.21 -0.3,-0.06 -1.1,-0.06 -1.36,-0.07 -0.9,-0.02 -1.81,-0.02 -2.72,-0.02 -1.35,0.01 -2.7,0.03 -4.05,0.03 -0.11,-0.01 -0.67,0 -0.75,0.11 -0.02,0.06 0.18,0.67 0.2,0.83l0.04 0.34 -8.91 0 0.04 -0.34c0.02,-0.14 0.07,-0.29 0.11,-0.43 0.11,-0.33 0.2,-0.45 -0.18,-0.51l-4.14 0c-0.37,0 -4.02,-0.07 -4.53,0.06 0.01,0.08 0.04,0.2 0.06,0.24 0.05,0.23 0.09,0.45 0.1,0.68l0.01 0.34 -0.34 -0.03c-0.92,-0.06 -3.04,-0.13 -3.85,0.25 -0.84,0.39 -1.56,1.22 -1.6,2.17 0.08,0.99 0.01,2.09 -0.02,3.08 -0.02,0.76 -0.04,1.54 -0.01,2.3l0 0.01 0.04 5.61 0 25.27c0,3.39 0.18,6.81 -0.01,10.19 0,0.38 0.21,0.93 0.43,1.23 0.2,0.28 0.59,0.54 0.79,0.81 0.89,0.33 1.11,0.4 2.13,0.42l27.9 0c0.72,0 1.44,0.02 2.16,0.02 0.56,0 1.71,0.02 2.23,-0.15 0.82,-0.28 1.89,-1.19 1.86,-2.14l0 -0.07 0.01 -0.04c0.03,-0.18 0.03,-0.46 0.03,-0.65 0.02,-0.53 0.02,-1.07 0.03,-1.61 0.02,-1.79 0.03,-3.59 0.04,-5.39 0.03,-5.3 0.03,-10.6 0.04,-15.91 0,-0.89 0,-1.78 0,-2.67zm-20.88 -13.67l3.94 0c0.06,0 0.11,0.05 0.11,0.11l0 1.73c0,0.06 -0.05,0.11 -0.11,0.11l-3.94 0c-0.06,0 -0.11,-0.05 -0.11,-0.11l0 -1.73c0,-0.06 0.05,-0.11 0.11,-0.11zm-9.7 -8.97l3.09 0c0.14,0 0.25,0.11 0.25,0.25l0 0c0,0.14 -0.11,0.25 -0.25,0.25l-3.09 0c-0.14,0 -0.25,-0.11 -0.25,-0.25l0 0c0,-0.14 0.11,-0.25 0.25,-0.25zm17.7 0l3.09 0c0.13,0 0.25,0.11 0.25,0.25l0 0c0,0.14 -0.12,0.25 -0.25,0.25l-3.09 0c-0.14,0 -0.25,-0.11 -0.25,-0.25l0 0c0,-0.14 0.11,-0.25 0.25,-0.25zm6.99 50.61l-29.18 0 -0.03 -0.01c-2.33,-0.35 -1.97,-2.64 -1.97,-4.41l0 -0.31 36.39 0 0 2.5 0 0.02c-0.07,0.71 -0.29,1.35 -0.9,1.78 -0.96,0.67 -3.14,0.43 -4.31,0.43zm-27.75 -37.13c-1.04,0.26 -1.45,0.94 -1.46,1.99l0 19.99c0,1.08 -0.02,2.16 -0.03,3.25 -0.01,0.76 -0.02,1.53 0.01,2.3 0.02,0.66 0.07,1.77 0.58,2.26 0.46,0.45 1.38,0.5 1.98,0.52 1.5,0.06 3.05,-0.01 4.55,-0.01 3.98,0 7.97,0.03 11.95,0.03 2.67,0.01 5.35,0.01 8.02,-0.01 0.92,0 1.84,-0.01 2.76,-0.02 0.32,-0.01 0.9,0.01 1.2,-0.05 0.99,-0.21 1.42,-1.02 1.43,-1.98 0.11,-6.66 0,-13.33 0,-19.99 0,-1.32 0,-2.64 0,-3.96 0,-0.95 0.22,-2.74 -0.3,-3.53 -0.61,-0.95 -1.74,-0.84 -2.74,-0.84 -1.35,0 -2.7,0 -4.05,0 -3.95,0 -7.9,-0.03 -11.85,-0.04 -2.69,-0.01 -5.37,-0.01 -8.05,0 -0.93,0.01 -1.85,0.02 -2.78,0.04 -0.3,0 -0.93,-0.01 -1.22,0.05zm0.08 0.66c0.34,-0.1 1.07,-0.09 1.43,-0.1 0.79,-0.01 1.59,-0.01 2.38,0 1.19,0.01 2.38,0.04 3.57,0.04 3.61,0 7.22,-0.03 10.83,-0.03 2.54,-0.01 5.08,-0.01 7.62,0.02 0.42,0 3.49,-0.01 3.78,0.14 1.04,0.52 0.65,2.54 0.65,3.49l0.01 22.12c0,0.58 0.03,1.16 0.02,1.73 0,0.39 -0.03,0.81 -0.28,1.12 -0.46,0.57 -1.61,0.54 -2.27,0.54 -0.76,0 -1.53,-0.02 -2.3,-0.04 -1.15,-0.02 -2.3,-0.04 -3.45,-0.04 -3.61,0 -7.22,0.03 -10.83,0.03 -2.54,0.01 -5.08,0.01 -7.62,-0.02 -0.42,0 -3.49,0.01 -3.78,-0.14 -1.03,-0.52 -0.66,-2.52 -0.66,-3.48l0.01 -11.06c0,-2.47 -0.01,-4.94 -0.01,-7.41 0,-1.22 0.01,-2.43 0.01,-3.65 0,-0.8 -0.23,-2.3 0.33,-2.92 0.15,-0.17 0.34,-0.28 0.56,-0.34zm1.48 1.76c-0.34,0.13 -0.46,0.44 -0.32,0.78 0.17,0.41 0.68,0.35 1.04,0.35 4.2,-0.01 8.39,0.02 12.59,0.02 2.94,0.01 5.88,0.01 8.81,-0.01 1.01,0 2.02,-0.01 3.03,-0.03 0.31,0 0.62,-0.01 0.92,-0.02 0.12,-0.01 0.29,-0.01 0.38,-0.02 0.13,-0.05 0.27,-0.27 0.31,-0.4 0.24,-0.65 -0.64,-0.72 -1.07,-0.72 -4.19,0.01 -8.38,-0.02 -12.58,-0.02 -2.93,0 -5.87,-0.01 -8.8,0.01 -1.01,0 -2.01,0.01 -3.02,0.03 -0.31,0 -0.61,0.01 -0.92,0.02 -0.11,0 -0.29,0 -0.37,0.01zm25.37 15.09c0.08,-0.11 0.19,-0.26 0.19,-0.3 -0.01,-0.05 -0.13,-0.2 -0.22,-0.3 -0.9,-0.05 -1.81,-0.06 -2.7,-0.06 -1.26,-0.01 -2.53,-0.01 -3.79,0 -2.05,0.01 -4.1,0.04 -6.15,0.04l-9.54 0c-0.35,0 -2.3,-0.26 -2.29,0.32 0,0.58 1.81,0.32 2.19,0.32 5.34,0 10.69,-0.1 16.04,0.01 1.04,0.02 2.08,0.05 3.12,0.06 1.04,0 2.11,0 3.15,-0.09zm-0.03 -6.24c0.22,-0.06 0.29,-0.32 0.15,-0.5 -0.15,-0.18 -0.9,-0.11 -1.12,-0.11l-16.75 0c-1.07,0 -2.15,-0.03 -3.22,-0.04 -0.71,0 -1.43,-0.01 -2.14,0 -0.25,0.01 -0.9,0 -1.13,0.06 -0.25,0.07 -0.39,0.27 -0.23,0.48 0.42,0.29 3.8,0.13 4.49,0.13 3.31,0 6.62,0.02 9.92,0.03 2.24,0 4.48,0.01 6.72,0 0.77,-0.01 1.55,-0.01 2.32,-0.02 0.28,-0.01 0.74,0.01 0.99,-0.03zm-13.09 12.5l1.49 0c2.02,-0.08 4.04,-0.01 6.06,-0.01 0.93,0 1.86,0.04 2.79,0.05 0.81,0 2.05,0.03 2.89,-0.13 0.02,-0.18 0.04,-0.41 -0.01,-0.47 -0.11,-0.11 -0.95,-0.07 -1.1,-0.07 -0.98,0 -1.97,0 -2.95,0 -1.94,0 -3.89,0.03 -5.83,-0.01l-0.83 0.01 -0.5 0 -0.69 -0.02c-0.78,0.06 -1.65,0.03 -2.43,0.02 -1.3,-0.02 -2.6,-0.04 -3.9,-0.06 -0.79,-0.01 -5.72,-0.09 -6.31,0.16 -0.14,0.15 -0.08,0.41 0.1,0.48 0.22,0.09 1.15,0.04 1.42,0.04 1.5,0 3,-0.03 4.51,-0.04 1.74,-0.02 3.54,-0.05 5.29,0.05zm-5.98 -35.01c-1.01,0.13 -1.83,0.68 -2.12,1.69 -0.12,0.44 -0.12,0.91 -0.01,1.35 0.31,1.3 1.39,2.07 2.73,1.88 1.39,-0.19 2.32,-1.41 2.12,-2.81 -0.19,-1.32 -1.38,-2.3 -2.72,-2.11zm-0.76 3.93c-0.4,-0.22 -0.68,-0.58 -0.78,-1.03 -0.16,-0.65 0.07,-1.37 0.58,-1.81 0.47,-0.42 1.06,-0.52 1.63,-0.4l-0.07 -0.15 0.3 0.21c0.13,0.04 0.26,0.09 0.38,0.15l0.73 0.34 -0.32 0.09c0.32,0.3 0.41,0.67 0.41,1.15 -0.01,0.68 -0.38,1.26 -0.97,1.59 -0.23,0.13 -0.49,0.21 -0.75,0.24l0.33 0.38 -0.76 -0.39c-0.17,-0.03 -0.34,-0.09 -0.49,-0.19 -0.08,-0.05 -0.15,-0.11 -0.22,-0.18zm1.8 -2.41c-0.13,0.03 -0.38,0.08 -0.48,0.14 -0.14,0.09 -0.58,0.59 -0.71,0.73 -0.08,0.07 -0.55,0.56 -0.53,0.68 0.01,0.05 0.13,0.19 0.23,0.3 0.53,-0.1 0.63,-0.38 1.03,-0.76 0.34,-0.33 0.72,-0.51 0.48,-1.05l-0.02 -0.04zm-8.77 3.08c0.04,0.02 0.08,0.04 0.13,0.06l0.1 0.06 0.03 0.06c0.14,0.02 0.3,0.05 0.43,0.08 0.28,0.04 0.55,0.07 0.83,0.05 0.77,-0.04 1.34,-0.41 1.78,-1.04 0.67,-0.94 0.56,-2.42 -0.3,-3.2 -1.37,-1.25 -3.63,-0.7 -4.14,1.12 -0.23,0.83 0.03,1.09 0.13,1.74l0.04 0.01 0.06 0.12c0.07,0.15 0.15,0.27 0.25,0.41 0.16,0.23 0.11,0.25 0.37,0.28l0.16 0.01 0.08 0.14c0.02,0.04 0.03,0.07 0.05,0.1zm-0.5 -1.53l-0.18 0.21 0.11 -0.92 -0.05 -0.84 0.17 0.24c0.75,-2.25 4.29,-0.77 3.46,1.1 -0.04,0.38 -0.2,0.66 -0.44,0.9l-0.1 0.19 0 -0.1c-0.08,0.06 -0.16,0.12 -0.24,0.17 -0.37,0.25 -0.78,0.28 -1.2,0.27 -0.08,0.16 -0.25,0.15 -0.4,0.18 -0.21,0.05 -0.47,0.08 -0.57,-0.17 0,0 0,0 0,0l-0.13 -0.07 0.18 -0.33c-0.35,-0.2 -0.52,-0.46 -0.61,-0.83zm0.54 -0.63c0.08,0.11 0.19,0.26 0.3,0.3 0.16,0.07 0.65,0.03 0.83,0.03 0.28,0.01 0.61,0.04 0.88,0.01 0.05,-0.01 0.1,-0.01 0.16,-0.01 0.03,-0.03 0.07,-0.05 0.1,-0.07 0.03,-0.02 0.06,-0.04 0.08,-0.06 -0.01,-0.17 -0.04,-0.4 -0.1,-0.45 -0.09,-0.08 -0.69,-0.06 -0.81,-0.06 -0.11,0 -1.13,-0.02 -1.2,0.03 -0.04,0.02 -0.16,0.18 -0.24,0.28zm13.31 6.64l2.63 0c0.23,0 0.87,0.05 1.05,-0.08 0.06,-0.04 0.09,-0.11 0.11,-0.17 0.09,-0.32 0.03,-1.4 0.03,-1.79 -0.01,-0.56 0.01,-0.69 -0.56,-0.71l-3.87 0c-0.57,0.02 -0.57,0.15 -0.58,0.71 0,0.29 -0.11,1.64 0.04,1.84 0.16,0.2 0.92,0.2 1.15,0.2zm1.09 -9.08c-1.41,0.21 -2.35,1.38 -2.17,2.81 0.1,0.83 0.53,1.51 1.3,1.87 0.43,0.19 0.9,0.26 1.37,0.22 1.53,-0.13 2.47,-1.32 2.23,-2.86 -0.2,-1.27 -1.45,-2.22 -2.73,-2.04zm-1.54 2.71c-0.08,-0.71 0.18,-1.37 0.8,-1.75 1.13,-0.71 2.73,-0.13 2.85,1.31 0.2,2.43 -3.41,2.69 -3.65,0.44zm2.92 -0.5c-0.57,-0.09 -1.37,-0.19 -1.9,-0.04 -0.11,0.03 -0.34,0.11 -0.34,0.26 0,0.12 0.14,0.31 0.25,0.33 0.22,0.04 0.62,0.03 0.85,0.03 0.28,0 0.61,0.01 0.87,-0.01 0.44,-0.04 0.41,-0.27 0.27,-0.57zm7.6 -1.3l-0.13 1.6 0.01 0.13 -0.02 0 0 0.02c-0.06,0.73 -0.5,1.29 -1.19,1.53 -2.33,0.82 -3.52,-2.65 -1.24,-3.45 0.93,-0.34 1.79,0.04 2.2,0.8l0.27 -0.76c-0.56,-0.67 -1.46,-1.03 -2.61,-0.64 -3.19,1.08 -1.55,5.7 1.56,4.67 1.84,-0.61 2.03,-2.68 1.15,-3.9zm-3.03 1.77c0.31,0.1 0.87,0.13 1.13,0.13 0.19,0 1.09,-0.05 1.17,-0.27l0 -0.03 -0.01 -0.04c-0.02,-0.07 -0.07,-0.16 -0.12,-0.22 -0.16,-0.19 -1.35,-0.13 -1.61,-0.12 -0.58,0.01 -0.69,0.07 -0.56,0.55zm7.09 -2.57c-3.21,1.04 -1.62,5.71 1.49,4.71 1.3,-0.42 1.98,-1.75 1.61,-3.04 -0.38,-1.35 -1.77,-2.1 -3.1,-1.67zm2.5 1.95c0.15,0.33 0.17,0.48 0,0.81 -0.47,2.11 -3.59,1.82 -3.63,-0.39 -0.03,-2.08 3.05,-2.67 3.63,-0.42zm-0.73 0.58l0.01 -0.38c-0.29,-0.28 -1.77,-0.15 -2.05,-0.04 -0.42,0.28 0,0.54 0.35,0.55 0.32,0.02 1.39,0.13 1.64,-0.08 0.02,-0.02 0.03,-0.03 0.05,-0.05z"/>
 </g>
</svg>
