<?xml version="1.0" encoding="UTF-8"?>
<!DOCTYPE svg PUBLIC "-//W3C//DTD SVG 1.1//EN" "http://www.w3.org/Graphics/SVG/1.1/DTD/svg11.dtd">
<!-- Creator: CorelDRAW 2019 (64-Bit) -->
<svg xmlns="http://www.w3.org/2000/svg" xml:space="preserve" width="938px" height="625px" version="1.1" style="shape-rendering:geometricPrecision; text-rendering:geometricPrecision; image-rendering:optimizeQuality; fill-rule:evenodd; clip-rule:evenodd"
viewBox="0 0 80.33 53.55"
 xmlns:xlink="http://www.w3.org/1999/xlink"
 xmlns:xodm="http://www.corel.com/coreldraw/odm/2003">
 <defs>
  <style type="text/css">
   <![CDATA[
    .fil0 {fill:none}
    .fil1 {fill:#00A0E3}
   ]]>
  </style>
 </defs>
 <g id="Слой_x0020_1">
  <metadata id="CorelCorpID_0Corel-Layer"/>
  <rect class="fil0" width="80.33" height="53.55"/>
  <path class="fil1" d="M27.67 10.92l0 36.17c0.61,0.12 1.29,0.13 1.9,0.12 0.59,0 1.18,-0.03 1.77,-0.03l0.18 0 0 0.18c0,0.4 -0.01,0.8 -0.02,1.21 0,0.27 -0.01,0.55 -0.01,0.83 0,0.15 0,0.57 0.13,0.69 0.1,0.09 0.36,0.09 0.48,0.09 0.41,0 0.82,-0.02 1.23,-0.02 0.05,0 0.11,-0.01 0.15,-0.04 0.21,-0.14 0.21,-0.71 0.21,-0.93 0.01,-0.61 -0.04,-1.22 -0.04,-1.83l0 -0.18 1.35 0 0 0.18c0,0.4 -0.01,0.8 -0.02,1.21 0,0.27 -0.01,0.55 -0.01,0.83 0,0.15 0,0.57 0.13,0.69 0.1,0.09 0.36,0.09 0.48,0.09 0.41,0 0.82,-0.02 1.23,-0.02 0.05,0 0.11,-0.01 0.15,-0.04 0.21,-0.14 0.21,-0.71 0.22,-0.93 0,-0.61 -0.05,-1.22 -0.05,-1.83l0 -0.18 6.94 0 0 0.18c0,0.4 0,0.8 -0.01,1.21 -0.01,0.27 -0.02,0.55 -0.01,0.83 0,0.15 0,0.57 0.13,0.69 0.1,0.09 0.35,0.09 0.47,0.09 0.41,0 0.82,-0.02 1.23,-0.02 0.06,0 0.11,-0.01 0.16,-0.04 0.2,-0.14 0.21,-0.71 0.21,-0.93 0,-0.61 -0.05,-1.22 -0.05,-1.83l0 -0.18 1.35 0 0 0.18c0,0.4 0,0.8 -0.01,1.21 -0.01,0.27 -0.02,0.55 -0.01,0.83 0,0.15 0,0.57 0.13,0.69 0.1,0.09 0.35,0.09 0.48,0.09 0.4,0 0.82,-0.02 1.22,-0.02 0.06,0 0.11,-0.01 0.16,-0.04 0.2,-0.14 0.21,-0.71 0.21,-0.93 0.01,-0.61 -0.05,-1.22 -0.05,-1.83l0 -0.18 0.18 0c0.93,0 1.89,0.09 2.81,-0.09l0 -36.17c-0.75,-0.15 -1.53,-0.16 -2.28,-0.27 -0.44,-0.06 -0.85,-0.05 -1.29,-0.07l-4.09 -0.25c-0.93,0.01 -1.83,-0.04 -2.75,-0.12l-0.16 -0.01 0 -0.17c0,-0.37 -0.01,-0.77 0.03,-1.14 0.02,-0.2 0.07,-0.44 0.25,-0.57 0.16,-0.1 0.38,-0.08 0.57,-0.06 0.28,0.03 0.55,0.07 0.83,0.08l1.73 -0.1 0 0c0.19,0 0.37,0.02 0.56,0.05 0.11,0.01 0.24,0.03 0.35,0.01 0.11,-0.02 0.19,-0.09 0.26,-0.17l-0.08 -0.28c-0.98,0 -1.97,0 -2.95,0 -0.41,0 -0.85,-0.01 -1.25,0.04 -0.17,0.02 -0.4,0.06 -0.52,0.19 -0.13,0.15 -0.15,0.42 -0.16,0.6 -0.03,0.44 -0.01,0.91 -0.01,1.35l0 0.18 -4.46 0.13 0 -0.18c0,-0.63 -0.01,-1.25 0.02,-1.88 0.1,-2.2 0.82,-3.83 3.18,-4.32 0.34,-0.07 0.77,-0.08 1.12,-0.09 0.55,-0.02 1.09,-0.02 1.63,-0.02 0.81,0.01 1.63,0.03 2.44,0.04 0.2,0 0.4,0.02 0.6,0.02 0.09,0 0.21,0 0.29,-0.05 0.07,-0.05 0.12,-0.17 0.15,-0.27 -0.07,-0.13 -0.1,-0.22 -0.3,-0.22l-4.97 0c-3.14,0 -4.67,2.35 -4.67,5.29l0 1.68 -0.18 0c-0.66,0 -1.32,0 -1.99,0.03 -0.86,0.02 -1.76,0.06 -2.62,0.18 -0.38,0.05 -0.77,0.07 -1.16,0.09 -0.48,0.02 -0.97,0.04 -1.45,0.08 -0.55,0.04 -1.13,0.09 -1.67,0.2zm1.82 34.95c-0.8,-1.88 0.27,-3.4 -0.61,-3.86 -0.27,0.58 -0.15,1.44 -0.16,2.13 0,1.13 -0.27,1.66 0.77,1.73zm0.01 -15.54c0.34,-0.8 0.36,-1.33 0,-2.14 -0.5,0.81 -0.46,1.38 0,2.14zm0 -3.74c0.32,-0.93 0.35,-3.18 0,-4.16 -0.45,0.92 -0.44,3.27 0,4.16zm0 -4.96c0.51,-1.23 0.42,-6.22 0,-7.36 -0.52,1.04 -0.4,6.68 0,7.36zm17.58 11.26c-5.4,-0.66 -10.95,-0.55 -16.32,0.36 -0.83,0.14 -1.67,0.42 -2.51,0.49l-0.2 0.01 0 -22.37 0.14 -0.03c1.01,-0.24 2.12,-0.27 3.15,-0.3 0.91,-0.03 1.84,-0.04 2.74,-0.17 1,-0.13 2.02,0.05 3,-0.1 0.17,-0.03 0.34,-0.04 0.51,-0.05 0.24,-0.01 0.49,-0.01 0.73,-0.02 0.62,-0.01 1.24,-0.01 1.86,-0.01 0.95,0.01 1.9,0.02 2.85,0.02 0.35,0 0.69,0.02 1.05,0.06 0.4,0.04 0.78,0.07 1.18,0.07 0.55,0 1.09,0.02 1.64,0.06 0.21,0.02 0.41,0.04 0.62,0.06 0.28,0.02 0.57,0.03 0.85,0.04 0.44,0.02 0.87,0.03 1.3,0.05 0.48,0.03 0.98,0.05 1.46,0.09 0.2,0.02 0.72,0.06 0.88,0.15 0.35,0.22 0.33,0.98 0.32,1.34 -0.01,0.33 -0.05,0.67 -0.05,1l0 20.13 -5.2 -0.88zm-19.03 1.39l2.85 -0.56c0.96,-0.19 1.96,-0.31 2.94,-0.43 0.83,-0.1 1.67,-0.2 2.51,-0.25 0.74,-0.04 1.47,-0.03 2.2,-0.03 0.36,0 0.67,-0.05 1.02,-0.09 0.2,-0.03 0.39,-0.05 0.6,-0.04 0.19,0 0.37,0.02 0.56,0.05 0.32,0.05 0.6,0.08 0.92,0.08l0.01 0 3.11 0.12c0.53,0.02 1.07,0.1 1.6,0.16l4.32 0.66 0 0c0.47,0.09 0.95,0.26 1.42,0.3l0.17 0.01 0 12.4 -24.23 0 0 -12.38zm3.86 13.57l0 -0.67 1.23 0 0 2.47 -1.28 0 0.05 -0.22c0.05,-0.23 0.11,-0.47 0.08,-0.71 -0.02,-0.1 -0.04,-0.2 -0.05,-0.31 -0.03,-0.18 -0.03,-0.37 -0.03,-0.56zm3.6 -0.67l1.11 0 0 2.47 -1.11 0 0 -2.47zm9.08 0l1.1 0 0 2.47 -1.1 0 0 -2.47zm3.48 0l1.1 0 0 2.47 -1.1 0 0 -2.47zm-11.21 -9.52c0,0.93 0.33,1.78 0.99,2.44 0.96,0.97 2.41,1.21 3.66,0.67 1.04,-0.45 1.72,-1.34 1.89,-2.46 0.04,-0.24 0.05,-0.47 0.04,-0.71 -0.02,-0.51 -0.15,-1.01 -0.38,-1.46 -0.58,-1.12 -1.64,-1.72 -2.89,-1.72 -1.76,0 -3.31,1.46 -3.31,3.24zm0.52 0.25c0,-4.04 5.57,-4.03 5.57,0 0,3.5 -5.57,3.5 -5.57,0zm1.07 0.47c0.54,0.11 1.18,0.13 1.72,0.13 0.53,0 1.17,-0.02 1.71,-0.13 0.06,-0.29 0.11,-0.6 0.13,-0.89 0.01,-0.26 0.04,-1.02 -0.35,-1.02 -0.73,0 -1.45,-0.06 -2.17,-0.06 -0.24,0 -0.95,0.01 -1.1,0.25 -0.03,0.04 -0.03,0.08 -0.03,0.13 0,0.21 -0.01,0.41 -0.01,0.62 -0.01,0.12 -0.01,0.23 0,0.35 0.01,0.2 0.05,0.42 0.1,0.62zm0.42 -1.4l2.59 0 0 0.98 -2.59 0 0 -0.98zm7.21 6.43l-0.46 -1.35c-0.01,-0.04 -0.02,-0.08 -0.02,-0.11 -0.1,-0.03 -0.2,-0.05 -0.3,-0.07 -0.13,-0.03 -0.28,-0.06 -0.41,-0.12 -0.05,-0.02 -0.08,-0.04 -0.12,-0.06 -0.05,-0.01 -0.2,-0.01 -0.25,-0.01 -1.01,0 -1.69,0.68 -1.69,1.69 0,2.12 3.22,2 3.25,0.03zm-1.94 -0.06l0.19 0.16c0.18,-0.26 0.37,-0.57 0.6,-0.73 0.12,-0.1 0.26,-0.16 0.41,-0.2l0.13 -0.03 0.07 0.12c0.23,0.41 0.27,0.87 0.01,1.28 -0.14,0.22 -0.36,0.39 -0.6,0.49 -0.31,0.14 -0.69,0.18 -1.02,0.05 -0.52,-0.21 -0.71,-0.71 -0.71,-1.24 0,-0.99 0.69,-1.17 1.54,-1.17l0.24 0 -0.06 0.23c-0.07,0.25 -0.2,0.44 -0.38,0.62 -0.13,0.14 -0.29,0.27 -0.42,0.42zm-7.49 -1.48c-0.03,0 -0.05,0.01 -0.09,0.01 -0.11,0.01 -0.22,-0.01 -0.33,-0.03 -0.13,-0.03 -0.24,-0.07 -0.36,-0.11 -0.1,-0.04 -0.19,-0.05 -0.3,-0.05 -0.73,0 -1.56,0.68 -1.56,1.44 0,0.73 0.24,1.47 0.99,1.72 0.37,0.12 0.78,0.09 1.14,-0.04 0.33,-0.12 0.64,-0.33 0.85,-0.62 0.34,-0.5 0.3,-1.07 0.03,-1.59 -0.1,-0.2 -0.2,-0.39 -0.29,-0.58 -0.02,-0.04 -0.05,-0.11 -0.08,-0.15zm-1.35 1.51c0.05,0.01 0.1,0.03 0.14,0.06 0.03,0.01 0.05,0.03 0.08,0.05 0.26,-0.4 0.47,-0.77 0.99,-0.91l0.18 -0.04 0.05 0.18c0.6,2.57 -2.35,2.07 -2.35,0.91 0,-0.36 -0.01,-0.82 0.21,-1.12 0.28,-0.4 0.89,-0.43 1.34,-0.43l0.3 0 -0.14 0.26c-0.12,0.22 -0.26,0.46 -0.43,0.64 -0.09,0.09 -0.17,0.15 -0.26,0.23 -0.05,0.04 -0.09,0.1 -0.11,0.17zm-1.67 -7.39l1.38 0 0 -0.51 -1.38 0 0 0.51zm12.82 4.1l0 -0.51c-0.31,-0.01 -0.62,-0.03 -0.93,-0.03 -0.09,0 -0.35,0 -0.42,0.08 -0.03,0.03 -0.03,0.1 -0.03,0.14 0,0.05 0,0.25 0.03,0.29 0.04,0.04 0.29,0.05 0.34,0.05 0.34,0 0.67,-0.01 1.01,-0.02zm0 -4.1l0 -0.51c-0.31,-0.01 -0.62,-0.03 -0.93,-0.03 -0.09,0 -0.35,0 -0.42,0.08 -0.03,0.03 -0.03,0.1 -0.03,0.14 0,0.05 0,0.25 0.03,0.29 0.04,0.04 0.29,0.04 0.34,0.05 0.34,0 0.67,-0.02 1.01,-0.02zm-12.82 4.1l1.39 0c0,-0.18 0,-0.45 -0.03,-0.48 -0.03,-0.03 -0.21,-0.04 -0.25,-0.04 -0.3,0 -0.61,0.01 -0.91,0.01 -0.19,0 -0.2,0.01 -0.2,0.19l0 0.32zm0 -2.11l1.38 0 0 -0.39 -1.38 0 0 0.39zm11.44 0l1.38 0 0 -0.39 -1.38 0 0 0.39z"/>
 </g>
</svg>
