<?xml version="1.0" encoding="UTF-8"?>
<!DOCTYPE svg PUBLIC "-//W3C//DTD SVG 1.1//EN" "http://www.w3.org/Graphics/SVG/1.1/DTD/svg11.dtd">
<!-- Creator: CorelDRAW 2019 (64-Bit) -->
<svg xmlns="http://www.w3.org/2000/svg" xml:space="preserve" width="938px" height="625px" version="1.1" style="shape-rendering:geometricPrecision; text-rendering:geometricPrecision; image-rendering:optimizeQuality; fill-rule:evenodd; clip-rule:evenodd"
viewBox="0 0 128.91 85.94"
 xmlns:xlink="http://www.w3.org/1999/xlink"
 xmlns:xodm="http://www.corel.com/coreldraw/odm/2003">
 <defs>
  <style type="text/css">
   <![CDATA[
    .fil0 {fill:none}
    .fil1 {fill:#00A0E3}
   ]]>
  </style>
 </defs>
 <g id="Слой_x0020_1">
  <metadata id="CorelCorpID_0Corel-Layer"/>
  <rect class="fil0" width="128.91" height="85.94"/>
  <path class="fil1" d="M50.38 60.54l28.11 0.01c-0.12,3.66 -1.72,3.57 -4.98,3.55l-17.42 -0.06c-3.56,0 -5.52,0.65 -5.71,-3.5zm19.84 11.82l1.29 0 0 2.37 -1.29 0 0 -2.37zm0.63 -1.9c0.48,0 0.88,0.33 0.88,0.74 0,0.4 -0.4,0.73 -0.88,0.73 -0.48,0 -0.88,-0.33 -0.88,-0.73 0,-0.41 0.4,-0.74 0.88,-0.74zm-12.3 -35.78c0.87,-1.12 -1.01,-2.44 0.54,-5.43 1.63,-3.16 6.1,-4.54 9.51,-0.94 1.67,1.75 1.42,3.42 1.11,5.86 1.06,-1.86 0.59,-4.49 -0.65,-6 -2.06,-2.51 -5.33,-3.42 -8.31,-1.69l-2.08 2.05c-0.92,1.4 -1.72,4.95 -0.12,6.15zm-6.62 18.93c0.15,0.09 0.34,0.17 0.55,0.24l0.36 -2.27 6.01 0 -0.06 2.1 -4.73 0.48c1.99,0.22 4.56,0.01 5.51,-0.59l0.22 -1.33c-1.31,-1.76 -2.31,-1.21 -4.66,-1.21 -2.12,0 -3.67,0.16 -3.2,2.58zm25.14 -3.69c0.09,-2.58 -0.9,-2.46 -3.23,-2.42 -1.83,0.03 -4.26,-0.43 -4.65,1.06 -0.22,0.81 0.09,1.35 0.7,1.69l0.34 -2.15 6.01 0 -0.06 2.11 -4.67 0.47c2.02,0.21 4.71,-0.32 5.56,-0.76zm-4.83 4.23l4.47 -0.19c0.33,-0.93 0.38,-1.63 0.19,-2.58 -1.73,-0.54 -5.2,-0.6 -7.19,-0.05 -0.95,1.56 -0.78,2.27 0.15,2.59l0.37 -2.34 6.01 0 -0.06 2.1 -4.55 0.47c0.19,0 0.4,0 0.61,0zm-20.13 -9.97c-0.37,1.22 -0.17,1.96 0.4,2.39l0.33 -2.08 6.01 0 -0.06 2.1 -4.72 0.48c1.45,0.15 3.45,-0.1 5.44,-0.2 0.57,-2.38 0.32,-2.96 -2.15,-2.98 -0.93,-0.01 -4.75,0.01 -5.25,0.29zm0.68 3.37c-1.24,0.43 -1.52,2.08 -0.3,2.77l0.35 -2.22 6.01 0 -0.06 2.11 -4.2 0.43c1.45,0.02 3.77,-0.01 4.17,-0.16 1.54,-0.61 1.49,-2.78 -0.78,-2.98 -0.35,-0.04 -5.12,0.02 -5.19,0.05zm16.99 -0.79l0.08 0.03 0.37 -2.3 6.01 0 -0.06 2.1 -4.73 0.48c1.85,0.18 4.17,-0.01 5.4,-0.36 0.85,-3.35 -1.11,-2.82 -3.97,-2.79 -2.69,0.02 -4.89,-0.01 -3.1,2.84zm-9.47 1.1l-0.03 2.38c0.3,0.05 0.62,0.11 0.95,0.15l0.37 -2.29 6.01 0 -0.06 2.11 -4.11 0.42c1.85,0.13 3.78,0.06 5.05,-0.51 0.52,-2.49 0.01,-2.65 -2.57,-2.63 -1.38,0.01 -4.82,-0.1 -5.61,0.37zm0.15 -1.26c0.21,0.09 0.47,0.17 0.76,0.24l0.38 -2.35 6.01 0 -0.06 2.1 -4.84 0.5c1.82,0.18 4.05,0.09 5.35,-0.33 1.84,-2.82 -0.47,-2.89 -3.1,-2.85 -2.86,0.04 -5.44,-0.76 -4.5,2.69zm2.42 7.56c2.98,0.02 6.67,0.56 5.72,-2.05 -0.54,-1.46 -2.28,-1.1 -3.96,-1.08 -1.48,0.01 -3.65,-0.3 -4.27,0.78 -0.73,1.29 -0.08,1.9 0.85,2.16l0.38 -2.39 6.01 0 -0.06 2.1 -4.67 0.48zm19.46 2.42l-36.24 0.41c1.47,0.81 35.39,0.32 37.05,0.37l-0.01 -41.04c-0.5,0.23 -0.78,-0.24 -0.76,1.98 0.06,8.4 0.38,33.84 -0.04,38.28zm-18.35 -24.21l1.09 3.51c-1.62,0.15 -2.01,0.14 -3.2,-0.51 0.46,-0.86 1.35,-2.45 2.11,-3zm0.22 -0.32l3.95 0.08c-0.32,1.78 -0.53,2.24 -1.68,2.96l-2.27 -3.04zm-3.58 1.98c-0.65,-1.25 -0.82,-1.72 -0.35,-3.2 0.87,0.35 2.62,0.46 3.31,1.3l-2.96 1.9zm4.93 -5.86c1.28,0.48 1.75,0.97 2.29,2.2 -0.35,0.21 0.32,0.02 -0.67,0.32l-2.95 0.98 1.33 -3.5zm-4.54 0.77c0.78,-0.41 1.64,-0.89 2.99,-1.07l-0.2 3.82c-0.56,-0.12 -1.14,-1.39 -1.65,-1.67 -1.28,-0.68 -0.72,-0.3 -1.14,-1.08zm1.42 -1.52c-6.16,2.36 -2.56,11.28 3.52,9.03 5.61,-2.08 2.59,-11.37 -3.52,-9.03zm10.41 48.11l7.04 0.01 0.06 2.8 -6.99 0.05 -0.11 -2.86zm-3.12 0.01l2.61 -0.01 0.11 2.85c0.15,2 -2.89,2.41 -2.62,0l-0.1 -2.84zm3.46 -4.92c1.06,-0.67 1.8,-0.78 3.23,-0.78l-0.07 1.41c-1.05,0.48 -2.38,-0.06 -3.16,-0.63zm-7.74 0.77l-0.15 -1.44c1.4,-0.21 2.22,0.12 3.21,0.67 -0.94,0.64 -1.85,0.9 -3.06,0.77zm-6.95 3.43c2.32,1.67 7.21,0.28 10.32,0.81l0.3 2.7c-1.14,0.09 -4.51,0.6 -7.77,0.62l-0.02 0 -3.74 -0.03c-1.66,-0.04 -2.95,-0.54 -3.36,-0.69 -1.29,-1.39 -0.62,-10.67 -0.58,-13.26l2.9 -0.11 0 0.07 0.93 0 0 8.6c0.78,0.72 -0.26,0.51 1.02,1.29l-0.06 0.24 0.06 -0.24zm-4.52 4.14c0.1,0.19 0.23,0.35 0.39,0.49l14.71 0c0.45,0.93 0.72,1.04 1.59,1.3 1.86,0.12 0.93,-0.74 2.43,-0.94l0.7 -0.36 6.72 0 -0.04 -4.69 -7.79 -0.12c-0.5,-0.82 -1.06,-1.68 -0.39,-2.99 0.58,-0.63 3.43,1.41 4.54,0.41 0.04,-0.04 2.09,-4.15 -3.19,-2.55 -1.88,0.58 -0.77,0.12 -2.44,-0.02 -1.53,-0.13 -1.27,0.47 -2.53,0.22 -0.82,-0.17 -1.8,-0.74 -2.79,-0.68 -1.95,0.12 -2.6,4.18 1.42,3 0.95,-0.28 1.84,-0.99 2.18,-0.28 0.45,0.91 0.09,2.14 -0.46,2.59 -1.05,0.88 -8.89,0.44 -9.93,0.02 -1.69,-1.72 -0.99,-6.49 -0.93,-9.3 1.94,-0.49 10.19,-0.17 12.8,-0.17 9.54,0 6.3,-0.03 8.56,-4.31l6.54 -0.19c-0.21,-12.79 -0.01,-25.76 -0.01,-38.58 0,-3.8 1.16,-13.65 -3.13,-16.09 -0.93,-0.53 -35.78,-1 -37.3,0.25 -3.8,3.12 -2.81,10.76 -2.81,16.16 0,12.75 0.19,25.64 -0.01,38.41l6.64 0.01c0.75,3.73 1.03,3.53 2.38,4.16 1.27,0.59 0.61,-0.33 1.04,0.84 -0.01,3.63 -0.35,9.93 0.31,13.12l0.8 0.29zm-10.62 -18.96c0.03,-6.32 -0.15,-44.44 0.36,-46.66l41.65 0.54 -0.1 45.85 -41.91 0.27zm0.48 -48.52c1.53,-4.78 1.67,-5.76 7.1,-5.76 4.01,0 8.03,0 12.04,0 2.39,0 15.77,-0.21 17.22,1.16 0.74,0.7 1.94,3.05 2.19,4.59l-38.55 0.01zm38.91 0.45c0.18,-2.59 -1.32,-4.18 -2.03,-5.8 3.18,0.07 4.24,3.47 4.68,6.65 -1.96,-0.03 -39.55,0.31 -41.33,-0.21l-0.56 -0.26c0.09,-0.05 0.2,-0.1 0.28,-0.13 0.08,-0.03 0.18,-0.09 0.28,-0.12 1.82,-0.53 31.28,-0.17 38.68,-0.13z"/>
 </g>
</svg>
