<?xml version="1.0" encoding="UTF-8"?>
<!DOCTYPE svg PUBLIC "-//W3C//DTD SVG 1.1//EN" "http://www.w3.org/Graphics/SVG/1.1/DTD/svg11.dtd">
<!-- Creator: CorelDRAW 2019 (64-Bit) -->
<svg xmlns="http://www.w3.org/2000/svg" xml:space="preserve" width="938px" height="625px" version="1.1" style="shape-rendering:geometricPrecision; text-rendering:geometricPrecision; image-rendering:optimizeQuality; fill-rule:evenodd; clip-rule:evenodd"
viewBox="0 0 67.53 45.02"
 xmlns:xlink="http://www.w3.org/1999/xlink"
 xmlns:xodm="http://www.corel.com/coreldraw/odm/2003">
 <defs>
  <style type="text/css">
   <![CDATA[
    .fil0 {fill:none}
    .fil1 {fill:#00A0E3}
   ]]>
  </style>
 </defs>
 <g id="Слой_x0020_1">
  <metadata id="CorelCorpID_0Corel-Layer"/>
  <rect class="fil0" width="67.53" height="45.02"/>
  <path class="fil1" d="M32.64 34.43l-4.82 0.01c0.21,-0.16 2.1,-0.93 2.35,-0.96 0.5,-0.05 2.1,0.67 2.47,0.95zm-18.41 -20.89c0.41,-0.02 0.37,-0.08 0.46,-0.47 -0.39,0.03 -0.54,0.06 -0.46,0.47zm14.44 1.38l0.27 0.42c0.29,-0.19 0.31,-0.14 0.4,-0.47l-0.67 0.05zm-2.03 -2.79c0.22,-0.34 0.24,-0.57 0,-0.91 -0.33,0.35 -0.3,0.59 0,0.91zm9.76 9.44l0.02 1.35 -0.86 -0.09c-0.13,-1.03 -0.05,-0.76 -1.04,-0.89l-0.01 -0.88c0.99,-0.11 1.45,-0.17 1.89,0.51zm-18.8 5.3c-0.04,-0.54 0.16,-0.14 0.21,-0.02 0.06,0.17 -0.19,0.22 -0.21,0.02zm-0.24 -0.32c-0.03,1.16 1.21,0.79 0.61,-0.05l-0.61 0.05zm-0.89 0.32c0.01,-0.35 -0.16,-0.05 0.15,-0.06 0.29,-0.01 -0.15,0.46 -0.15,0.06zm-0.17 -0.36l-0.07 0.7c0.06,0 0.35,0.04 0.38,0.04 0.48,-0.1 0.18,-0.04 0.36,-0.21l-0.09 -0.56 -0.58 0.03zm10.34 -16.5c0.18,-0.34 0.22,-1.09 0.08,-1.57l-0.19 0c-0.18,0.47 -0.13,1.25 0.11,1.57zm-8.13 17.14l0.7 0.05c0.15,-1.1 -0.86,-1.09 -0.7,-0.05zm13.26 -12.26l0.43 0.05c-0.16,0.11 -0.16,0.22 -0.43,-0.05zm-0.2 0.35c0.31,0.17 0.28,0.16 0.83,0.09l0.09 -0.68c-0.73,-0.22 -1.23,-0.07 -0.92,0.59zm-1.13 -0.35l0.43 0.05c0,0 -0.28,0.26 -0.35,0.07 -0.01,-0.04 -0.05,-0.05 -0.08,-0.12zm-0.3 -0.28c-0.04,0.86 0.01,0.9 0.94,0.7l0.1 -0.68 -1.04 -0.02zm-15.46 18.48c-0.52,-1.23 0.17,-2.23 -0.4,-2.53 -0.18,0.39 -0.1,0.94 -0.1,1.4 -0.01,0.74 -0.18,1.08 0.5,1.13zm14.07 -0.84c-0.36,-0.39 -0.8,-0.14 -1.13,-0.83 -0.3,-0.62 0.03,-1.22 -0.25,-1.78 -0.1,0.12 -0.25,-0.21 -0.21,1.01 0.06,1.43 1.02,1.91 1.59,1.6zm-1.27 -5.52c0,-2.57 0.22,-1.9 1.28,-2.48 -0.13,-0.14 0.31,-0.17 -0.37,-0.17 -1.45,0 -1.21,2.11 -1.21,2.7l0.3 -0.05zm-10.18 2.99c0.35,-0.09 0.57,-0.07 0.87,0.08 0.16,0.7 -0.12,1.11 -0.83,0.7 -0.2,-0.41 -0.15,-0.36 -0.04,-0.78zm0 1.21l0.89 0.01c0.62,-0.74 0.48,-0.9 -0.06,-1.6 -1.28,-0.07 -1.59,0.62 -0.83,1.59zm11.33 -15.4c-0.32,-0.57 -0.18,-1.38 0.59,-1.15 0.51,0.15 0.82,1.29 -0.59,1.15zm-0.5 -0.91c-0.02,0.7 0.08,0.85 0.4,1.18 1.46,0.26 1.75,-0.82 0.87,-1.69l-0.76 -0.04 -0.51 0.55zm23.74 21.7c0.44,0.43 3.36,0.19 4.58,0.2 0.19,0 0.57,0.02 0.74,0.01 0.81,-0.07 0.36,-0.04 0.54,-0.21 -0.37,-0.19 -5.49,-0.22 -5.86,0zm-16.6 0c0.19,0.18 -0.14,0.14 0.52,0.2l8.89 0c0.68,-0.11 0.19,-0.01 0.4,-0.2 -0.45,-0.23 -9.38,-0.23 -9.81,0zm-20.99 -8.32c0.48,-0.32 0.2,-2.23 0.2,-2.88l0 -6.69c0,-0.61 0.28,-2.74 -0.2,-2.99 -0.2,0.44 -0.21,12.05 0,12.56zm33.88 3.63c-0.43,-0.5 -0.21,-2.91 -0.21,-3.75 0,-0.95 -0.32,-2.96 0.21,-3.63 0.29,0.18 0.15,-0.05 0.25,0.31 0,0 0.02,0.38 0.02,0.4 0,0.33 -0.01,0.7 -0.01,1.03l0 4.07c0,1.75 0.12,1.36 -0.26,1.57zm0.5 -0.03c0.01,-0.04 0.02,-0.08 0.04,-0.11l0.02 -6.81c0,-1.1 -1.07,-1.05 -1.07,0.15l0 6.25c0,0.64 0.23,0.99 0.8,0.77l0.21 -0.25zm-20.83 -17.83l5.03 0.02 0.01 2.38 -5.04 -0.03 0 -2.37zm-0.3 2.69l5.57 0.01 0.08 -2.97 -5.65 -0.04 0 3zm25.28 7.78c0.13,0.1 0.24,-0.19 0.24,0.44l0 6.26c0,0.62 0.08,0.43 -0.24,0.71 -0.38,-0.35 -0.22,-0.45 -0.22,-1.59l-0.01 -5.1c0.01,-0.79 0.1,-0.6 0.23,-0.72zm-0.52 0.59l0 6.25c0,1.2 1.05,1.21 1.05,0l0 -6.25c0,-0.76 -0.02,-0.9 -0.82,-0.85 -0.22,0.34 -0.23,0.29 -0.23,0.85zm-2.73 -0.6c0.37,0.14 0.41,-0.2 0.41,0.6l0 6.11c0,0.54 0.07,0.35 -0.21,0.7 -0.35,-0.23 -0.26,-0.01 -0.26,-0.7l0 -6.26 0.06 -0.45zm-0.35 7.29c0.12,0.56 1.01,0.79 1.07,-0.43l-0.04 -6.7c-0.17,-0.63 -1.02,-0.84 -1.05,0.43 -0.01,0.72 0.01,1.47 0.01,2.19 0,0.9 -0.13,3.84 0.01,4.51zm-2.7 0.13c-0.21,-0.66 -0.08,-4.55 -0.09,-5.8 0,-0.62 -0.18,-1.34 0.29,-1.58 0.38,0.55 0.17,4.5 0.17,5.79 0.01,1.8 0.09,1.4 -0.37,1.59zm0.45 -7.64c-1.08,-0.17 -0.86,0.51 -0.86,1.4 0.01,1.5 -0.1,5.51 0.1,6.46 1.06,0.22 1,-0.18 0.99,-1.22 -0.01,-1.61 0.23,-5.86 -0.23,-6.64zm-3.26 7.63c-0.47,-0.19 -0.35,0.02 -0.38,-0.69 -0.04,-1.23 -0.12,-6.24 0.19,-6.69 0.46,0.26 0.27,1.18 0.27,1.73 0,1.25 0.12,4.99 -0.08,5.65zm0.31 0.22c0.2,-1.65 0.09,-5.18 0.09,-7.03 0,-0.72 -0.07,-0.95 -0.83,-0.82 -0.51,0.74 -0.24,3.33 -0.24,4.45 0,2.81 -0.35,3.71 0.98,3.4zm7.43 -0.21c-0.49,-0.19 -0.4,0.02 -0.4,-0.71l0 -6.11c0,-0.49 -0.02,-0.28 0.18,-0.56 0.31,0.16 0.28,-0.06 0.28,0.56 0,1.79 0.08,5.21 -0.06,6.82zm-0.71 -6.82l0 6.25c0,0.92 0.28,0.93 0.98,0.79 0.26,-1.69 0.11,-5.16 0.1,-7.04 0,-0.74 -0.05,-0.97 -0.85,-0.82 -0.14,0.22 -0.23,0.43 -0.23,0.82zm-5.86 -0.15c0,-0.59 0.12,-0.35 0.24,-0.44 0.1,0.09 0.22,-0.13 0.22,0.44l0 6.55c0,0.33 -0.07,0.27 -0.22,0.41 -0.18,-0.15 -0.1,0.07 -0.22,-0.31l-0.02 -6.65zm0.51 7.23c0.56,-0.77 0.26,-2.98 0.26,-4.17 0,-1.49 0.3,-3.79 -0.53,-3.78 -0.75,0 -0.54,1.07 -0.53,1.74 0.01,1.62 -0.25,5.46 0.24,6.24l0.56 -0.03zm-35.58 4.41c0.19,0.17 -0.25,0.13 0.54,0.21l16.15 -0.01c0.39,0 0.78,0 1.17,0 1.26,0.01 0.85,-0.06 1.01,-0.2 -0.45,-0.22 -18.46,-0.21 -18.87,0zm10.13 -2.18c0.32,-0.14 0.47,-0.19 0.84,0 -0.07,0.18 0.09,0.31 -0.39,0.32 -0.63,0.01 -0.34,-0.22 -0.45,-0.32zm-4.09 0.14c0.3,-0.45 0.41,-0.24 1.93,-0.25 1.27,0 1.64,-0.19 1.85,0.25 -0.2,0.16 0.09,0.08 -0.27,0.15l-3.04 0.03c-0.5,-0.07 -0.28,-0.06 -0.47,-0.18zm-1.14 -0.14c0.32,-0.14 0.47,-0.2 0.83,0 -0.07,0.18 0.07,0.31 -0.38,0.32 -0.72,0.02 -0.34,-0.2 -0.45,-0.32zm16.58 -0.65c1.38,-0.12 1.18,-0.17 2.27,-0.59l0.42 1.52 -2.69 -0.93zm-4.67 1l0.4 -1.58c0.99,0.52 1.11,0.46 2.23,0.54l-2.63 1.04zm-13 -4.94l1.81 -0.04c0.04,0.77 -0.09,1.49 0.2,2.13 0.83,0.43 3.31,0.35 4.25,0.09 0.19,-0.61 0.16,-1.43 0.15,-2.17l1.84 -0.06c0.27,4.85 0.33,4.23 -4.09,4.23 -4.75,0 -4.23,0.64 -4.16,-4.18zm40.05 2.98c-0.52,0.33 -9.06,0.15 -10.15,0.15 -1.3,0 -1.08,-0.35 -1.07,-1.6 0.01,-1.37 -0.2,-7.32 0.2,-7.69 0.66,-0.34 10.36,-0.3 11.17,0 0.21,0.67 0.14,6.56 0.13,8.14 0,0.91 -0.28,0.98 -0.28,1zm-27.19 -3.74l7.59 0c0.12,1.18 0.2,2.78 -0.51,3.54 -0.88,0.94 -1.74,0.77 -3.27,0.77 -2.81,0 -4.27,-0.09 -3.81,-4.31zm13.86 1.56l1.81 -0.02 -0.01 1.12 -1.76 0.03 -0.04 -1.13zm-20.74 -4.43c0.3,0.83 0.31,4.86 -0.03,5.5 -0.62,0.31 -2.42,0.29 -3.25,0.14 -0.83,-0.15 -0.55,-1.1 -0.55,-2.8 0.01,-1.39 -0.26,-2.74 0.41,-2.94 0.54,-0.17 2.91,-0.09 3.42,0.1zm18.28 5.16l-0.01 -0.29c0.37,-0.22 1.76,-0.21 2.16,0 -0.11,0.57 -0.08,0.39 -0.87,0.38 -0.44,-0.01 -0.93,0.05 -1.28,-0.09zm-1.36 -1.55l0.07 0.77 0.93 0.17 0.03 0.89c-1.01,0.06 -1.5,0.21 -1.86,-0.6 -0.32,-0.22 -0.2,-0.96 -0.1,-1.35 0.52,-0.07 0.62,-0.17 0.93,0.12zm-0.64 -6.23l0.37 0.01c0.17,0.45 0.06,3.51 0.07,4.43 0.01,0.6 0.15,1.04 -0.22,1.38 -0.33,-0.19 -0.31,0.41 -0.29,-1.24 0.02,-1.13 -0.09,-3.8 0.07,-4.58zm-9.81 5.02c0.14,-0.57 0.16,-0.38 1.89,-0.37l5.83 -0.03c0.67,0.02 0.59,-0.04 0.68,0.4 -0.49,0.3 -7.97,0.28 -8.4,0zm8.04 -0.69l-7.67 0.01c-0.04,-3.78 0.02,-4.33 3.85,-4.33 3.85,0 3.8,0.58 3.82,4.32zm6.25 -3.17l1.77 -0.01 0.02 1.08 -1.8 0.07 0.01 -1.14zm-24.92 4.73l-1.83 0 0 -14.76 8.24 -0.04 0.04 14.81 -1.85 -0.02c-0.01,-1.08 0.1,-2.71 -0.17,-3.54 -0.5,-0.16 -3.21,-0.32 -3.87,-0.11 -0.95,0.31 -0.54,2.67 -0.56,3.66zm24.44 -4.47c0.1,0.11 0.19,-0.24 0.15,0.26 -0.03,0.32 -0.01,0.1 -0.15,0.26 -0.14,-0.26 -0.23,-0.17 0,-0.52zm-2.36 -1.21l0.76 0.02c0.52,0.63 -0.35,1 1.19,1l-0.04 0.97c-1.84,-0.03 -1.97,-0.1 -1.91,-1.99zm-11.31 10.89c-0.43,0.05 -4.6,0.21 -5.12,-0.12 0.48,-0.87 1.11,-0.04 1.12,-2.03l-0.01 -10.13 5.11 -0.04c0.03,2.35 -0.59,1.05 -1.06,2.64 -0.27,0.91 0,2.11 -0.17,2.7 -0.16,0.59 -0.3,0.15 -0.31,0.76 -0.01,0.75 0.05,0.09 0.26,0.63 0.28,0.74 -0.06,1.93 0.22,2.82 0.36,1.13 0.86,0.29 -0.04,2.77zm11.64 -11.19c-0.27,-0.39 -0.23,-1.27 -0.07,-1.81l0.42 0.02c0.13,0.52 0.19,1.38 -0.06,1.79l-0.29 0zm-5.09 -0.11c-0.61,-0.16 -0.52,-0.56 -0.29,-1.02 0.57,0.1 0.45,0.49 0.29,1.02zm-1.84 -0.16c-0.37,0.12 -1.13,0.19 -1.29,-0.15 0.26,-0.14 1.15,-0.29 1.29,0.15zm-3.11 -0.87c0.21,0.08 0.4,-0.18 0.33,0.57 -0.05,0.65 0,0.28 -0.33,0.5 -0.05,-0.07 -0.27,0.25 -0.22,-0.63 0.05,-0.81 0.01,-0.2 0.22,-0.44zm0.73 0.91c-0.18,-0.4 -0.12,-0.36 -0.11,-0.9l3.6 -0.01c0.01,0.47 0.06,0.56 -0.15,0.93 -2.04,-0.07 1.29,-0.65 -2.47,-0.57 -0.31,0.71 0.26,0.6 -0.87,0.55zm4.36 -1.22c-1.86,-0.02 -10.2,0.19 -10.7,-0.13 0.08,-0.6 0.34,-0.39 1.1,-0.38l9.61 0c1.54,-0.01 1.13,-0.06 1.31,0.24 -0.17,0.36 0.27,0.21 -0.57,0.28 -0.14,0.01 -0.58,-0.01 -0.75,-0.01zm-0.07 -1.15c-0.01,0.44 -0.03,0.13 -0.22,0.35 -0.18,-0.12 -0.34,0.2 -0.26,-0.47 0.05,-0.48 0.04,-0.18 0.26,-0.3 0.17,0.17 0.24,-0.3 0.22,0.42zm-4.38 -0.38c0.95,-0.06 2.84,-0.29 3.58,0.09l0.01 0.63 -3.62 -0.03 0.03 -0.69zm-0.35 0.37c-0.01,0.69 0.04,0.03 -0.14,0.35 -0.19,-0.08 -0.45,0.3 -0.35,-0.46 0.07,-0.54 0.01,-0.18 0.35,-0.28 0.08,0.11 0.15,-0.23 0.14,0.39zm-3.49 0.35c-2.44,0 -2.3,0.28 -2.42,-0.48 0.37,-0.26 -0.53,-0.12 0.52,-0.27l2.2 0.01c1.37,0 2.51,-0.27 2.4,0.4 -0.06,0.4 0.41,0.38 -1.24,0.35 -0.48,-0.01 -0.97,-0.01 -1.46,-0.01zm15.56 4.86l1.98 0.07 0.04 4.16 -2 0.09c-0.77,0.66 -2.44,0.02 -3.33,-0.05 0,-0.63 -0.19,-0.88 -0.24,-1.47l0.05 -5.21c0.8,-5.15 -3.91,-1.06 -3.53,-2.93 0.16,-0.75 3.59,-0.05 4.03,-0.06 -0.01,1.12 0.27,0.83 0.28,1.95 0,0.98 -0.31,1.08 -0.27,2.04 0.07,1.61 1.77,1.73 2.7,1.14 0.16,0.12 0.1,0.05 0.29,0.27zm-1.75 -4.8c-0.37,0.27 -0.37,0.22 -0.95,0.11l-0.18 -0.9 -0.81 -0.19 -0.02 -0.88c1.76,0.05 2.05,-0.04 1.96,1.86zm-15.41 -1.11l-0.82 -0.16c0.31,-0.36 -0.54,-0.32 0.81,-0.38 2.59,-0.13 8.5,0.07 11.65,0.02 2.03,-0.03 1.33,-0.08 1.51,0.36l-10.53 0.15c-0.58,0 -1.16,0 -1.74,0 -0.27,0 -0.63,0.02 -0.88,0.01zm9.88 -1.44l-0.01 0.49c-0.22,0.2 0.31,0.22 -0.41,0.17 -0.27,-0.41 -0.22,-0.47 0,-0.83 0.76,-0.03 0.26,-0.01 0.42,0.17zm-5.29 -0.08c0.23,-0.14 -0.52,-0.32 0.5,-0.1 0.17,0.39 0.18,0.43 0,0.85 -0.81,0.13 -0.27,0.04 -0.46,-0.1l-0.04 -0.65zm4.44 0.64l-3.62 0.06 0.02 -0.74c0.75,-0.14 2.98,-0.18 3.66,0.03 0.08,0.74 -0.04,0.59 -0.06,0.65zm-6.7 -1.17c-0.12,-0.18 -0.28,-5.19 -0.26,-9.41l-0.28 0c0,2.55 0.04,5.19 0.04,6.36 0,1.86 -0.31,3.11 0.6,3.5l1.97 0.02 -0.08 0.8 -5.1 -0.04c-0.24,-0.8 -0.12,-4.79 -0.09,-5.88 -0.17,-0.96 -0.87,-1.03 -1.89,-1.06 -0.51,-0.73 0.02,-0.45 -0.89,-0.95 -0.02,-0.01 -0.07,-0.04 -0.09,-0.05l-0.03 -2.7 -0.47 0 0 2.77 -2.06 0.01 0 -2.78 -0.26 0c0,1.1 -0.02,2.04 -0.07,2.72 -1.05,0.35 -0.66,-0.03 -1.07,0.96 -2.45,0.2 -2.01,0.35 -2.01,4.28l0 15.85c-0.01,2.07 0.77,1.26 1.09,2.03 -0.61,0.5 -3.76,-0.18 -4.59,0.29l36.04 0.19c0.55,0 11.39,0.23 11.91,-0.19 -0.78,-0.44 -20.4,0.06 -23.39,-0.15 -1.25,-2.76 0.09,-1.02 0.05,-4.65 -0.02,-1.42 0.13,-0.68 0.42,-1.6 -0.32,-0.9 -0.44,-0.04 -0.43,-1.44 0.01,-1.11 0.16,-2.22 -0.77,-3.06 -0.47,-0.43 -0.49,0.02 -0.48,-1.61 0.92,0.03 1.23,0.21 2.08,0.25 -0.01,1 0.26,0.8 0.28,1.78l-0.01 4.38c-0.05,1.49 -1.34,3.79 2.52,3.05l2.06 0.08c0.84,0.3 1.03,0.13 1.98,0.23 0.18,0.46 0,0.78 0.53,1.05 0.46,0.23 10.82,0.17 11.15,0.02 0.76,-0.47 0.51,-1.38 0.51,-2.4l0.01 -5.97c0.01,-1.32 -0.06,-1.61 -1.43,-1.61l-9.03 0.01c-2.26,-0.02 -1.08,0.65 -1.88,1.2 -0.62,0 -1.14,-0.05 -1.64,0.09 -0.6,0.16 0.09,0.17 -1.49,-0.05 -0.02,-0.45 -0.15,-0.8 -0.2,-1.1 -0.38,-2.1 1.61,-4.93 -2.52,-4.05 -0.82,0.17 -2.01,0.07 -2.89,0.05l0.03 -0.64c0.67,-0.25 1.7,0.02 2.47,-0.27 0.22,-0.6 0.31,-5.53 0.28,-9.72l-0.34 0c0.04,4.16 0,9.14 -0.25,9.4 -0.38,0.3 -0.55,0.22 -1.15,0.21 -1.67,-0.02 -8.28,0.22 -8.88,-0.2zm-11.72 -3.81c-0.04,-1.9 0.42,-1.57 3.14,-1.57 4.23,0 5.12,-0.57 5.13,1.62l-8.27 -0.05zm2.99 -2.52c1.74,0 3.05,-0.31 3.18,0.63 -0.79,0 -3.55,0.13 -4.1,-0.12 0.16,-0.6 0.16,-0.52 0.92,-0.51z"/>
 </g>
</svg>
