<svg width="100" height="30" xmlns="http://www.w3.org/2000/svg">
 <defs>
  <style type="text/css">
   <![CDATA[
    .fil1 {fill:#00A0E3}
    .fil0 {fill:#064778}
    .fil3 {fill:#00A0E3;fill-rule:nonzero}
    .fil2 {fill:#064778;fill-rule:nonzero}
   ]]>
  </style>
 </defs>
 <g>
  <title>background</title>
  <rect fill="none" id="canvas_background" height="32" width="102" y="-1" x="-1"/>
 </g>
 <g>
  <title>Layer 1</title>
  <g id="Слой_x0020_1">
   <metadata transform="translate(1,1) " id="CorelCorpID_0Corel-Layer"/>
   <g id="svg_5">
    <path id="svg_1" d="m8.3,1c-2.2,5.39 -5.79,8.32 -7.07,13.05c-1.93,9.61 8.83,14.23 13.53,7.37c2.07,-4.32 1.27,-8.54 -1.51,-12.69c-0.68,5.16 -5.79,7.11 -4.41,11.66c0.59,-2.25 1.79,-4.11 3.68,-5.06c0.62,-0.24 1.02,0.02 1.09,1.01c0.46,5.07 -7,9.58 -10.15,1.94c-1.66,-5.9 7.29,-12.43 4.84,-17.28z" class="fil0"/>
    <path id="svg_2" d="m7.03,20.49c-6.56,-6.64 3.46,-10.3 2.55,-17.18c7.09,7.55 -4.26,10.34 -2.55,17.18z" class="fil1"/>
    <path id="svg_3" d="m20.81,16.89l1.75,0l0,-5.04l1.98,0l0,-1.55l-5.71,0l0,1.55l1.98,0l0,5.04zm4.67,0l5.27,0l0,-1.49l-3.54,0l0,-1.12l3.15,0l0,-1.41l-3.15,0l0,-1.07l3.5,0l0,-1.5l-5.23,0l0,6.59zm10.43,-6.59l-1.24,1.92l-1.2,-1.92l-2.02,0l2.17,3.24l-2.26,3.35l1.97,0l1.32,-2.04l1.3,2.04l2.02,0l-2.27,-3.37l2.17,-3.22l-1.96,0zm5.56,6.72c1.42,0 2.24,-0.59 2.87,-1.42l-1.28,-0.97c-0.43,0.48 -0.84,0.8 -1.53,0.8c-0.98,0 -1.64,-0.81 -1.64,-1.83l0,-0.02c0,-0.99 0.66,-1.81 1.64,-1.81c0.64,0 1.08,0.31 1.48,0.77l1.29,-1.07c-0.59,-0.75 -1.43,-1.29 -2.75,-1.29c-2.01,0 -3.47,1.51 -3.47,3.42l0,0.02c0,1.95 1.5,3.4 3.39,3.4zm3.8,-0.13l5.28,0l0,-1.49l-3.55,0l0,-1.12l3.15,0l0,-1.41l-3.15,0l0,-1.07l3.51,0l0,-1.5l-5.24,0l0,6.59zm6.37,0l1.75,0l0,-1.9l0.95,0c1.6,0 2.79,-0.8 2.79,-2.36l0,-0.02c0,-1.44 -1.05,-2.31 -2.68,-2.31l-2.81,0l0,6.59zm1.75,-3.3l0,-1.79l0.91,0c0.68,0 1.09,0.3 1.09,0.88l0,0.02c0,0.54 -0.41,0.89 -1.07,0.89l-0.93,0zm4.65,3.3l3.34,0c1.57,0 2.5,-0.66 2.5,-1.82l0,-0.01c0,-0.88 -0.51,-1.33 -1.31,-1.62c0.57,-0.25 1,-0.69 1,-1.44l0,-0.03c0,-0.44 -0.15,-0.8 -0.43,-1.08c-0.39,-0.39 -0.96,-0.59 -1.79,-0.59l-3.31,0l0,6.59zm3.8,-4.55c0,0.41 -0.32,0.6 -0.9,0.6l-1.19,0l0,-1.21l1.23,0c0.57,0 0.86,0.2 0.86,0.59l0,0.02zm0.28,2.5c0,0.41 -0.32,0.62 -0.9,0.62l-1.47,0l0,-1.26l1.45,0c0.64,0 0.92,0.25 0.92,0.62l0,0.02zm8.88,2.05l0,-6.59l-1.63,0l-2.77,3.73l0,-3.73l-1.74,0l0,6.59l1.53,0l2.87,-3.86l0,3.86l1.74,0zm4.48,0.13c1.43,0 2.24,-0.59 2.87,-1.42l-1.28,-0.97c-0.43,0.48 -0.83,0.8 -1.53,0.8c-0.98,0 -1.64,-0.81 -1.64,-1.83l0,-0.02c0,-0.99 0.66,-1.81 1.64,-1.81c0.64,0 1.08,0.31 1.48,0.77l1.29,-1.07c-0.59,-0.75 -1.43,-1.29 -2.75,-1.29c-2.01,0 -3.47,1.51 -3.47,3.42l0,0.02c0,1.95 1.5,3.4 3.39,3.4z" class="fil2"/>
   </g>
  </g>
 </g>
</svg>