<?xml version="1.0" encoding="UTF-8"?>
<!DOCTYPE svg PUBLIC "-//W3C//DTD SVG 1.1//EN" "http://www.w3.org/Graphics/SVG/1.1/DTD/svg11.dtd">
<!-- Creator: CorelDRAW 2019 (64-Bit) -->
<svg xmlns="http://www.w3.org/2000/svg" xml:space="preserve" width="663px" height="551px" version="1.1" style="shape-rendering:geometricPrecision; text-rendering:geometricPrecision; image-rendering:optimizeQuality; fill-rule:evenodd; clip-rule:evenodd"
viewBox="0 0 62.31 51.8"
 xmlns:xlink="http://www.w3.org/1999/xlink"
 xmlns:xodm="http://www.corel.com/coreldraw/odm/2003">
 <defs>
  <style type="text/css">
   <![CDATA[
    .str0 {stroke:#00A0E3;stroke-width:1.5;stroke-linejoin:round;stroke-miterlimit:22.9256}
    .fil6 {fill:none;fill-rule:nonzero}
    .fil0 {fill:#00A0E3}
    .fil3 {fill:#468DCD}
    .fil1 {fill:#99D0F6}
    .fil2 {fill:#DC8B4B}
    .fil5 {fill:#E5F5FA}
    .fil4 {fill:#FDFDFD}
    .fil7 {fill:white;fill-rule:nonzero}
   ]]>
  </style>
 </defs>
 <g id="Слой_x0020_1">
  <metadata id="CorelCorpID_0Corel-Layer"/>
  <path class="fil0" d="M7.64 36.51l47.03 0c4.21,0 7.64,3.44 7.64,7.65l0 0c0,4.2 -3.43,7.64 -7.64,7.64l-47.03 0c-4.2,0 -7.64,-3.44 -7.64,-7.64l0 0c0,-4.21 3.44,-7.65 7.64,-7.65z"/>
  <g id="_1639119492848">
   <path class="fil1" d="M14.36 36.48c0.12,0.16 0.63,0.99 0.7,1.21 0.16,0.58 -0.22,1.09 -0.79,1.07 -1.44,-0.05 -0.44,-2.11 0.09,-2.28zm2.09 0c0.78,0.66 0.78,2.39 -0.46,2.27 -1.17,-0.11 -0.36,-1.64 0.46,-2.27zm-4.38 -0.01c0.47,0.16 1.88,2.03 0.64,2.28 -0.6,0.11 -1.03,-0.34 -1.1,-0.76 -0.08,-0.48 0.3,-1.14 0.46,-1.52zm6.57 0c0.14,0.41 0.37,1.1 0.19,1.56 -0.13,0.35 -0.71,0.89 -1.32,0.67 -1.01,-0.36 0.65,-2.07 1.13,-2.23zm-8.66 -0.01c0.27,0.1 0.34,0.22 0.53,0.42 0.19,0.2 0.3,0.3 0.51,0.55 0.25,0.3 0.71,1.07 0.04,1.3 -0.55,0.18 -1.11,-0.36 -1.25,-0.64 -0.23,-0.47 0.03,-1.18 0.17,-1.63zm23.69 0.08c-0.09,0.66 0.08,1.31 -0.68,1.38l-0.08 0.74c-0.31,0.04 -2.83,0.08 -3.05,0.03 -0.46,-0.09 -0.2,-0.03 -0.3,-0.47 -0.17,-0.72 -0.25,-0.2 -0.56,-0.58 -0.22,-0.29 -0.1,-0.65 -0.15,-1.1 -1.06,-0.32 -0.9,-0.59 -0.88,-1.74 0,-0.39 -0.07,-0.83 0.09,-1.17 0.22,-0.45 0.49,-0.26 0.86,-0.48 0.03,-0.48 -0.09,-1.58 0.1,-1.94 0.26,-0.51 0.88,-0.42 1.32,-0.1 0.17,0.64 0.07,1.41 0.1,2.07 0.43,0.12 1.01,0.09 1.47,0.02 0.15,-0.83 -0.31,-2.3 0.73,-2.37 1.09,-0.08 0.8,1.54 0.8,2.37 1.16,0.26 1.12,0.07 1.13,1.51 0,1.35 0.14,1.54 -0.9,1.83zm-26.7 -7.05l-0.02 -0.88 14.02 -0.02 -0.01 0.84c0.71,-0.07 2.45,-0.62 3.05,-0.07 0,0.7 -1.45,0.24 -2.16,0.46 -1,0.31 -0.9,0.74 -1.01,1.78 -0.1,1.04 -0.2,2.56 -1.15,3.01 -0.58,0.27 -0.43,0.19 -0.55,0.91l-10.24 0.04c-0.29,-0.95 0.02,-0.58 -0.74,-1.03 -1.32,-0.8 -0.79,-3.71 -1.27,-4.25 -0.89,-1 -2.75,-0.19 -2.9,-0.76 -0.14,-0.54 1.05,-0.35 1.42,-0.34 0.92,0.01 0.86,0.17 1.56,0.31zm19.29 -0.13c-0.19,-0.83 -0.06,-3.91 -0.06,-4.97 -0.01,-4.54 -0.1,-3.8 6.05,-3.81 4.52,-0.01 3.84,-0.19 3.84,6.05 0,4.4 0.22,3.92 -6.03,3.86 -1.56,-0.01 -3.44,0.36 -3.8,-1.13zm-6 -1.33c-4.11,0 -9.16,-0.09 -13.14,0.01 -0.42,0.01 -0.58,0.07 -0.87,-0.14 0.05,-0.55 -0.13,0.04 0.66,-0.81 0.84,-0.91 3.23,-0.72 4.02,-1.13 1.26,-0.65 0.64,0.06 1.09,-1.24 0.53,-1.49 3,-1.72 3.7,-0.07 0.19,0.45 0.11,0.84 0.51,1.05 0.26,0.13 0.25,0.04 0.54,0.22 0.33,0.21 0.01,0.15 0.53,0.21 0.94,0.12 1.7,0.14 2.57,0.42 1.29,0.43 0.92,0.66 1.34,0.94 0.4,0.27 0.3,-0.2 0.41,0.45 -0.33,0.13 -0.9,0.09 -1.36,0.09zm-9.54 12.16l23.72 -0.01c2.01,-1.27 3.19,-2.41 4.75,-4.31l1.29 -1.8c0.99,-1.45 2.11,-3.94 2.52,-5.59 0.96,-3.84 1.2,-6.85 0.27,-10.89 -0.88,-3.78 -2.48,-6.33 -4.92,-9.26 -0.8,-0.96 -0.74,-0.82 -1.48,-1.51 -1.77,-1.66 -4.65,-3.46 -6.93,-4.2 -1.08,-0.35 -2.1,-0.76 -3.27,-0.86 -0.06,0.95 -0.08,2.53 -0.03,3.47 0.03,0.67 1.82,2.34 2.33,2.86 0.3,0.31 0.46,0.54 0.81,0.92l1.25 1.36c1.01,0.98 1.89,2.09 2.83,3.13 0.52,0.58 2.35,2.38 2.41,2.75 0.08,0.41 0.04,2.89 0.01,3.41 -1.11,0.24 -11.69,0.06 -13.74,0.06 -1.64,0 -13.34,0.17 -13.83,-0.09 -0.12,-0.25 -0.16,-2.91 -0.09,-3.31 0.09,-0.48 5.65,-6.32 6.45,-7.25 0.5,-0.57 1.09,-1.25 1.63,-1.83 1.84,-1.97 1.75,-1.35 1.55,-5.44 -2.19,0.17 -5.23,1.71 -7.13,2.85l-2.34 1.69c-2.25,2.1 -4.91,5.29 -5.94,8.23 -1.75,5.03 -2.04,8.51 -0.69,13.92 0.4,1.6 1.62,4.31 2.54,5.59 0.88,1.25 2.06,2.9 3.15,3.87 0.59,0.53 2.31,1.96 2.88,2.24z"/>
   <path class="fil2" d="M31.25 42c-0.99,0.54 -2.86,1.07 -4.02,1.32 -4.31,0.93 -8.37,0.64 -12.48,-0.95 -0.86,-0.33 -0.66,-0.19 -0.79,-0.48l17.29 0.11zm-13 -40.2l0.39 -0.09c0.78,-0.29 2.82,-0.38 3.8,-0.39 0.67,-0.01 1.43,0 2.1,0.05 0.57,0.04 1.13,0.21 1.73,0.27l0.4 0.12c1.17,0.1 2.19,0.51 3.27,0.86 2.28,0.74 5.16,2.54 6.93,4.2 0.74,0.69 0.68,0.55 1.48,1.51 2.44,2.93 4.04,5.48 4.92,9.26 0.93,4.04 0.69,7.05 -0.27,10.89 -0.41,1.65 -1.53,4.14 -2.52,5.59l-1.29 1.8c-1.56,1.9 -2.74,3.04 -4.75,4.31 -0.2,0.25 -1.68,1.09 -2.06,1.28 -0.64,0.33 -2.33,0.21 -3.18,0.2l-13.32 0c-0.92,0 -2.42,0.17 -3.16,-0.22 -0.46,-0.25 -1.79,-1 -2,-1.25 -0.57,-0.28 -2.29,-1.71 -2.88,-2.24 -1.09,-0.97 -2.27,-2.62 -3.15,-3.87 -0.92,-1.28 -2.14,-3.99 -2.54,-5.59 -1.35,-5.41 -1.06,-8.89 0.69,-13.92 1.03,-2.94 3.69,-6.13 5.94,-8.23l2.34 -1.69c1.9,-1.14 4.94,-2.68 7.13,-2.85zm4.48 43.35c6.78,0 12.07,-2.94 15.83,-6.62 8.75,-8.55 8.83,-23.3 -0.03,-31.94 -8.99,-8.77 -23.06,-8.81 -31.93,0.04 -8.84,8.82 -8.76,22.99 0.01,31.91 3.68,3.74 9.28,6.61 16.12,6.61z"/>
   <path class="fil3" d="M9.32 16.02l26.26 0c-0.12,-0.33 -3.46,-3.93 -4.06,-4.59l-4.92 -5.39c-0.37,-0.39 -0.54,-0.27 -1.2,-0.26l-5.81 0c-1.23,-0.01 -0.98,-0.13 -1.94,0.97 -0.5,0.57 -8.23,8.96 -8.33,9.27z"/>
   <path class="fil4" d="M6.97 29.49c-0.7,-0.14 -0.64,-0.3 -1.56,-0.31 -0.37,-0.01 -1.56,-0.2 -1.42,0.34 0.15,0.57 2.01,-0.24 2.9,0.76 0.48,0.54 -0.05,3.45 1.27,4.25 0.76,0.45 0.45,0.08 0.74,1.03l10.24 -0.04c0.12,-0.72 -0.03,-0.64 0.55,-0.91 0.95,-0.45 1.05,-1.97 1.15,-3.01 0.11,-1.04 0.01,-1.47 1.01,-1.78 0.71,-0.22 2.16,0.24 2.16,-0.46 -0.6,-0.55 -2.34,0 -3.05,0.07l0.01 -0.84 -14.02 0.02 0.02 0.88z"/>
   <path class="fil3" d="M26.29 17.11c0.82,-0.41 1.31,0.87 0.57,1.2 -0.82,0.36 -1.47,-0.75 -0.57,-1.2zm-2.29 -0.01c0.84,-0.38 1.26,0.86 0.57,1.2 -0.8,0.39 -1.51,-0.76 -0.57,-1.2zm-2.36 0.03c0.78,-0.48 1.3,0.79 0.63,1.16 -0.7,0.38 -1.57,-0.58 -0.63,-1.16zm-2.49 0.06c0.54,-0.59 1.64,0.43 0.88,1.04 -0.73,0.58 -1.39,-0.47 -0.88,-1.04zm-10.16 2.17l26.94 0 -0.04 -2.96 -26.9 0 0 2.96z"/>
   <path class="fil2" d="M30.46 21.95c2.18,-0.41 3.9,1.1 4.28,2.78 0.49,2.18 -1.12,4.03 -2.81,4.39 -2.14,0.44 -4.03,-1.07 -4.38,-2.8 -0.47,-2.35 1.15,-4.03 2.91,-4.37zm-3.91 0.6l0 5.93c0,1.78 0.81,1.65 2.37,1.64 7.32,-0.06 6.81,0.81 6.82,-3.29l0 -4.09c0,-2.33 -1.06,-1.81 -4.44,-1.81 -3.32,0 -4.75,-0.51 -4.75,1.62z"/>
   <path class="fil4" d="M32.24 25.67c-0.37,-1.68 1.9,-1.11 0.88,0.19 -0.59,0.08 -0.5,0.06 -0.88,-0.19zm-3.15 0.19c-0.14,-0.2 -0.38,-0.41 -0.23,-0.83 0.11,-0.31 0.43,-0.44 0.79,-0.34 0.46,0.13 0.84,1.32 -0.56,1.17zm1.37 -3.91c-1.76,0.34 -3.38,2.02 -2.91,4.37 0.35,1.73 2.24,3.24 4.38,2.8 1.69,-0.36 3.3,-2.21 2.81,-4.39 -0.38,-1.68 -2.1,-3.19 -4.28,-2.78z"/>
   <path class="fil5" d="M8.99 16.4l26.9 0 0.04 2.96 -26.94 0 0 -2.96zm0.33 -0.38c0.1,-0.31 7.83,-8.7 8.33,-9.27 0.96,-1.1 0.71,-0.98 1.94,-0.97l5.81 0c0.66,-0.01 0.83,-0.13 1.2,0.26l4.92 5.39c0.6,0.66 3.94,4.26 4.06,4.59l-26.26 0zm9.32 -14.31l-0.39 0.09c0.2,4.09 0.29,3.47 -1.55,5.44 -0.54,0.58 -1.13,1.26 -1.63,1.83 -0.8,0.93 -6.36,6.77 -6.45,7.25 -0.07,0.4 -0.03,3.06 0.09,3.31 0.49,0.26 12.19,0.09 13.83,0.09 2.05,0 12.63,0.18 13.74,-0.06 0.03,-0.52 0.07,-3 -0.01,-3.41 -0.06,-0.37 -1.89,-2.17 -2.41,-2.75 -0.94,-1.04 -1.82,-2.15 -2.83,-3.13l-1.25 -1.36c-0.35,-0.38 -0.51,-0.61 -0.81,-0.92 -0.51,-0.52 -2.3,-2.19 -2.33,-2.86 -0.05,-0.94 -0.03,-2.52 0.03,-3.47l-0.4 -0.12 0 3.81 -7.65 -0.02 0.02 -3.72z"/>
   <path class="fil4" d="M34.44 40.18l-23.72 0.01c0.21,0.25 1.54,1 2,1.25 0.74,0.39 2.24,0.22 3.16,0.22l13.32 0c0.85,0.01 2.54,0.13 3.18,-0.2 0.38,-0.19 1.86,-1.03 2.06,-1.28z"/>
   <path class="fil3" d="M18.64 1.71l-0.02 3.72 7.65 0.02 0 -3.81c-0.6,-0.06 -1.16,-0.23 -1.73,-0.27 -0.67,-0.05 -1.43,-0.06 -2.1,-0.05 -0.98,0.01 -3.02,0.1 -3.8,0.39z"/>
   <path class="fil4" d="M12.23 25.98c0.22,-0.99 0.48,-1.92 1.65,-1.94 1.17,-0.02 1.47,0.93 1.66,1.96l-0.99 -0.03 -0.77 0.01 -1.55 0zm8.03 2.05c0.46,0 1.03,0.04 1.36,-0.09 -0.11,-0.65 -0.01,-0.18 -0.41,-0.45 -0.42,-0.28 -0.05,-0.51 -1.34,-0.94 -0.87,-0.28 -1.63,-0.3 -2.57,-0.42 -0.52,-0.06 -0.2,0 -0.53,-0.21 -0.29,-0.18 -0.28,-0.09 -0.54,-0.22 -0.4,-0.21 -0.32,-0.6 -0.51,-1.05 -0.7,-1.65 -3.17,-1.42 -3.7,0.07 -0.45,1.3 0.17,0.59 -1.09,1.24 -0.79,0.41 -3.18,0.22 -4.02,1.13 -0.79,0.85 -0.61,0.26 -0.66,0.81 0.29,0.21 0.45,0.15 0.87,0.14 3.98,-0.1 9.03,-0.01 13.14,-0.01z"/>
   <path class="fil4" d="M31.25 42l-17.29 -0.11c0.13,0.29 -0.07,0.15 0.79,0.48 4.11,1.59 8.17,1.88 12.48,0.95 1.16,-0.25 3.03,-0.78 4.02,-1.32z"/>
   <path class="fil2" d="M28.39 36.02c0.52,0.21 5.33,0.25 5.62,0.02 0.34,-0.26 0.22,-0.96 0.22,-1.53 0.01,-1.17 -0.09,-0.92 -2.84,-0.92l-1.81 0c-0.76,0.01 -1.22,-0.17 -1.26,0.62 -0.03,0.57 -0.06,1.34 0.07,1.81z"/>
   <path class="fil5" d="M26.55 22.55c0,-2.13 1.43,-1.62 4.75,-1.62 3.38,0 4.44,-0.52 4.44,1.81l0 4.09c-0.01,4.1 0.5,3.23 -6.82,3.29 -1.56,0.01 -2.37,0.14 -2.37,-1.64l0 -5.93zm-0.29 6.81c0.36,1.49 2.24,1.12 3.8,1.13 6.25,0.06 6.03,0.54 6.03,-3.86 0,-6.24 0.68,-6.06 -3.84,-6.05 -6.15,0.01 -6.06,-0.73 -6.05,3.81 0,1.06 -0.13,4.14 0.06,4.97z"/>
   <path class="fil5" d="M29.25 36.51l4.02 -0.04c0.04,0.42 0.15,0.88 -0.19,1.06 -0.59,0.3 -0.41,-0.24 -0.52,0.8l-2.6 0 -0.05 -0.73c-0.81,-0.1 -0.76,-0.21 -0.66,-1.09zm-0.86 -0.49c-0.13,-0.47 -0.1,-1.24 -0.07,-1.81 0.04,-0.79 0.5,-0.61 1.26,-0.62l1.81 0c2.75,0 2.85,-0.25 2.84,0.92 0,0.57 0.12,1.27 -0.22,1.53 -0.29,0.23 -5.1,0.19 -5.62,-0.02zm3.97 -2.77c-0.09,-0.46 -0.34,-2.24 0.44,-2.07 0.41,0.09 0.29,0.55 0.28,1 0,0.38 0.04,0.72 -0.04,1.11l-0.68 -0.04zm-3.01 0.03c-0.12,-0.55 -0.27,-2.1 0.34,-2.13 0.6,-0.03 0.44,1.65 0.32,2.14l-0.66 -0.01zm4.32 3.26c1.04,-0.29 0.9,-0.48 0.9,-1.83 -0.01,-1.44 0.03,-1.25 -1.13,-1.51 0,-0.83 0.29,-2.45 -0.8,-2.37 -1.04,0.07 -0.58,1.54 -0.73,2.37 -0.46,0.07 -1.04,0.1 -1.47,-0.02 -0.03,-0.66 0.07,-1.43 -0.1,-2.07 -0.44,-0.32 -1.06,-0.41 -1.32,0.1 -0.19,0.36 -0.07,1.46 -0.1,1.94 -0.37,0.22 -0.64,0.03 -0.86,0.48 -0.16,0.34 -0.09,0.78 -0.09,1.17 -0.02,1.15 -0.18,1.42 0.88,1.74 0.05,0.45 -0.07,0.81 0.15,1.1 0.31,0.38 0.39,-0.14 0.56,0.58 0.1,0.44 -0.16,0.38 0.3,0.47 0.22,0.05 2.74,0.01 3.05,-0.03l0.08 -0.74c0.76,-0.07 0.59,-0.72 0.68,-1.38z"/>
   <path class="fil2" d="M29.96 38.33l2.6 0c0.11,-1.04 -0.07,-0.5 0.52,-0.8 0.34,-0.18 0.23,-0.64 0.19,-1.06l-4.02 0.04c-0.1,0.88 -0.15,0.99 0.66,1.09l0.05 0.73z"/>
   <path class="fil1" d="M12.23 25.98l1.55 0 0.77 -0.01 0.99 0.03c-0.19,-1.03 -0.49,-1.98 -1.66,-1.96 -1.17,0.02 -1.43,0.95 -1.65,1.94z"/>
   <path class="fil3" d="M16.45 36.48c-0.82,0.63 -1.63,2.16 -0.46,2.27 1.24,0.12 1.24,-1.61 0.46,-2.27z"/>
   <path class="fil3" d="M18.64 36.47c-0.48,0.16 -2.14,1.87 -1.13,2.23 0.61,0.22 1.19,-0.32 1.32,-0.67 0.18,-0.46 -0.05,-1.15 -0.19,-1.56z"/>
   <path class="fil3" d="M14.36 36.48c-0.53,0.17 -1.53,2.23 -0.09,2.28 0.57,0.02 0.95,-0.49 0.79,-1.07 -0.07,-0.22 -0.58,-1.05 -0.7,-1.21z"/>
   <path class="fil3" d="M12.07 36.47c-0.16,0.38 -0.54,1.04 -0.46,1.52 0.07,0.42 0.5,0.87 1.1,0.76 1.24,-0.25 -0.17,-2.12 -0.64,-2.28z"/>
   <path class="fil3" d="M9.98 36.46c-0.14,0.45 -0.4,1.16 -0.17,1.63 0.14,0.28 0.7,0.82 1.25,0.64 0.67,-0.23 0.21,-1 -0.04,-1.3 -0.21,-0.25 -0.32,-0.35 -0.51,-0.55 -0.19,-0.2 -0.26,-0.32 -0.53,-0.42z"/>
   <path class="fil2" d="M29.35 33.28l0.66 0.01c0.12,-0.49 0.28,-2.17 -0.32,-2.14 -0.61,0.03 -0.46,1.58 -0.34,2.13z"/>
   <path class="fil2" d="M32.36 33.25l0.68 0.04c0.08,-0.39 0.04,-0.73 0.04,-1.11 0.01,-0.45 0.13,-0.91 -0.28,-1 -0.78,-0.17 -0.53,1.61 -0.44,2.07z"/>
   <path class="fil5" d="M24 17.1c-0.94,0.44 -0.23,1.59 0.57,1.2 0.69,-0.34 0.27,-1.58 -0.57,-1.2z"/>
   <path class="fil5" d="M26.29 17.11c-0.9,0.45 -0.25,1.56 0.57,1.2 0.74,-0.33 0.25,-1.61 -0.57,-1.2z"/>
   <path class="fil5" d="M21.64 17.13c-0.94,0.58 -0.07,1.54 0.63,1.16 0.67,-0.37 0.15,-1.64 -0.63,-1.16z"/>
   <path class="fil4" d="M19.15 17.19c-0.51,0.57 0.15,1.62 0.88,1.04 0.76,-0.61 -0.34,-1.63 -0.88,-1.04z"/>
   <path class="fil2" d="M29.09 25.86c1.4,0.15 1.02,-1.04 0.56,-1.17 -0.36,-0.1 -0.68,0.03 -0.79,0.34 -0.15,0.42 0.09,0.63 0.23,0.83z"/>
   <path class="fil2" d="M32.24 25.67c0.38,0.25 0.29,0.27 0.88,0.19 1.02,-1.3 -1.25,-1.87 -0.88,-0.19z"/>
  </g>
  <path class="fil0" d="M22.57 0c12.47,0 22.58,10.11 22.58,22.57 0,12.47 -10.11,22.58 -22.58,22.58 -12.46,0 -22.57,-10.11 -22.57,-22.58 0,-12.46 10.11,-22.57 22.57,-22.57zm0 1.41c11.69,0 21.17,9.48 21.17,21.16 0,11.69 -9.48,21.17 -21.17,21.17 -11.68,0 -21.16,-9.48 -21.16,-21.17 0,-11.68 9.48,-21.16 21.16,-21.16z"/>
  <g>
   <path class="fil6 str0" d="M8.62 40.83l0 3.41 -0.89 0 0 -1.43 -0.26 0 0 1.43 -0.89 0 0 -3.41 0.89 0 0 1.22 0.26 0 0 -1.22 0.89 0zm0.36 0l1.47 0 0 0.68 -0.59 0 0 0.65 0.56 0 0 0.65 -0.56 0 0 0.75 0.65 0 0 0.68 -1.53 0 0 -3.41zm2.55 0l0.88 0c0.28,0 0.49,0.02 0.63,0.07 0.15,0.04 0.26,0.13 0.35,0.26 0.09,0.13 0.13,0.35 0.13,0.64 0,0.2 -0.03,0.34 -0.09,0.42 -0.06,0.08 -0.19,0.14 -0.37,0.18 0.2,0.05 0.34,0.12 0.42,0.23 0.07,0.11 0.11,0.27 0.11,0.49l0 0.32c0,0.23 -0.03,0.4 -0.08,0.51 -0.05,0.11 -0.14,0.19 -0.25,0.23 -0.12,0.04 -0.35,0.06 -0.71,0.06l-1.02 0 0 -3.41zm0.88 0.58l0 0.76c0.04,0 0.07,0 0.09,0 0.09,0 0.14,-0.02 0.16,-0.06 0.03,-0.05 0.04,-0.17 0.04,-0.37 0,-0.11 -0.01,-0.18 -0.03,-0.23 -0.02,-0.04 -0.04,-0.07 -0.07,-0.08 -0.04,-0.01 -0.1,-0.01 -0.19,-0.02zm0 1.29l0 0.96c0.13,0 0.21,-0.02 0.24,-0.06 0.03,-0.03 0.05,-0.12 0.05,-0.26l0 -0.32c0,-0.14 -0.02,-0.23 -0.05,-0.26 -0.03,-0.04 -0.11,-0.05 -0.24,-0.06zm1.5 -1.87l0.89 0 0 1.44c0.16,0 0.25,-0.09 0.25,-0.28l0.02 -0.66c0.01,-0.25 0.05,-0.41 0.14,-0.5l0.82 0c-0.08,0.08 -0.12,0.26 -0.11,0.52l0 0.58c0,0.35 -0.2,0.56 -0.6,0.6 0.4,0.05 0.6,0.26 0.6,0.62l0 0.54c-0.01,0.26 0.03,0.44 0.11,0.55l-0.82 0c-0.09,-0.08 -0.14,-0.25 -0.14,-0.5l0 -0.66c0,-0.08 -0.02,-0.15 -0.07,-0.2 -0.06,-0.05 -0.12,-0.08 -0.2,-0.08l0 1.44 -0.89 0 0 -3.41zm4.47 3.41l-0.89 0 0 -2.73 -0.25 0 0 1.93c0,0.26 -0.04,0.44 -0.1,0.55 -0.07,0.11 -0.17,0.18 -0.3,0.21 -0.13,0.03 -0.35,0.04 -0.64,0.04l-0.14 0 0 -0.58c0.11,0 0.19,-0.02 0.23,-0.04 0.04,-0.03 0.06,-0.12 0.06,-0.28l0 -2.51 2.03 0 0 3.41zm1.49 -1.43l-0.25 0 0 1.43 -0.88 0 0 -3.41 0.88 0 0 1.22 0.25 0c0,-0.29 0.01,-0.51 0.04,-0.64 0.03,-0.13 0.09,-0.24 0.18,-0.33 0.09,-0.08 0.2,-0.15 0.33,-0.18 0.13,-0.04 0.29,-0.06 0.47,-0.06 0.19,0 0.35,0.02 0.49,0.06 0.13,0.04 0.25,0.11 0.34,0.2 0.08,0.1 0.14,0.22 0.16,0.37 0.03,0.16 0.04,0.41 0.04,0.78l0 0.58c0,0.37 -0.01,0.62 -0.04,0.77 -0.02,0.15 -0.07,0.28 -0.16,0.37 -0.09,0.1 -0.21,0.17 -0.34,0.22 -0.14,0.04 -0.3,0.06 -0.49,0.06 -0.17,0 -0.32,-0.02 -0.46,-0.06 -0.13,-0.03 -0.24,-0.09 -0.32,-0.18 -0.09,-0.08 -0.15,-0.17 -0.18,-0.26 -0.02,-0.1 -0.04,-0.22 -0.05,-0.36 -0.01,-0.14 -0.01,-0.33 -0.01,-0.56l0 -0.02zm1.16 0.59l0 -1.69c0,-0.14 -0.01,-0.24 -0.02,-0.29 -0.02,-0.06 -0.06,-0.08 -0.12,-0.08 -0.05,0 -0.08,0.02 -0.1,0.06 -0.03,0.04 -0.04,0.14 -0.04,0.31l0 1.75c0,0.09 0.01,0.16 0.03,0.21 0.02,0.04 0.05,0.07 0.11,0.07 0.05,0 0.08,-0.02 0.11,-0.06 0.02,-0.04 0.03,-0.13 0.03,-0.28zm2.42 -0.46c-0.07,0.07 -0.16,0.13 -0.28,0.18 -0.11,0.04 -0.23,0.07 -0.35,0.07 -0.21,0 -0.36,-0.06 -0.46,-0.18 -0.09,-0.12 -0.14,-0.3 -0.14,-0.55l0 -1.63 0.89 0 0 1.54c0,0.13 0.01,0.22 0.03,0.27 0.03,0.05 0.06,0.08 0.12,0.08 0.13,0 0.19,-0.12 0.19,-0.35l0 -1.54 0.89 0 0 3.41 -0.89 0 0 -1.3zm2.78 -2.11l0.5 3.41 -0.9 0 -0.05 -0.61 -0.32 0 -0.05 0.61 -0.91 0 0.44 -3.41 1.29 0zm-0.47 2.2c-0.05,-0.39 -0.09,-0.87 -0.14,-1.44 -0.09,0.66 -0.14,1.13 -0.16,1.44l0.3 0zm3.1 1.21l-0.74 0 0 -1.55 -0.46 1.55 -0.77 0 0 -3.41 0.74 0 0 1.54 0.49 -1.54 0.74 0 0 3.41zm-0.74 -4.15l0.35 0c-0.01,0.19 -0.06,0.34 -0.16,0.46 -0.11,0.12 -0.25,0.17 -0.43,0.17 -0.19,0 -0.33,-0.05 -0.44,-0.17 -0.1,-0.12 -0.15,-0.27 -0.16,-0.46l0.36 0c0.01,0.19 0.09,0.29 0.24,0.29 0.14,0 0.22,-0.1 0.24,-0.29zm2.88 0.74l0 0.68 -0.52 0 0 2.73 -0.89 0 0 -2.73 -0.52 0 0 -0.68 1.93 0zm0.21 0l1.48 0 0 0.68 -0.6 0 0 0.65 0.56 0 0 0.65 -0.56 0 0 0.75 0.66 0 0 0.68 -1.54 0 0 -3.41zm-22.69 6.65c0,0.33 -0.08,0.57 -0.24,0.72 -0.17,0.15 -0.41,0.23 -0.75,0.23 -0.35,0 -0.61,-0.08 -0.77,-0.22 -0.15,-0.15 -0.23,-0.41 -0.23,-0.77l0 -0.27 0.85 0 0 0.53c0,0.13 0.05,0.2 0.15,0.2 0.06,0 0.11,-0.02 0.12,-0.08 0.01,-0.05 0.02,-0.18 0.02,-0.39l0 -0.56 -0.49 0 0 -0.5 0.49 0 0 -0.58c0,-0.11 -0.01,-0.19 -0.02,-0.23 -0.02,-0.04 -0.05,-0.06 -0.11,-0.06 -0.11,0 -0.16,0.06 -0.16,0.2l0 0.39 -0.85 0 0 -0.29c0,-0.31 0.07,-0.53 0.22,-0.65 0.14,-0.12 0.4,-0.18 0.76,-0.18 0.33,0 0.58,0.07 0.75,0.22 0.17,0.14 0.26,0.35 0.26,0.63l0 1.66zm2.51 0.92l-0.89 0 0 -2.73 -0.26 0 0 1.93c0,0.26 -0.03,0.44 -0.1,0.55 -0.06,0.11 -0.16,0.18 -0.29,0.21 -0.14,0.03 -0.35,0.04 -0.64,0.04l-0.14 0 0 -0.58c0.11,0 0.18,-0.02 0.22,-0.04 0.05,-0.03 0.07,-0.12 0.07,-0.28l0 -2.51 2.03 0 0 3.41zm0.35 -3.41l1.48 0 0 0.68 -0.59 0 0 0.66 0.55 0 0 0.64 -0.55 0 0 0.75 0.65 0 0 0.68 -1.54 0 0 -3.41zm1.79 0l0.89 0 0.01 1.44c0.16,0 0.25,-0.09 0.25,-0.28l0.02 -0.66c0,-0.25 0.05,-0.41 0.14,-0.5l0.82 0c-0.08,0.09 -0.12,0.26 -0.12,0.52l0.01 0.58c0,0.36 -0.2,0.56 -0.6,0.61 0.4,0.04 0.6,0.25 0.6,0.61l-0.01 0.54c0,0.26 0.04,0.44 0.12,0.55l-0.82 0c-0.09,-0.08 -0.14,-0.25 -0.14,-0.49l0 -0.67c0,-0.08 -0.03,-0.15 -0.08,-0.2 -0.05,-0.05 -0.11,-0.08 -0.19,-0.08l-0.01 1.44 -0.89 0 0 -3.41zm4.1 0l0 0.68 -0.52 0 0 2.73 -0.89 0 0 -2.73 -0.52 0 0 -0.68 1.93 0zm0.2 0l0.9 0c0.24,0 0.42,0.02 0.55,0.06 0.13,0.04 0.23,0.09 0.3,0.16 0.06,0.08 0.11,0.16 0.13,0.26 0.02,0.11 0.03,0.26 0.03,0.48l0 0.29c0,0.22 -0.02,0.38 -0.06,0.48 -0.05,0.1 -0.13,0.17 -0.25,0.23 -0.12,0.05 -0.28,0.08 -0.47,0.08l-0.24 0 0 1.37 -0.89 0 0 -3.41zm0.89 0.58l0 0.87c0.03,0.01 0.05,0.01 0.07,0.01 0.08,0 0.13,-0.02 0.17,-0.06 0.03,-0.04 0.04,-0.13 0.04,-0.25l0 -0.28c0,-0.12 -0.02,-0.2 -0.05,-0.23 -0.04,-0.04 -0.11,-0.06 -0.23,-0.06zm3.25 2.83l-0.74 0 0 -1.55 -0.46 1.55 -0.77 0 0 -3.41 0.74 0 0 1.54 0.5 -1.54 0.73 0 0 3.41zm1.57 -1.3c-0.07,0.07 -0.17,0.13 -0.28,0.18 -0.12,0.04 -0.23,0.07 -0.35,0.07 -0.21,0 -0.37,-0.06 -0.46,-0.18 -0.1,-0.12 -0.15,-0.3 -0.15,-0.55l0 -1.63 0.89 0 0 1.54c0,0.13 0.01,0.22 0.04,0.27 0.02,0.05 0.06,0.08 0.11,0.08 0.13,0 0.2,-0.12 0.2,-0.34l0 -1.55 0.89 0 0 3.41 -0.89 0 0 -1.3zm1.24 -2.11l1.48 0 0 0.68 -0.59 0 0 0.66 0.55 0 0 0.64 -0.55 0 0 0.75 0.65 0 0 0.68 -1.54 0 0 -3.41zm3.86 1.49l-0.88 0 0 -0.59c0,-0.17 -0.01,-0.28 -0.03,-0.32 -0.02,-0.05 -0.06,-0.07 -0.13,-0.07 -0.07,0 -0.11,0.03 -0.13,0.08 -0.02,0.05 -0.03,0.16 -0.03,0.34l0 1.58c0,0.16 0.01,0.27 0.03,0.32 0.02,0.05 0.06,0.08 0.13,0.08 0.06,0 0.1,-0.03 0.13,-0.08 0.02,-0.05 0.03,-0.17 0.03,-0.35l0 -0.43 0.88 0 0 0.13c0,0.35 -0.02,0.6 -0.07,0.75 -0.05,0.15 -0.16,0.28 -0.33,0.39 -0.17,0.11 -0.38,0.17 -0.63,0.17 -0.26,0 -0.48,-0.05 -0.65,-0.14 -0.16,-0.1 -0.28,-0.23 -0.33,-0.4 -0.05,-0.16 -0.08,-0.41 -0.08,-0.75l0 -0.99c0,-0.25 0.01,-0.43 0.02,-0.55 0.02,-0.13 0.07,-0.25 0.15,-0.36 0.09,-0.11 0.2,-0.2 0.35,-0.27 0.15,-0.06 0.32,-0.1 0.51,-0.1 0.26,0 0.48,0.05 0.65,0.16 0.17,0.1 0.28,0.22 0.33,0.37 0.06,0.15 0.08,0.39 0.08,0.71l0 0.32zm0.32 -1.49l0.89 0 0 1.44c0.17,0 0.25,-0.09 0.26,-0.28l0.01 -0.66c0.01,-0.25 0.06,-0.41 0.15,-0.5l0.82 0c-0.08,0.09 -0.12,0.26 -0.12,0.52l0 0.58c0.01,0.36 -0.19,0.56 -0.59,0.61 0.4,0.04 0.6,0.25 0.59,0.61l0 0.54c0,0.26 0.04,0.44 0.12,0.55l-0.82 0c-0.1,-0.08 -0.15,-0.25 -0.15,-0.49l0 -0.67c0,-0.08 -0.02,-0.15 -0.07,-0.2 -0.05,-0.05 -0.12,-0.08 -0.2,-0.08l0 1.44 -0.89 0 0 -3.41zm4.07 0l-0.25 2.26c-0.03,0.36 -0.07,0.61 -0.12,0.75 -0.04,0.15 -0.13,0.25 -0.25,0.31 -0.13,0.06 -0.33,0.09 -0.62,0.09l-0.51 0 0 -0.44 0.05 0c0.12,0 0.19,-0.01 0.22,-0.03 0.02,-0.01 0.04,-0.04 0.04,-0.08 0,-0.01 -0.02,-0.1 -0.05,-0.29l-0.47 -2.57 0.77 0 0.28 2.13 0.13 -2.13 0.78 0zm1.3 1.98l-0.24 0 0 1.43 -0.89 0 0 -3.41 0.89 0 0 1.22 0.24 0c0.01,-0.29 0.02,-0.51 0.05,-0.64 0.03,-0.13 0.09,-0.24 0.18,-0.33 0.09,-0.08 0.2,-0.15 0.33,-0.18 0.13,-0.04 0.29,-0.06 0.47,-0.06 0.19,0 0.35,0.02 0.49,0.06 0.13,0.04 0.25,0.11 0.33,0.2 0.09,0.1 0.15,0.22 0.17,0.38 0.02,0.15 0.04,0.4 0.04,0.77l0 0.58c0,0.37 -0.02,0.62 -0.04,0.77 -0.02,0.15 -0.08,0.28 -0.17,0.37 -0.08,0.1 -0.2,0.17 -0.33,0.22 -0.14,0.04 -0.3,0.06 -0.49,0.06 -0.17,0 -0.33,-0.02 -0.46,-0.06 -0.13,-0.03 -0.24,-0.09 -0.32,-0.18 -0.09,-0.08 -0.15,-0.17 -0.18,-0.26 -0.03,-0.1 -0.05,-0.22 -0.05,-0.36 -0.01,-0.14 -0.02,-0.33 -0.02,-0.56l0 -0.02zm1.17 0.59l0 -1.69c0,-0.14 -0.01,-0.24 -0.02,-0.29 -0.02,-0.06 -0.06,-0.08 -0.12,-0.08 -0.05,0 -0.09,0.02 -0.11,0.06 -0.02,0.04 -0.03,0.15 -0.03,0.31l0 1.75c0,0.09 0.01,0.16 0.03,0.21 0.01,0.04 0.05,0.07 0.11,0.07 0.04,0 0.08,-0.02 0.1,-0.06 0.03,-0.04 0.04,-0.13 0.04,-0.28zm1.97 -2.57l0.89 0c0.28,0 0.49,0.02 0.63,0.07 0.14,0.04 0.26,0.13 0.35,0.26 0.09,0.13 0.13,0.35 0.13,0.64 0,0.2 -0.03,0.34 -0.09,0.42 -0.07,0.08 -0.19,0.14 -0.37,0.18 0.2,0.05 0.34,0.12 0.41,0.23 0.08,0.11 0.11,0.27 0.11,0.5l0 0.31c0,0.23 -0.02,0.4 -0.07,0.51 -0.06,0.11 -0.14,0.19 -0.26,0.23 -0.11,0.04 -0.35,0.06 -0.7,0.06l-1.03 0 0 -3.41zm0.89 0.58l0 0.76c0.04,0 0.07,0 0.09,0 0.08,0 0.14,-0.02 0.16,-0.06 0.03,-0.05 0.04,-0.17 0.04,-0.37 0,-0.11 -0.01,-0.18 -0.03,-0.23 -0.02,-0.04 -0.05,-0.06 -0.08,-0.08 -0.03,-0.01 -0.09,-0.01 -0.18,-0.02zm0 1.29l0 0.96c0.12,0 0.2,-0.02 0.24,-0.06 0.03,-0.03 0.05,-0.12 0.05,-0.26l0 -0.32c0,-0.14 -0.02,-0.23 -0.05,-0.26 -0.03,-0.03 -0.11,-0.05 -0.24,-0.06zm3.56 0.75c0,0.25 -0.03,0.43 -0.1,0.54 -0.07,0.11 -0.17,0.18 -0.3,0.21 -0.13,0.03 -0.35,0.04 -0.64,0.04l-1.03 0 0 -3.41 0.89 0 0 1.17 0.14 0c0.27,0 0.48,0.02 0.62,0.05 0.14,0.03 0.25,0.1 0.32,0.21 0.06,0.11 0.1,0.29 0.1,0.52l0 0.67zm-0.89 -0.11l0 -0.49c0,-0.14 -0.01,-0.23 -0.04,-0.26 -0.03,-0.03 -0.11,-0.05 -0.25,-0.05l0 1.12c0.12,0 0.19,-0.02 0.23,-0.05 0.04,-0.03 0.06,-0.12 0.06,-0.27zm2.08 0.9l-0.89 0 0 -3.41 0.89 0 0 3.41zm2.11 -3.41l0 0.68 -0.52 0 0 2.73 -0.89 0 0 -2.73 -0.53 0 0 -0.68 1.94 0zm2.17 3.41l-0.88 0 0 -1.53c-0.12,0 -0.19,0.02 -0.22,0.05 -0.03,0.04 -0.05,0.12 -0.05,0.25l0 1.23 -0.82 0 0 -1.01c0,-0.18 0.01,-0.31 0.02,-0.4 0.02,-0.09 0.07,-0.16 0.14,-0.22 0.06,-0.06 0.17,-0.11 0.32,-0.15 -0.2,-0.02 -0.33,-0.07 -0.39,-0.17 -0.06,-0.1 -0.09,-0.27 -0.09,-0.53 0,-0.22 0.02,-0.4 0.08,-0.53 0.06,-0.13 0.14,-0.22 0.24,-0.28 0.11,-0.05 0.23,-0.09 0.37,-0.1 0.14,-0.01 0.36,-0.02 0.66,-0.02l0.62 0 0 3.41zm-0.88 -2.07l0 -0.75 -0.05 0c-0.07,0 -0.13,0.02 -0.16,0.05 -0.04,0.03 -0.06,0.1 -0.06,0.21l0 0.19c0,0.12 0.01,0.21 0.05,0.25 0.03,0.03 0.1,0.05 0.22,0.05zm2.21 0.61c-0.19,0 -0.28,0.08 -0.28,0.24l0 0.89c0,0.12 -0.01,0.21 -0.04,0.26 -0.03,0.05 -0.05,0.07 -0.06,0.07l-0.73 0c0.06,-0.09 0.1,-0.22 0.1,-0.4l0 -0.77c0,-0.16 0.04,-0.29 0.13,-0.37 0.09,-0.09 0.25,-0.15 0.47,-0.19l0 0c-0.4,-0.02 -0.6,-0.21 -0.6,-0.56l0 -0.72c0,-0.18 -0.03,-0.31 -0.09,-0.4l0.73 0c0.02,0.01 0.04,0.04 0.06,0.09 0.02,0.06 0.03,0.13 0.03,0.24l0 0.84c0,0.16 0.09,0.24 0.28,0.25l0 -1.42 0.89 0 0 1.42c0.18,-0.01 0.27,-0.09 0.27,-0.25l0 -0.84c0,-0.12 0.02,-0.2 0.04,-0.25 0.03,-0.05 0.05,-0.08 0.06,-0.08l0.73 0c-0.06,0.09 -0.09,0.22 -0.09,0.4l0 0.72c0,0.35 -0.2,0.54 -0.6,0.56l0 0c0.22,0.04 0.37,0.1 0.46,0.19 0.09,0.08 0.14,0.21 0.14,0.37l0 0.77c0,0.18 0.03,0.31 0.09,0.4l-0.73 0c-0.02,-0.01 -0.04,-0.04 -0.06,-0.09 -0.02,-0.05 -0.03,-0.13 -0.03,-0.24l0 -0.89c0,-0.16 -0.1,-0.24 -0.28,-0.24l0 1.46 -0.89 0 0 -1.46zm2.21 -1.95l0.89 0 0 1.44c0.17,0 0.25,-0.09 0.26,-0.28l0.02 -0.66c0,-0.25 0.05,-0.41 0.14,-0.5l0.82 0c-0.08,0.09 -0.12,0.26 -0.12,0.52l0 0.58c0.01,0.36 -0.19,0.56 -0.59,0.61 0.4,0.04 0.6,0.25 0.59,0.61l0 0.54c0,0.26 0.04,0.44 0.12,0.55l-0.82 0c-0.1,-0.08 -0.14,-0.25 -0.14,-0.49l0 -0.67c0,-0.08 -0.03,-0.15 -0.08,-0.2 -0.05,-0.05 -0.12,-0.08 -0.2,-0.08l0 1.44 -0.89 0 0 -3.41zm4.07 0l-0.25 2.26c-0.03,0.36 -0.07,0.61 -0.12,0.75 -0.04,0.15 -0.13,0.25 -0.25,0.31 -0.13,0.06 -0.33,0.09 -0.62,0.09l-0.51 0 0 -0.44 0.05 0c0.12,0 0.19,-0.01 0.22,-0.03 0.02,-0.01 0.04,-0.04 0.04,-0.08 0,-0.01 -0.02,-0.1 -0.05,-0.29l-0.47 -2.57 0.77 0 0.28 2.13 0.13 -2.13 0.78 0zm0.74 0l0 0.34 0.31 -0.1 0.09 0.24 -0.3 0.14 0.19 0.27 -0.21 0.16 -0.21 -0.28 -0.22 0.28 -0.22 -0.16 0.2 -0.29 -0.31 -0.12 0.09 -0.24 0.32 0.1 0 -0.34 0.27 0z"/>
   <path id="1" class="fil7" d="M8.62 40.83l0 3.41 -0.89 0 0 -1.43 -0.26 0 0 1.43 -0.89 0 0 -3.41 0.89 0 0 1.22 0.26 0 0 -1.22 0.89 0zm0.36 0l1.47 0 0 0.68 -0.59 0 0 0.65 0.56 0 0 0.65 -0.56 0 0 0.75 0.65 0 0 0.68 -1.53 0 0 -3.41zm2.55 0l0.88 0c0.28,0 0.49,0.02 0.63,0.07 0.15,0.04 0.26,0.13 0.35,0.26 0.09,0.13 0.13,0.35 0.13,0.64 0,0.2 -0.03,0.34 -0.09,0.42 -0.06,0.08 -0.19,0.14 -0.37,0.18 0.2,0.05 0.34,0.12 0.42,0.23 0.07,0.11 0.11,0.27 0.11,0.49l0 0.32c0,0.23 -0.03,0.4 -0.08,0.51 -0.05,0.11 -0.14,0.19 -0.25,0.23 -0.12,0.04 -0.35,0.06 -0.71,0.06l-1.02 0 0 -3.41zm0.88 0.58l0 0.76c0.04,0 0.07,0 0.09,0 0.09,0 0.14,-0.02 0.16,-0.06 0.03,-0.05 0.04,-0.17 0.04,-0.37 0,-0.11 -0.01,-0.18 -0.03,-0.23 -0.02,-0.04 -0.04,-0.07 -0.07,-0.08 -0.04,-0.01 -0.1,-0.01 -0.19,-0.02zm0 1.29l0 0.96c0.13,0 0.21,-0.02 0.24,-0.06 0.03,-0.03 0.05,-0.12 0.05,-0.26l0 -0.32c0,-0.14 -0.02,-0.23 -0.05,-0.26 -0.03,-0.04 -0.11,-0.05 -0.24,-0.06zm1.5 -1.87l0.89 0 0 1.44c0.16,0 0.25,-0.09 0.25,-0.28l0.02 -0.66c0.01,-0.25 0.05,-0.41 0.14,-0.5l0.82 0c-0.08,0.08 -0.12,0.26 -0.11,0.52l0 0.58c0,0.35 -0.2,0.56 -0.6,0.6 0.4,0.05 0.6,0.26 0.6,0.62l0 0.54c-0.01,0.26 0.03,0.44 0.11,0.55l-0.82 0c-0.09,-0.08 -0.14,-0.25 -0.14,-0.5l0 -0.66c0,-0.08 -0.02,-0.15 -0.07,-0.2 -0.06,-0.05 -0.12,-0.08 -0.2,-0.08l0 1.44 -0.89 0 0 -3.41zm4.47 3.41l-0.89 0 0 -2.73 -0.25 0 0 1.93c0,0.26 -0.04,0.44 -0.1,0.55 -0.07,0.11 -0.17,0.18 -0.3,0.21 -0.13,0.03 -0.35,0.04 -0.64,0.04l-0.14 0 0 -0.58c0.11,0 0.19,-0.02 0.23,-0.04 0.04,-0.03 0.06,-0.12 0.06,-0.28l0 -2.51 2.03 0 0 3.41zm1.49 -1.43l-0.25 0 0 1.43 -0.88 0 0 -3.41 0.88 0 0 1.22 0.25 0c0,-0.29 0.01,-0.51 0.04,-0.64 0.03,-0.13 0.09,-0.24 0.18,-0.33 0.09,-0.08 0.2,-0.15 0.33,-0.18 0.13,-0.04 0.29,-0.06 0.47,-0.06 0.19,0 0.35,0.02 0.49,0.06 0.13,0.04 0.25,0.11 0.34,0.2 0.08,0.1 0.14,0.22 0.16,0.37 0.03,0.16 0.04,0.41 0.04,0.78l0 0.58c0,0.37 -0.01,0.62 -0.04,0.77 -0.02,0.15 -0.07,0.28 -0.16,0.37 -0.09,0.1 -0.21,0.17 -0.34,0.22 -0.14,0.04 -0.3,0.06 -0.49,0.06 -0.17,0 -0.32,-0.02 -0.46,-0.06 -0.13,-0.03 -0.24,-0.09 -0.32,-0.18 -0.09,-0.08 -0.15,-0.17 -0.18,-0.26 -0.02,-0.1 -0.04,-0.22 -0.05,-0.36 -0.01,-0.14 -0.01,-0.33 -0.01,-0.56l0 -0.02zm1.16 0.59l0 -1.69c0,-0.14 -0.01,-0.24 -0.02,-0.29 -0.02,-0.06 -0.06,-0.08 -0.12,-0.08 -0.05,0 -0.08,0.02 -0.1,0.06 -0.03,0.04 -0.04,0.14 -0.04,0.31l0 1.75c0,0.09 0.01,0.16 0.03,0.21 0.02,0.04 0.05,0.07 0.11,0.07 0.05,0 0.08,-0.02 0.11,-0.06 0.02,-0.04 0.03,-0.13 0.03,-0.28zm2.42 -0.46c-0.07,0.07 -0.16,0.13 -0.28,0.18 -0.11,0.04 -0.23,0.07 -0.35,0.07 -0.21,0 -0.36,-0.06 -0.46,-0.18 -0.09,-0.12 -0.14,-0.3 -0.14,-0.55l0 -1.63 0.89 0 0 1.54c0,0.13 0.01,0.22 0.03,0.27 0.03,0.05 0.06,0.08 0.12,0.08 0.13,0 0.19,-0.12 0.19,-0.35l0 -1.54 0.89 0 0 3.41 -0.89 0 0 -1.3zm2.78 -2.11l0.5 3.41 -0.9 0 -0.05 -0.61 -0.32 0 -0.05 0.61 -0.91 0 0.44 -3.41 1.29 0zm-0.47 2.2c-0.05,-0.39 -0.09,-0.87 -0.14,-1.44 -0.09,0.66 -0.14,1.13 -0.16,1.44l0.3 0zm3.1 1.21l-0.74 0 0 -1.55 -0.46 1.55 -0.77 0 0 -3.41 0.74 0 0 1.54 0.49 -1.54 0.74 0 0 3.41zm-0.74 -4.15l0.35 0c-0.01,0.19 -0.06,0.34 -0.16,0.46 -0.11,0.12 -0.25,0.17 -0.43,0.17 -0.19,0 -0.33,-0.05 -0.44,-0.17 -0.1,-0.12 -0.15,-0.27 -0.16,-0.46l0.36 0c0.01,0.19 0.09,0.29 0.24,0.29 0.14,0 0.22,-0.1 0.24,-0.29zm2.88 0.74l0 0.68 -0.52 0 0 2.73 -0.89 0 0 -2.73 -0.52 0 0 -0.68 1.93 0zm0.21 0l1.48 0 0 0.68 -0.6 0 0 0.65 0.56 0 0 0.65 -0.56 0 0 0.75 0.66 0 0 0.68 -1.54 0 0 -3.41zm-22.69 6.65c0,0.33 -0.08,0.57 -0.24,0.72 -0.17,0.15 -0.41,0.23 -0.75,0.23 -0.35,0 -0.61,-0.08 -0.77,-0.22 -0.15,-0.15 -0.23,-0.41 -0.23,-0.77l0 -0.27 0.85 0 0 0.53c0,0.13 0.05,0.2 0.15,0.2 0.06,0 0.11,-0.02 0.12,-0.08 0.01,-0.05 0.02,-0.18 0.02,-0.39l0 -0.56 -0.49 0 0 -0.5 0.49 0 0 -0.58c0,-0.11 -0.01,-0.19 -0.02,-0.23 -0.02,-0.04 -0.05,-0.06 -0.11,-0.06 -0.11,0 -0.16,0.06 -0.16,0.2l0 0.39 -0.85 0 0 -0.29c0,-0.31 0.07,-0.53 0.22,-0.65 0.14,-0.12 0.4,-0.18 0.76,-0.18 0.33,0 0.58,0.07 0.75,0.22 0.17,0.14 0.26,0.35 0.26,0.63l0 1.66zm2.51 0.92l-0.89 0 0 -2.73 -0.26 0 0 1.93c0,0.26 -0.03,0.44 -0.1,0.55 -0.06,0.11 -0.16,0.18 -0.29,0.21 -0.14,0.03 -0.35,0.04 -0.64,0.04l-0.14 0 0 -0.58c0.11,0 0.18,-0.02 0.22,-0.04 0.05,-0.03 0.07,-0.12 0.07,-0.28l0 -2.51 2.03 0 0 3.41zm0.35 -3.41l1.48 0 0 0.68 -0.59 0 0 0.66 0.55 0 0 0.64 -0.55 0 0 0.75 0.65 0 0 0.68 -1.54 0 0 -3.41zm1.79 0l0.89 0 0.01 1.44c0.16,0 0.25,-0.09 0.25,-0.28l0.02 -0.66c0,-0.25 0.05,-0.41 0.14,-0.5l0.82 0c-0.08,0.09 -0.12,0.26 -0.12,0.52l0.01 0.58c0,0.36 -0.2,0.56 -0.6,0.61 0.4,0.04 0.6,0.25 0.6,0.61l-0.01 0.54c0,0.26 0.04,0.44 0.12,0.55l-0.82 0c-0.09,-0.08 -0.14,-0.25 -0.14,-0.49l0 -0.67c0,-0.08 -0.03,-0.15 -0.08,-0.2 -0.05,-0.05 -0.11,-0.08 -0.19,-0.08l-0.01 1.44 -0.89 0 0 -3.41zm4.1 0l0 0.68 -0.52 0 0 2.73 -0.89 0 0 -2.73 -0.52 0 0 -0.68 1.93 0zm0.2 0l0.9 0c0.24,0 0.42,0.02 0.55,0.06 0.13,0.04 0.23,0.09 0.3,0.16 0.06,0.08 0.11,0.16 0.13,0.26 0.02,0.11 0.03,0.26 0.03,0.48l0 0.29c0,0.22 -0.02,0.38 -0.06,0.48 -0.05,0.1 -0.13,0.17 -0.25,0.23 -0.12,0.05 -0.28,0.08 -0.47,0.08l-0.24 0 0 1.37 -0.89 0 0 -3.41zm0.89 0.58l0 0.87c0.03,0.01 0.05,0.01 0.07,0.01 0.08,0 0.13,-0.02 0.17,-0.06 0.03,-0.04 0.04,-0.13 0.04,-0.25l0 -0.28c0,-0.12 -0.02,-0.2 -0.05,-0.23 -0.04,-0.04 -0.11,-0.06 -0.23,-0.06zm3.25 2.83l-0.74 0 0 -1.55 -0.46 1.55 -0.77 0 0 -3.41 0.74 0 0 1.54 0.5 -1.54 0.73 0 0 3.41zm1.57 -1.3c-0.07,0.07 -0.17,0.13 -0.28,0.18 -0.12,0.04 -0.23,0.07 -0.35,0.07 -0.21,0 -0.37,-0.06 -0.46,-0.18 -0.1,-0.12 -0.15,-0.3 -0.15,-0.55l0 -1.63 0.89 0 0 1.54c0,0.13 0.01,0.22 0.04,0.27 0.02,0.05 0.06,0.08 0.11,0.08 0.13,0 0.2,-0.12 0.2,-0.34l0 -1.55 0.89 0 0 3.41 -0.89 0 0 -1.3zm1.24 -2.11l1.48 0 0 0.68 -0.59 0 0 0.66 0.55 0 0 0.64 -0.55 0 0 0.75 0.65 0 0 0.68 -1.54 0 0 -3.41zm3.86 1.49l-0.88 0 0 -0.59c0,-0.17 -0.01,-0.28 -0.03,-0.32 -0.02,-0.05 -0.06,-0.07 -0.13,-0.07 -0.07,0 -0.11,0.03 -0.13,0.08 -0.02,0.05 -0.03,0.16 -0.03,0.34l0 1.58c0,0.16 0.01,0.27 0.03,0.32 0.02,0.05 0.06,0.08 0.13,0.08 0.06,0 0.1,-0.03 0.13,-0.08 0.02,-0.05 0.03,-0.17 0.03,-0.35l0 -0.43 0.88 0 0 0.13c0,0.35 -0.02,0.6 -0.07,0.75 -0.05,0.15 -0.16,0.28 -0.33,0.39 -0.17,0.11 -0.38,0.17 -0.63,0.17 -0.26,0 -0.48,-0.05 -0.65,-0.14 -0.16,-0.1 -0.28,-0.23 -0.33,-0.4 -0.05,-0.16 -0.08,-0.41 -0.08,-0.75l0 -0.99c0,-0.25 0.01,-0.43 0.02,-0.55 0.02,-0.13 0.07,-0.25 0.15,-0.36 0.09,-0.11 0.2,-0.2 0.35,-0.27 0.15,-0.06 0.32,-0.1 0.51,-0.1 0.26,0 0.48,0.05 0.65,0.16 0.17,0.1 0.28,0.22 0.33,0.37 0.06,0.15 0.08,0.39 0.08,0.71l0 0.32zm0.32 -1.49l0.89 0 0 1.44c0.17,0 0.25,-0.09 0.26,-0.28l0.01 -0.66c0.01,-0.25 0.06,-0.41 0.15,-0.5l0.82 0c-0.08,0.09 -0.12,0.26 -0.12,0.52l0 0.58c0.01,0.36 -0.19,0.56 -0.59,0.61 0.4,0.04 0.6,0.25 0.59,0.61l0 0.54c0,0.26 0.04,0.44 0.12,0.55l-0.82 0c-0.1,-0.08 -0.15,-0.25 -0.15,-0.49l0 -0.67c0,-0.08 -0.02,-0.15 -0.07,-0.2 -0.05,-0.05 -0.12,-0.08 -0.2,-0.08l0 1.44 -0.89 0 0 -3.41zm4.07 0l-0.25 2.26c-0.03,0.36 -0.07,0.61 -0.12,0.75 -0.04,0.15 -0.13,0.25 -0.25,0.31 -0.13,0.06 -0.33,0.09 -0.62,0.09l-0.51 0 0 -0.44 0.05 0c0.12,0 0.19,-0.01 0.22,-0.03 0.02,-0.01 0.04,-0.04 0.04,-0.08 0,-0.01 -0.02,-0.1 -0.05,-0.29l-0.47 -2.57 0.77 0 0.28 2.13 0.13 -2.13 0.78 0zm1.3 1.98l-0.24 0 0 1.43 -0.89 0 0 -3.41 0.89 0 0 1.22 0.24 0c0.01,-0.29 0.02,-0.51 0.05,-0.64 0.03,-0.13 0.09,-0.24 0.18,-0.33 0.09,-0.08 0.2,-0.15 0.33,-0.18 0.13,-0.04 0.29,-0.06 0.47,-0.06 0.19,0 0.35,0.02 0.49,0.06 0.13,0.04 0.25,0.11 0.33,0.2 0.09,0.1 0.15,0.22 0.17,0.38 0.02,0.15 0.04,0.4 0.04,0.77l0 0.58c0,0.37 -0.02,0.62 -0.04,0.77 -0.02,0.15 -0.08,0.28 -0.17,0.37 -0.08,0.1 -0.2,0.17 -0.33,0.22 -0.14,0.04 -0.3,0.06 -0.49,0.06 -0.17,0 -0.33,-0.02 -0.46,-0.06 -0.13,-0.03 -0.24,-0.09 -0.32,-0.18 -0.09,-0.08 -0.15,-0.17 -0.18,-0.26 -0.03,-0.1 -0.05,-0.22 -0.05,-0.36 -0.01,-0.14 -0.02,-0.33 -0.02,-0.56l0 -0.02zm1.17 0.59l0 -1.69c0,-0.14 -0.01,-0.24 -0.02,-0.29 -0.02,-0.06 -0.06,-0.08 -0.12,-0.08 -0.05,0 -0.09,0.02 -0.11,0.06 -0.02,0.04 -0.03,0.15 -0.03,0.31l0 1.75c0,0.09 0.01,0.16 0.03,0.21 0.01,0.04 0.05,0.07 0.11,0.07 0.04,0 0.08,-0.02 0.1,-0.06 0.03,-0.04 0.04,-0.13 0.04,-0.28zm1.97 -2.57l0.89 0c0.28,0 0.49,0.02 0.63,0.07 0.14,0.04 0.26,0.13 0.35,0.26 0.09,0.13 0.13,0.35 0.13,0.64 0,0.2 -0.03,0.34 -0.09,0.42 -0.07,0.08 -0.19,0.14 -0.37,0.18 0.2,0.05 0.34,0.12 0.41,0.23 0.08,0.11 0.11,0.27 0.11,0.5l0 0.31c0,0.23 -0.02,0.4 -0.07,0.51 -0.06,0.11 -0.14,0.19 -0.26,0.23 -0.11,0.04 -0.35,0.06 -0.7,0.06l-1.03 0 0 -3.41zm0.89 0.58l0 0.76c0.04,0 0.07,0 0.09,0 0.08,0 0.14,-0.02 0.16,-0.06 0.03,-0.05 0.04,-0.17 0.04,-0.37 0,-0.11 -0.01,-0.18 -0.03,-0.23 -0.02,-0.04 -0.05,-0.06 -0.08,-0.08 -0.03,-0.01 -0.09,-0.01 -0.18,-0.02zm0 1.29l0 0.96c0.12,0 0.2,-0.02 0.24,-0.06 0.03,-0.03 0.05,-0.12 0.05,-0.26l0 -0.32c0,-0.14 -0.02,-0.23 -0.05,-0.26 -0.03,-0.03 -0.11,-0.05 -0.24,-0.06zm3.56 0.75c0,0.25 -0.03,0.43 -0.1,0.54 -0.07,0.11 -0.17,0.18 -0.3,0.21 -0.13,0.03 -0.35,0.04 -0.64,0.04l-1.03 0 0 -3.41 0.89 0 0 1.17 0.14 0c0.27,0 0.48,0.02 0.62,0.05 0.14,0.03 0.25,0.1 0.32,0.21 0.06,0.11 0.1,0.29 0.1,0.52l0 0.67zm-0.89 -0.11l0 -0.49c0,-0.14 -0.01,-0.23 -0.04,-0.26 -0.03,-0.03 -0.11,-0.05 -0.25,-0.05l0 1.12c0.12,0 0.19,-0.02 0.23,-0.05 0.04,-0.03 0.06,-0.12 0.06,-0.27zm2.08 0.9l-0.89 0 0 -3.41 0.89 0 0 3.41zm2.11 -3.41l0 0.68 -0.52 0 0 2.73 -0.89 0 0 -2.73 -0.53 0 0 -0.68 1.94 0zm2.17 3.41l-0.88 0 0 -1.53c-0.12,0 -0.19,0.02 -0.22,0.05 -0.03,0.04 -0.05,0.12 -0.05,0.25l0 1.23 -0.82 0 0 -1.01c0,-0.18 0.01,-0.31 0.02,-0.4 0.02,-0.09 0.07,-0.16 0.14,-0.22 0.06,-0.06 0.17,-0.11 0.32,-0.15 -0.2,-0.02 -0.33,-0.07 -0.39,-0.17 -0.06,-0.1 -0.09,-0.27 -0.09,-0.53 0,-0.22 0.02,-0.4 0.08,-0.53 0.06,-0.13 0.14,-0.22 0.24,-0.28 0.11,-0.05 0.23,-0.09 0.37,-0.1 0.14,-0.01 0.36,-0.02 0.66,-0.02l0.62 0 0 3.41zm-0.88 -2.07l0 -0.75 -0.05 0c-0.07,0 -0.13,0.02 -0.16,0.05 -0.04,0.03 -0.06,0.1 -0.06,0.21l0 0.19c0,0.12 0.01,0.21 0.05,0.25 0.03,0.03 0.1,0.05 0.22,0.05zm2.21 0.61c-0.19,0 -0.28,0.08 -0.28,0.24l0 0.89c0,0.12 -0.01,0.21 -0.04,0.26 -0.03,0.05 -0.05,0.07 -0.06,0.07l-0.73 0c0.06,-0.09 0.1,-0.22 0.1,-0.4l0 -0.77c0,-0.16 0.04,-0.29 0.13,-0.37 0.09,-0.09 0.25,-0.15 0.47,-0.19l0 0c-0.4,-0.02 -0.6,-0.21 -0.6,-0.56l0 -0.72c0,-0.18 -0.03,-0.31 -0.09,-0.4l0.73 0c0.02,0.01 0.04,0.04 0.06,0.09 0.02,0.06 0.03,0.13 0.03,0.24l0 0.84c0,0.16 0.09,0.24 0.28,0.25l0 -1.42 0.89 0 0 1.42c0.18,-0.01 0.27,-0.09 0.27,-0.25l0 -0.84c0,-0.12 0.02,-0.2 0.04,-0.25 0.03,-0.05 0.05,-0.08 0.06,-0.08l0.73 0c-0.06,0.09 -0.09,0.22 -0.09,0.4l0 0.72c0,0.35 -0.2,0.54 -0.6,0.56l0 0c0.22,0.04 0.37,0.1 0.46,0.19 0.09,0.08 0.14,0.21 0.14,0.37l0 0.77c0,0.18 0.03,0.31 0.09,0.4l-0.73 0c-0.02,-0.01 -0.04,-0.04 -0.06,-0.09 -0.02,-0.05 -0.03,-0.13 -0.03,-0.24l0 -0.89c0,-0.16 -0.1,-0.24 -0.28,-0.24l0 1.46 -0.89 0 0 -1.46zm2.21 -1.95l0.89 0 0 1.44c0.17,0 0.25,-0.09 0.26,-0.28l0.02 -0.66c0,-0.25 0.05,-0.41 0.14,-0.5l0.82 0c-0.08,0.09 -0.12,0.26 -0.12,0.52l0 0.58c0.01,0.36 -0.19,0.56 -0.59,0.61 0.4,0.04 0.6,0.25 0.59,0.61l0 0.54c0,0.26 0.04,0.44 0.12,0.55l-0.82 0c-0.1,-0.08 -0.14,-0.25 -0.14,-0.49l0 -0.67c0,-0.08 -0.03,-0.15 -0.08,-0.2 -0.05,-0.05 -0.12,-0.08 -0.2,-0.08l0 1.44 -0.89 0 0 -3.41zm4.07 0l-0.25 2.26c-0.03,0.36 -0.07,0.61 -0.12,0.75 -0.04,0.15 -0.13,0.25 -0.25,0.31 -0.13,0.06 -0.33,0.09 -0.62,0.09l-0.51 0 0 -0.44 0.05 0c0.12,0 0.19,-0.01 0.22,-0.03 0.02,-0.01 0.04,-0.04 0.04,-0.08 0,-0.01 -0.02,-0.1 -0.05,-0.29l-0.47 -2.57 0.77 0 0.28 2.13 0.13 -2.13 0.78 0zm0.74 0l0 0.34 0.31 -0.1 0.09 0.24 -0.3 0.14 0.19 0.27 -0.21 0.16 -0.21 -0.28 -0.22 0.28 -0.22 -0.16 0.2 -0.29 -0.31 -0.12 0.09 -0.24 0.32 0.1 0 -0.34 0.27 0z"/>
  </g>
 </g>
</svg>
