<?xml version="1.0" encoding="UTF-8"?>
<!DOCTYPE svg PUBLIC "-//W3C//DTD SVG 1.1//EN" "http://www.w3.org/Graphics/SVG/1.1/DTD/svg11.dtd">
<!-- Creator: CorelDRAW 2019 (64-Bit) -->
<svg xmlns="http://www.w3.org/2000/svg" xml:space="preserve" width="663px" height="551px" version="1.1" style="shape-rendering:geometricPrecision; text-rendering:geometricPrecision; image-rendering:optimizeQuality; fill-rule:evenodd; clip-rule:evenodd"
viewBox="0 0 90.45 75.19"
 xmlns:xlink="http://www.w3.org/1999/xlink"
 xmlns:xodm="http://www.corel.com/coreldraw/odm/2003">
 <defs>
  <style type="text/css">
   <![CDATA[
    .str0 {stroke:#00A0E3;stroke-width:2.18;stroke-linejoin:round;stroke-miterlimit:22.9256}
    .fil21 {fill:none;fill-rule:nonzero}
    .fil0 {fill:#00A0E3}
    .fil3 {fill:#478CCD}
    .fil11 {fill:#4A8BCC}
    .fil14 {fill:#4C8CC4}
    .fil10 {fill:#5489C5}
    .fil12 {fill:#7EBB7E}
    .fil6 {fill:#94CEF3}
    .fil20 {fill:#94CEF3}
    .fil1 {fill:#99D1F6}
    .fil5 {fill:#9ACFF6}
    .fil2 {fill:#E18D45}
    .fil19 {fill:#F2F0E7}
    .fil17 {fill:#F3FDFB}
    .fil16 {fill:#F4FDF4}
    .fil18 {fill:#F5F7EA}
    .fil13 {fill:#F8F5F7}
    .fil8 {fill:#FAFDFA}
    .fil9 {fill:#FAFEFD}
    .fil15 {fill:#FBD95A}
    .fil4 {fill:#FCFFFC}
    .fil7 {fill:#FEFCFE}
    .fil22 {fill:white;fill-rule:nonzero}
   ]]>
  </style>
 </defs>
 <g id="Слой_x0020_1">
  <metadata id="CorelCorpID_0Corel-Layer"/>
  <path class="fil0" d="M11.09 53l68.27 0c6.1,0 11.09,4.99 11.09,11.09l0 0c0,6.11 -4.99,11.1 -11.09,11.1l-68.27 0c-6.1,0 -11.09,-4.99 -11.09,-11.1l0 0c0,-6.1 4.99,-11.09 11.09,-11.09z"/>
  <g id="_1638540784416">
   <path class="fil1" d="M38.37 39.98c-0.21,-1.24 -0.61,-1.4 -0.52,-3.16 0.14,-2.7 2.32,-4.91 5.21,-5.28 0.03,3.64 0.09,7.29 -0.05,10.94l-8.82 -0.04c0.17,-1.72 2.11,-2.69 4.18,-2.46zm-7.95 -35.24c1.36,-0.05 2.94,0.86 3.66,1.54 0.4,0.37 0.94,1 1.23,1.55 0.63,1.18 0.25,2 0.93,2.13 0.4,0.07 3.48,-0.69 5.71,2.39 0.33,0.45 0.31,0.42 0.5,0.94 0.27,0.77 -0.11,0.18 0.56,0.73l-0.04 4.28 -12.58 -0.05 0.03 -13.51zm-0.22 -2.66l0.01 53.58c0.92,0.26 17.78,0.06 21.49,0.07 1.32,0.01 1.85,0.23 2.43,-0.68 0.28,-0.28 0.33,-0.3 0.59,-0.62 0.38,-0.45 0.4,-0.26 0.59,-0.62l-12.13 -2.2c-0.16,-1.11 0.1,-16.2 0.09,-19.02l-0.12 -5.65c-0.08,-0.43 0.05,-0.29 -0.29,-0.51 -0.61,-0.13 -0.51,0.64 -0.51,1.08 -0.01,0.57 -0.03,0.44 -0.26,0.89 -1.14,-0.01 -0.86,-0.54 -0.86,-1.73 0.01,-1.54 -0.14,-6.71 0.13,-7.46 0.35,-0.14 0.5,-0.13 0.88,0.06 0.17,0.7 -0.04,1.27 0.21,1.79l0.55 -0.01c0.53,-0.97 -0.11,-14.48 0.2,-17.08l0.07 -0.17c-2.89,-0.79 -2.51,-0.93 -6.17,-1.49 -1.92,-0.3 -4.75,-0.62 -6.9,-0.23z"/>
   <path class="fil2" d="M13.6 55.76c-1.66,0.16 -1.71,-0.2 -2.54,-0.99 -0.48,-0.46 -1.43,-1.34 -1.66,-1.91 0.84,-0.07 2.99,-0.13 3.78,0.06l0.42 2.84zm11.01 -52.65c0.23,-0.14 0.32,-0.18 0.65,-0.25 0.27,-0.05 0,-0.03 0.34,-0.03 0.23,0 0.23,0.03 0.3,0.06 0.45,-0.51 0.69,-0.33 1.48,-0.37l2.33 -0.41 0.49 -0.03c2.15,-0.39 4.98,-0.07 6.9,0.23 3.66,0.56 3.28,0.7 6.17,1.49 0.08,0.25 -0.35,0 0.49,0.22 0.66,0.17 1.02,0.32 1.5,0.75 0.58,0.05 0.23,-0.04 0.37,0.14 0.58,0.15 0.5,0.25 1.1,0.44 0.77,0.19 3.09,1.72 3.78,2.21 3.58,2.58 6.35,5.44 8.68,9.32 3.03,5.04 5.34,12.2 4.23,19.61 -0.04,1.17 -0.95,5.41 -1.37,6.23l-1.56 3.65c-0.27,0.55 -1.38,3.03 -1.97,3.1 -0.13,0.45 -0.09,0.83 -0.54,0.93 -0.13,0.5 0.15,0.16 -0.29,0.35 0.14,0.28 -0.63,1.13 -0.9,1.44 -0.26,0.3 -0.37,0.41 -0.59,0.67 -0.33,0.39 -0.25,0.47 -0.71,0.53 0.14,0.41 0.18,0.09 -0.18,0.42 -0.19,0.36 -0.21,0.17 -0.59,0.62 -0.26,0.32 -0.31,0.34 -0.59,0.62 -0.32,0.29 -0.94,1.13 -1.46,1.24 -0.37,0.67 -3.18,2.46 -4.1,3.03 -1.11,0.69 -3.65,2.03 -4.75,2.31 -0.66,0.12 -0.43,0.05 -0.87,0.28 -0.41,0.21 -0.15,0.18 -0.76,0.21 -1.43,1.02 -7.07,1.56 -9.42,1.55 -2.43,-0.01 -7.63,-0.55 -9.49,-1.47 -0.47,-0.12 -0.95,-0.33 -1.19,-0.62 -0.74,-0.01 -2.06,-0.56 -2.57,-0.9l0.54 -0.15c0.12,-0.02 0.41,-0.01 0.55,-0.01l3.47 -0.11c0.19,-0.4 0.12,-1 0.12,-1.56 -0.22,-0.59 -0.06,-0.16 -0.75,-0.43l0.36 -2.12 0.09 -0.9 0.44 -2.44 0.24 -1.41c0.07,-1.47 0.68,-3.32 0.59,-4.69l-12.85 0c-0.1,1.35 0.69,3.44 0.56,4.81l-4.58 -0.02c-1.43,-1.77 -5.66,-8.92 -5.03,-10.44 -0.45,-0.16 -0.37,-0.44 -0.57,-1.28 -0.99,-4.28 -0.98,-8.24 -0.32,-12.57 0.49,-3.25 0.72,-3.31 1.75,-6.11 0.39,-1.08 0.7,-1.77 1.2,-2.73 0.28,-0.53 1.05,-1.78 1.43,-2.33 2.05,-2.91 1.56,-2.45 3.86,-4.96 0.83,-0.89 3.18,-2.87 4.16,-3.51 0.18,-0.12 0.42,-0.27 0.59,-0.39 1.14,-0.78 2.4,-1.58 3.65,-2.18 0.45,-0.21 0.94,-0.43 1.33,-0.62l0.58 -0.26c0.03,-0.01 0.06,-0.03 0.09,-0.04 0.19,-0.08 0.55,-0.2 0.72,-0.26 0.48,-0.17 1.08,-0.28 1.52,-0.45 0.57,-0.22 0.54,-0.36 1.35,-0.41zm6.56 -2.96c-3.4,0.45 -2.91,-0.02 -6.97,1.06 -6.21,1.64 -12.35,5.48 -16.29,10.22 -0.44,0.52 -0.56,0.71 -0.93,1.17 -4.84,6.11 -7.27,13.59 -6.95,21.83 0.49,12.75 8.94,24.21 20.39,28.72 4.39,1.73 8.5,2.54 14.02,2.36 16.93,-0.55 31.96,-15.44 31.06,-34.32 -0.46,-9.6 -4.94,-17.21 -10.44,-22.36 -2.41,-2.26 -6.53,-5.18 -9.91,-6.36 -4.07,-1.43 -9.08,-2.97 -13.98,-2.32z"/>
   <path class="fil3" d="M3.27 41.21c1.51,-0.95 7.66,-7.18 8.21,-8.36 0.05,-0.63 -0.05,-0.35 0.56,-0.55 0.2,-0.48 1.28,-1.76 1.53,-2.04l-0.06 -0.7 0.56 0.06c0.25,-0.58 1.23,-1.9 1.67,-2.58 0.63,-0.99 1.09,-1.79 1.62,-2.72 0.83,-1.47 2.29,-4.09 2.8,-5.66 0.08,-0.68 0.05,-0.18 -0.1,-0.37l-7.41 0.01c0,-0.9 0.89,-1.7 1.3,-1.97 1.05,-0.69 1.63,-0.65 2.92,-0.55 -0.64,-2.12 -1.16,-4.3 0.84,-6.49 1.68,-1.84 3.5,-2.15 5.94,-1.77l0.33 -0.63 0.63 -3.78c-0.81,0.05 -0.78,0.19 -1.35,0.41 -0.44,0.17 -1.04,0.28 -1.52,0.45 -0.17,0.06 -0.53,0.18 -0.72,0.26 -0.03,0.01 -0.06,0.03 -0.09,0.04l-0.58 0.26c-0.39,0.19 -0.88,0.41 -1.33,0.62 -1.25,0.6 -2.51,1.4 -3.65,2.18 -0.17,0.12 -0.41,0.27 -0.59,0.39 -0.98,0.64 -3.33,2.62 -4.16,3.51 -2.3,2.51 -1.81,2.05 -3.86,4.96 -0.38,0.55 -1.15,1.8 -1.43,2.33 -0.5,0.96 -0.81,1.65 -1.2,2.73 -1.03,2.8 -1.26,2.86 -1.75,6.11 -0.66,4.33 -0.67,8.29 0.32,12.57 0.2,0.84 0.12,1.12 0.57,1.28z"/>
   <path class="fil4" d="M20.16 18.66c-0.51,1.57 -1.97,4.19 -2.8,5.66 -0.53,0.93 -0.99,1.73 -1.62,2.72 -0.44,0.68 -1.42,2 -1.67,2.58 1.2,0.35 1.44,1.01 2.24,1.52 0,-0.73 -0.11,-1.97 0.22,-2.72l0.4 -0.51c0.36,0.5 0.65,0.79 0.91,1.33 0.25,0.52 0.31,1.1 0.56,1.49 0.55,-0.79 1,-2.19 2.11,-2.42 0.23,1.56 0.03,1.68 -0.04,3.13 0.67,-0.17 1.15,-1.05 2.94,-1.12 -0.01,0.68 -0.3,1.17 -0.65,1.64 -0.28,0.39 -0.9,0.97 -1.01,1.19 1.61,0.04 1.8,-0.07 3.19,0.39 -0.36,1.1 -1.71,1.26 -2.87,1.59 0.11,0.28 1.09,0.63 1.43,0.86 0.86,0.61 0.96,0.77 1.08,1.36 -1.17,0.33 -1.82,0.07 -3.02,0 0.44,1.11 0.97,1.41 1.04,2.93 -1.52,-0.2 -2.23,-1.28 -2.8,-1.6 -0.01,0.92 0.15,2.33 -0.57,3.01 -0.75,-0.28 -1.34,-1.81 -1.51,-2.61l-1.27 1.95c2.17,2.27 0.6,6.64 -2.67,5.04 -2.66,-1.31 -2.42,-4.35 -2.12,-7.68 0.88,0.06 0.69,0.53 1.31,0.1 0.28,-1.01 1.11,-1.32 1.28,-1.92 -1.33,0.03 -2.01,0.02 -3.1,-0.37 0.32,-0.9 1.49,-1.25 2.36,-1.56 -0.22,-0.51 -2.03,-1.79 -2.03,-1.79 -0.55,1.18 -6.7,7.41 -8.21,8.36 -0.63,1.52 3.6,8.67 5.03,10.44l4.58 0.02c0.13,-1.37 -0.66,-3.46 -0.56,-4.81l12.85 0c0.09,1.37 -0.52,3.22 -0.59,4.69l1.24 -0.05 0.03 -33.2 -5.09 0.02c-0.36,0.07 -0.21,0.05 -0.33,0.12 -0.03,0.02 -0.06,0.05 -0.09,0.06l-0.18 0.16z"/>
   <path class="fil4" d="M63.42 36.49c1.11,-7.41 -1.2,-14.57 -4.23,-19.61 -2.33,-3.88 -5.1,-6.74 -8.68,-9.32 -0.69,-0.49 -3.01,-2.02 -3.78,-2.21l-0.04 8.8c1.45,0.72 1.32,2.1 1.56,2.71 0.45,-0.06 1.18,-0.62 1.63,-0.82 0.75,-0.33 1.27,-0.42 2.15,-0.2 0.71,0.18 1.23,0.52 1.63,0.92 0.24,0.25 0.83,1.06 0.86,1.5l-7.78 0.05 -0.04 13.17c0.7,-0.45 2.09,-3.29 6.53,-2.3 2.19,0.49 3.77,2.53 4.14,4.99 1.62,-0.03 2.29,-0.19 3.68,0.43 1.52,0.67 1.61,1.2 2.37,1.89z"/>
   <path class="fil5" d="M57.98 50.4c0.45,-0.1 0.41,-0.48 0.54,-0.93 -0.45,-0.25 -1.86,-0.36 -2.89,-0.62 -1.53,-0.39 -8.11,-1.31 -8.9,-1.72l-0.01 -4.64c3.67,-0.17 10.24,-0.03 14.53,-0.04 0.55,0 0.69,-0.13 0.8,0.27 0.42,-0.82 1.33,-5.06 1.37,-6.23 -0.76,-0.69 -0.85,-1.22 -2.37,-1.89 -1.39,-0.62 -2.06,-0.46 -3.68,-0.43 -0.37,-2.46 -1.95,-4.5 -4.14,-4.99 -4.44,-0.99 -5.83,1.85 -6.53,2.3l0.04 -13.17 7.78 -0.05c-0.03,-0.44 -0.62,-1.25 -0.86,-1.5 -0.4,-0.4 -0.92,-0.74 -1.63,-0.92 -0.88,-0.22 -1.4,-0.13 -2.15,0.2 -0.45,0.2 -1.18,0.76 -1.63,0.82 -0.24,-0.61 -0.11,-1.99 -1.56,-2.71l0.04 -8.8c-0.6,-0.19 -0.52,-0.29 -1.1,-0.44l0.02 43.19 12.33 2.3z"/>
   <path class="fil6" d="M25.9 2.89l-0.04 3.31c-0.15,0.52 -0.31,0.44 -0.64,0.88 -0.27,0.36 -0.31,0.53 -0.61,0.83l-0.71 -0.26 0.08 -0.76 -0.33 0.63c-2.44,-0.38 -4.26,-0.07 -5.94,1.77 -2,2.19 -1.48,4.37 -0.84,6.49 -1.29,-0.1 -1.87,-0.14 -2.92,0.55 -0.41,0.27 -1.3,1.07 -1.3,1.97l7.41 -0.01c0.15,0.19 0.18,-0.31 0.1,0.37l0.18 -0.16c0.03,-0.01 0.06,-0.04 0.09,-0.06 0.12,-0.07 -0.03,-0.05 0.33,-0.12l5.09 -0.02 -0.03 33.2 -1.24 0.05 -0.24 1.41 2.99 0.05 0.05 -50.49c-0.79,0.04 -1.03,-0.14 -1.48,0.37z"/>
   <path class="fil7" d="M22.09 61.58l21.73 0.05c1.1,-0.28 3.64,-1.62 4.75,-2.31 0.92,-0.57 3.73,-2.36 4.1,-3.03l-28.86 0.01 -0.36 2.12c0.69,0.27 0.53,-0.16 0.75,0.43 0,0.56 0.07,1.16 -0.12,1.56l-3.47 0.11c-0.14,0 -0.43,-0.01 -0.55,0.01l-0.54 0.15c0.51,0.34 1.83,0.89 2.57,0.9z"/>
   <path class="fil8" d="M27.98 28.31c-0.24,-1.06 -0.09,-3.84 -0.09,-5.17 0,-0.62 -0.38,-5.04 0.86,-3.94 0.45,0.39 0.21,4.22 0.21,5.07 0,3.05 0.43,4.41 -0.98,4.04zm-0.6 -25.79l-0.05 50.49 -2.99 -0.05 -0.44 2.44c-0.03,0.51 0.57,0.34 1.13,0.32l4.66 -0.02 0.02 -53.59 -2.33 0.41z"/>
   <path class="fil4" d="M30.39 18.25l12.58 0.05 0.04 -4.28c-0.67,-0.55 -0.29,0.04 -0.56,-0.73 -0.19,-0.52 -0.17,-0.49 -0.5,-0.94 -2.23,-3.08 -5.31,-2.32 -5.71,-2.39 -0.68,-0.13 -0.3,-0.95 -0.93,-2.13 -0.29,-0.55 -0.83,-1.18 -1.23,-1.55 -0.72,-0.68 -2.3,-1.59 -3.66,-1.54l-0.03 13.51z"/>
   <path class="fil8" d="M43.2 3.97c0.03,0.03 0.07,0.07 0.08,0.08l0.34 0.18 0.07 16.84c0.56,-0.17 0.16,-0.71 1.02,-0.52 0.25,0.45 0.3,1.04 0.09,1.59 -0.84,0.5 -0.54,-0.16 -1.18,-0.36l0.04 3.94c0.49,0.01 0.43,-0.97 1.06,-0.25 0.29,0.29 0.24,1.03 0.08,1.45 -0.48,0.53 -0.76,-0.24 -1.17,-0.46 -0.05,4.15 -0.01,8.33 -0.01,12.49 0,2.07 0,4.14 0,6.21l0 4.65c0,0.21 -0.01,0.52 0,0.72l0.13 0.68 11.74 2.18c0.46,-0.06 0.38,-0.14 0.71,-0.53 0.22,-0.26 0.33,-0.37 0.59,-0.67 0.27,-0.31 1.04,-1.16 0.9,-1.44l-12.42 -2.35 -0.01 -43.63c-0.48,-0.43 -0.84,-0.58 -1.5,-0.75 -0.84,-0.22 -0.41,0.03 -0.49,-0.22l-0.07 0.17z"/>
   <path class="fil2" d="M17.41 32.95c2.45,-1.14 3.97,2.86 1.56,3.89 -1.8,0.77 -3.68,-1.08 -2.73,-2.95 0.34,-0.68 0.6,-0.67 1.17,-0.94zm-3.34 -3.33l-0.56 -0.06 0.06 0.7c0.13,0.22 0.3,0.88 0.51,1.25 0.21,0.37 0.44,0.77 0.66,1.02 -1.09,-0.1 -1.32,-0.31 -2.7,-0.23 -0.61,0.2 -0.51,-0.08 -0.56,0.55 0,0 1.81,1.28 2.03,1.79 -0.87,0.31 -2.04,0.66 -2.36,1.56 1.09,0.39 1.77,0.4 3.1,0.37 -0.17,0.6 -1,0.91 -1.28,1.92 0.14,0.61 0.21,0.57 0.93,0.65 0.9,-0.22 1.07,-0.59 1.74,-0.87l-0.14 1.03 0.03 1.06c0.64,0.36 0.47,0.15 0.92,0.67l1.27 -1.95c0.17,0.8 0.76,2.33 1.51,2.61 0.72,-0.68 0.56,-2.09 0.57,-3.01 0.57,0.32 1.28,1.4 2.8,1.6 -0.07,-1.52 -0.6,-1.82 -1.04,-2.93 1.2,0.07 1.85,0.33 3.02,0 -0.12,-0.59 -0.22,-0.75 -1.08,-1.36 -0.34,-0.23 -1.32,-0.58 -1.43,-0.86 1.16,-0.33 2.51,-0.49 2.87,-1.59 -1.39,-0.46 -1.58,-0.35 -3.19,-0.39 0.11,-0.22 0.73,-0.8 1.01,-1.19 0.35,-0.47 0.64,-0.96 0.65,-1.64 -1.79,0.07 -2.27,0.95 -2.94,1.12 0.07,-1.45 0.27,-1.57 0.04,-3.13 -1.11,0.23 -1.56,1.63 -2.11,2.42 -0.25,-0.39 -0.31,-0.97 -0.56,-1.49 -0.26,-0.54 -0.55,-0.83 -0.91,-1.33l-0.4 0.51c-0.33,0.75 -0.22,1.99 -0.22,2.72 -0.8,-0.51 -1.04,-1.17 -2.24,-1.52z"/>
   <path class="fil4" d="M58.52 49.47c0.59,-0.07 1.7,-2.55 1.97,-3.1l1.56 -3.65c-0.11,-0.4 -0.25,-0.27 -0.8,-0.27 -4.29,0.01 -10.86,-0.13 -14.53,0.04l0.01 4.64c0.79,0.41 7.37,1.33 8.9,1.72 1.03,0.26 2.44,0.37 2.89,0.62z"/>
   <path class="fil9" d="M38.37 39.98c-2.07,-0.23 -4.01,0.74 -4.18,2.46l8.82 0.04c0.14,-3.65 0.08,-7.3 0.05,-10.94 -2.89,0.37 -5.07,2.58 -5.21,5.28 -0.09,1.76 0.31,1.92 0.52,3.16z"/>
   <path class="fil10" d="M23.9 55.4l-0.09 0.9 28.86 -0.01c0.52,-0.11 1.14,-0.95 1.46,-1.24 -0.58,0.91 -1.11,0.69 -2.43,0.68 -3.71,-0.01 -20.57,0.19 -21.49,-0.07l-0.01 -53.58 -0.49 0.03 -0.02 53.59 -4.66 0.02c-0.56,0.02 -1.16,0.19 -1.13,-0.32z"/>
   <path class="fil11" d="M42.39 25.73c-0.19,-0.75 -0.07,-1.66 -0.07,-2.45 -0.02,-1.24 -0.35,-1.57 0.82,-1.5l-0.06 3.98 -0.69 -0.03zm12.92 28.08c0.36,-0.33 0.32,-0.01 0.18,-0.42l-11.74 -2.18 -0.13 -0.68c-0.01,-0.2 0,-0.51 0,-0.72l0 -4.65c0,-2.07 0,-4.14 0,-6.21 0,-4.16 -0.04,-8.34 0.01,-12.49 0.41,0.22 0.69,0.99 1.17,0.46 0.16,-0.42 0.21,-1.16 -0.08,-1.45 -0.63,-0.72 -0.57,0.26 -1.06,0.25l-0.04 -3.94c0.64,0.2 0.34,0.86 1.18,0.36 0.21,-0.55 0.16,-1.14 -0.09,-1.59 -0.86,-0.19 -0.46,0.35 -1.02,0.52l-0.07 -16.84 -0.34 -0.18c-0.01,-0.01 -0.05,-0.05 -0.08,-0.08 -0.31,2.6 0.33,16.11 -0.2,17.08l-0.55 0.01c-0.25,-0.52 -0.04,-1.09 -0.21,-1.79 -0.38,-0.19 -0.53,-0.2 -0.88,-0.06 -0.27,0.75 -0.12,5.92 -0.13,7.46 0,1.19 -0.28,1.72 0.86,1.73 0.23,-0.45 0.25,-0.32 0.26,-0.89 0,-0.44 -0.1,-1.21 0.51,-1.08 0.34,0.22 0.21,0.08 0.29,0.51l0.12 5.65c0.01,2.82 -0.25,17.91 -0.09,19.02l12.13 2.2z"/>
   <path class="fil12" d="M16.45 41.03c-0.45,-0.52 -0.28,-0.31 -0.92,-0.67l-0.03 -1.06 -0.13 0.78c-0.43,-0.13 -0.47,-0.24 -0.83,-0.43 -0.44,-0.23 -0.51,-0.09 -0.64,-0.51 -0.72,-0.08 -0.79,-0.04 -0.93,-0.65 -0.62,0.43 -0.43,-0.04 -1.31,-0.1 -0.3,3.33 -0.54,6.37 2.12,7.68 3.27,1.6 4.84,-2.77 2.67,-5.04z"/>
   <path class="fil13" d="M42.19 62.12c-1.7,-0.12 -18.58,-0.08 -18.91,0.08 1.86,0.92 7.06,1.46 9.49,1.47 2.35,0.01 7.99,-0.53 9.42,-1.55z"/>
   <path class="fil14" d="M57.69 50.75c0.44,-0.19 0.16,0.15 0.29,-0.35l-12.33 -2.3 -0.02 -43.19c-0.14,-0.18 0.21,-0.09 -0.37,-0.14l0.01 43.63 12.42 2.35z"/>
   <path class="fil15" d="M17.41 32.95c-0.57,0.27 -0.83,0.26 -1.17,0.94 -0.95,1.87 0.93,3.72 2.73,2.95 2.41,-1.03 0.89,-5.03 -1.56,-3.89z"/>
   <path class="fil11" d="M27.98 28.31c1.41,0.37 0.98,-0.99 0.98,-4.04 0,-0.85 0.24,-4.68 -0.21,-5.07 -1.24,-1.1 -0.86,3.32 -0.86,3.94 0,1.33 -0.15,4.11 0.09,5.17z"/>
   <path class="fil14" d="M23.28 62.2c0.33,-0.16 17.21,-0.2 18.91,-0.08 0.61,-0.03 0.35,0 0.76,-0.21 0.44,-0.23 0.21,-0.16 0.87,-0.28l-21.73 -0.05c0.24,0.29 0.72,0.5 1.19,0.62z"/>
   <path class="fil16" d="M13.6 55.76l-0.42 -2.84c-0.79,-0.19 -2.94,-0.13 -3.78,-0.06 0.23,0.57 1.18,1.45 1.66,1.91 0.83,0.79 0.88,1.15 2.54,0.99z"/>
   <path class="fil17" d="M24.61 3.11l-0.63 3.78 -0.08 0.76 0.71 0.26c0.3,-0.3 0.34,-0.47 0.61,-0.83 0.33,-0.44 0.49,-0.36 0.64,-0.88l0.04 -3.31c-0.07,-0.03 -0.07,-0.06 -0.3,-0.06 -0.34,0 -0.07,-0.02 -0.34,0.03 -0.33,0.07 -0.42,0.11 -0.65,0.25z"/>
   <path class="fil6" d="M42.39 25.73l0.69 0.03 0.06 -3.98c-1.17,-0.07 -0.84,0.26 -0.82,1.5 0,0.79 -0.12,1.7 0.07,2.45z"/>
   <path class="fil18" d="M12.04 32.3c1.38,-0.08 1.61,0.13 2.7,0.23 -0.22,-0.25 -0.45,-0.65 -0.66,-1.02 -0.21,-0.37 -0.38,-1.03 -0.51,-1.25 -0.25,0.28 -1.33,1.56 -1.53,2.04z"/>
   <path class="fil19" d="M13.9 39.14c0.13,0.42 0.2,0.28 0.64,0.51 0.36,0.19 0.4,0.3 0.83,0.43l0.13 -0.78 0.14 -1.03c-0.67,0.28 -0.84,0.65 -1.74,0.87z"/>
   <path class="fil20" d="M13 51.6l-4.58 0 -0.16 0c0.36,0.48 0.73,0.95 1.12,1.41l0.08 0 3.74 0 -0.2 -1.41z"/>
   <polygon class="fil20" points="27.32,51.6 24.63,51.6 24.51,51.6 24.3,53.01 24.35,53.01 27.32,53.01 "/>
  </g>
  <path class="fil0" d="M32.77 0c18.1,0 32.77,14.67 32.77,32.77 0,18.1 -14.67,32.77 -32.77,32.77 -18.1,0 -32.77,-14.67 -32.77,-32.77 0,-18.1 14.67,-32.77 32.77,-32.77zm0 2.05c16.96,0 30.72,13.75 30.72,30.72 0,16.96 -13.76,30.72 -30.72,30.72 -16.97,0 -30.72,-13.76 -30.72,-30.72 0,-16.97 13.75,-30.72 30.72,-30.72z"/>
  <g>
   <path class="fil21 str0" d="M12.6 61.78c0,0.5 -0.01,0.85 -0.04,1.06 -0.02,0.2 -0.09,0.39 -0.22,0.56 -0.12,0.17 -0.29,0.31 -0.5,0.4 -0.21,0.09 -0.45,0.14 -0.73,0.14 -0.26,0 -0.5,-0.05 -0.71,-0.14 -0.21,-0.08 -0.38,-0.21 -0.51,-0.38 -0.13,-0.18 -0.2,-0.37 -0.23,-0.57 -0.02,-0.2 -0.03,-0.56 -0.03,-1.07l0 -0.85c0,-0.49 0.01,-0.85 0.03,-1.05 0.02,-0.21 0.1,-0.4 0.22,-0.57 0.12,-0.17 0.29,-0.3 0.5,-0.39 0.21,-0.1 0.45,-0.14 0.73,-0.14 0.27,0 0.5,0.04 0.71,0.13 0.22,0.09 0.39,0.21 0.51,0.39 0.13,0.17 0.21,0.36 0.23,0.56 0.03,0.21 0.04,0.56 0.04,1.07l0 0.85zm-1.29 -1.63c0,-0.23 -0.01,-0.37 -0.04,-0.44 -0.02,-0.06 -0.07,-0.09 -0.15,-0.09 -0.07,0 -0.12,0.02 -0.15,0.08 -0.04,0.05 -0.06,0.2 -0.06,0.45l0 2.31c0,0.29 0.02,0.47 0.04,0.54 0.02,0.06 0.08,0.1 0.16,0.1 0.08,0 0.14,-0.04 0.16,-0.12 0.03,-0.08 0.04,-0.26 0.04,-0.55l0 -2.28zm4.36 -1.27l0 0.99 -0.75 0 0 3.96 -1.29 0 0 -3.96 -0.77 0 0 -0.99 2.81 0zm0.3 0l1.29 0 0 2.09c0.24,-0.01 0.36,-0.14 0.37,-0.4l0.03 -0.97c0.01,-0.36 0.07,-0.6 0.2,-0.72l1.19 0c-0.11,0.12 -0.17,0.37 -0.17,0.74l0.01 0.85c0,0.52 -0.29,0.81 -0.87,0.88 0.58,0.07 0.87,0.37 0.87,0.89l-0.01 0.79c0,0.37 0.06,0.64 0.17,0.8l-1.19 0c-0.13,-0.13 -0.2,-0.37 -0.2,-0.72l0 -0.97c0,-0.12 -0.04,-0.22 -0.11,-0.29 -0.08,-0.08 -0.17,-0.12 -0.29,-0.12l0 2.1 -1.29 0 0 -4.95zm3.35 0l1.3 0c0.35,0 0.62,0.03 0.81,0.08 0.18,0.06 0.33,0.14 0.42,0.24 0.1,0.1 0.16,0.23 0.19,0.38 0.04,0.14 0.05,0.37 0.05,0.68l0 0.43c0,0.32 -0.03,0.55 -0.09,0.69 -0.07,0.15 -0.19,0.26 -0.36,0.34 -0.18,0.07 -0.4,0.11 -0.68,0.11l-0.35 0 0 2 -1.29 0 0 -4.95zm1.29 0.84l0 1.26c0.04,0.01 0.07,0.01 0.1,0.01 0.11,0 0.19,-0.03 0.24,-0.09 0.05,-0.06 0.07,-0.18 0.07,-0.36l0 -0.41c0,-0.17 -0.03,-0.28 -0.08,-0.33 -0.05,-0.05 -0.16,-0.08 -0.33,-0.08zm4.79 2.06c0,0.5 -0.01,0.85 -0.04,1.06 -0.02,0.2 -0.09,0.39 -0.22,0.56 -0.12,0.17 -0.29,0.31 -0.5,0.4 -0.2,0.09 -0.45,0.14 -0.73,0.14 -0.26,0 -0.5,-0.05 -0.71,-0.14 -0.21,-0.08 -0.38,-0.21 -0.51,-0.38 -0.13,-0.18 -0.2,-0.37 -0.23,-0.57 -0.02,-0.2 -0.03,-0.56 -0.03,-1.07l0 -0.85c0,-0.49 0.01,-0.85 0.03,-1.05 0.02,-0.21 0.1,-0.4 0.22,-0.57 0.12,-0.17 0.29,-0.3 0.5,-0.39 0.21,-0.1 0.45,-0.14 0.73,-0.14 0.27,0 0.5,0.04 0.71,0.13 0.22,0.09 0.39,0.21 0.51,0.39 0.13,0.17 0.21,0.36 0.23,0.56 0.03,0.21 0.04,0.56 0.04,1.07l0 0.85zm-1.29 -1.63c0,-0.23 -0.01,-0.37 -0.04,-0.44 -0.02,-0.06 -0.07,-0.09 -0.15,-0.09 -0.07,0 -0.12,0.02 -0.15,0.08 -0.04,0.05 -0.05,0.2 -0.05,0.45l0 2.31c0,0.29 0.01,0.47 0.03,0.54 0.02,0.06 0.08,0.1 0.16,0.1 0.09,0 0.14,-0.04 0.16,-0.12 0.03,-0.08 0.04,-0.26 0.04,-0.55l0 -2.28zm4.64 3.68l-1.08 0 0 -2.25 -0.67 2.25 -1.12 0 0 -4.95 1.08 0 0 2.23 0.72 -2.23 1.07 0 0 4.95zm-1.08 -6.03l0.52 0c-0.02,0.27 -0.1,0.5 -0.25,0.67 -0.15,0.17 -0.36,0.25 -0.62,0.25 -0.27,0 -0.48,-0.08 -0.63,-0.25 -0.15,-0.17 -0.23,-0.4 -0.24,-0.67l0.52 0c0.03,0.28 0.14,0.42 0.35,0.42 0.21,0 0.32,-0.14 0.35,-0.42zm4.19 1.08l0 0.99 -0.76 0 0 3.96 -1.29 0 0 -3.96 -0.76 0 0 -0.99 2.81 0zm0.29 0l2.15 0 0 0.99 -0.86 0 0 0.94 0.8 0 0 0.94 -0.8 0 0 1.09 0.95 0 0 0.99 -2.24 0 0 -4.95zm6.64 2.9c0,0.5 -0.01,0.85 -0.03,1.06 -0.03,0.2 -0.1,0.39 -0.22,0.56 -0.13,0.17 -0.29,0.31 -0.5,0.4 -0.21,0.09 -0.46,0.14 -0.73,0.14 -0.27,0 -0.51,-0.05 -0.72,-0.14 -0.21,-0.08 -0.38,-0.21 -0.5,-0.38 -0.13,-0.18 -0.21,-0.37 -0.23,-0.57 -0.03,-0.2 -0.04,-0.56 -0.04,-1.07l0 -0.85c0,-0.49 0.01,-0.85 0.03,-1.05 0.03,-0.21 0.1,-0.4 0.22,-0.57 0.13,-0.17 0.29,-0.3 0.5,-0.39 0.21,-0.1 0.46,-0.14 0.74,-0.14 0.26,0 0.5,0.04 0.71,0.13 0.21,0.09 0.38,0.21 0.51,0.39 0.12,0.17 0.2,0.36 0.23,0.56 0.02,0.21 0.03,0.56 0.03,1.07l0 0.85zm-1.29 -1.63c0,-0.23 -0.01,-0.37 -0.03,-0.44 -0.03,-0.06 -0.08,-0.09 -0.16,-0.09 -0.06,0 -0.11,0.02 -0.15,0.08 -0.03,0.05 -0.05,0.2 -0.05,0.45l0 2.31c0,0.29 0.01,0.47 0.03,0.54 0.03,0.06 0.08,0.1 0.16,0.1 0.09,0 0.14,-0.04 0.17,-0.12 0.02,-0.08 0.03,-0.26 0.03,-0.55l0 -2.28zm1.78 -1.27l1.28 0 0.01 2.09c0.24,-0.01 0.36,-0.14 0.37,-0.4l0.03 -0.97c0,-0.36 0.07,-0.6 0.2,-0.72l1.19 0c-0.11,0.12 -0.17,0.37 -0.17,0.74l0.01 0.85c0,0.52 -0.29,0.81 -0.87,0.88 0.58,0.07 0.87,0.37 0.87,0.89l-0.01 0.79c0,0.37 0.06,0.64 0.17,0.8l-1.19 0c-0.14,-0.13 -0.2,-0.37 -0.2,-0.72l0 -0.97c0,-0.12 -0.04,-0.22 -0.11,-0.29 -0.08,-0.08 -0.17,-0.12 -0.29,-0.12l-0.01 2.1 -1.28 0 0 -4.95zm6.3 0l0 4.95 -1.28 0 0 -2.08 -0.38 0 0 2.08 -1.29 0 0 -4.95 1.29 0 0 1.77 0.38 0 0 -1.77 1.28 0zm3.46 2.9c0,0.5 -0.01,0.85 -0.04,1.06 -0.02,0.2 -0.09,0.39 -0.21,0.56 -0.13,0.17 -0.29,0.31 -0.5,0.4 -0.21,0.09 -0.46,0.14 -0.74,0.14 -0.26,0 -0.5,-0.05 -0.71,-0.14 -0.21,-0.08 -0.38,-0.21 -0.51,-0.38 -0.12,-0.18 -0.2,-0.37 -0.23,-0.57 -0.02,-0.2 -0.03,-0.56 -0.03,-1.07l0 -0.85c0,-0.49 0.01,-0.85 0.03,-1.05 0.03,-0.21 0.1,-0.4 0.22,-0.57 0.13,-0.17 0.29,-0.3 0.5,-0.39 0.21,-0.1 0.46,-0.14 0.73,-0.14 0.27,0 0.51,0.04 0.72,0.13 0.21,0.09 0.38,0.21 0.5,0.39 0.13,0.17 0.21,0.36 0.23,0.56 0.03,0.21 0.04,0.56 0.04,1.07l0 0.85zm-1.29 -1.63c0,-0.23 -0.01,-0.37 -0.04,-0.44 -0.02,-0.06 -0.07,-0.09 -0.15,-0.09 -0.07,0 -0.12,0.02 -0.15,0.08 -0.04,0.05 -0.05,0.2 -0.05,0.45l0 2.31c0,0.29 0.01,0.47 0.03,0.54 0.02,0.06 0.08,0.1 0.16,0.1 0.09,0 0.14,-0.04 0.17,-0.12 0.02,-0.08 0.03,-0.26 0.03,-0.55l0 -2.28zm-38.09 4.76l1.28 0c0.41,0 0.72,0.03 0.92,0.09 0.21,0.07 0.38,0.2 0.51,0.39 0.13,0.19 0.19,0.5 0.19,0.93 0,0.29 -0.04,0.49 -0.13,0.6 -0.1,0.12 -0.28,0.2 -0.54,0.26 0.3,0.07 0.5,0.18 0.61,0.34 0.1,0.16 0.15,0.39 0.15,0.72l0 0.46c0,0.33 -0.03,0.58 -0.11,0.74 -0.08,0.16 -0.2,0.27 -0.36,0.33 -0.17,0.06 -0.51,0.09 -1.03,0.09l-1.49 0 0 -4.95zm1.29 0.84l0 1.11c0.06,-0.01 0.1,-0.01 0.13,-0.01 0.12,0 0.2,-0.03 0.23,-0.09 0.04,-0.06 0.06,-0.24 0.06,-0.53 0,-0.16 -0.02,-0.27 -0.05,-0.33 -0.02,-0.06 -0.06,-0.1 -0.11,-0.12 -0.04,-0.01 -0.13,-0.02 -0.26,-0.03zm0 1.88l0 1.38c0.18,0 0.29,-0.03 0.34,-0.08 0.05,-0.05 0.08,-0.18 0.08,-0.38l0 -0.46c0,-0.21 -0.03,-0.34 -0.07,-0.39 -0.04,-0.04 -0.16,-0.07 -0.35,-0.07zm3.27 -2.72l1.3 0c0.35,0 0.62,0.03 0.81,0.08 0.18,0.06 0.33,0.14 0.42,0.24 0.1,0.1 0.16,0.23 0.19,0.38 0.04,0.15 0.05,0.37 0.05,0.68l0 0.43c0,0.32 -0.03,0.55 -0.09,0.69 -0.07,0.15 -0.19,0.26 -0.36,0.34 -0.18,0.07 -0.4,0.11 -0.68,0.11l-0.35 0 0 2 -1.29 0 0 -4.95zm1.29 0.84l0 1.27c0.04,0 0.07,0 0.1,0 0.11,0 0.19,-0.03 0.24,-0.09 0.05,-0.06 0.07,-0.18 0.07,-0.36l0 -0.41c0,-0.17 -0.03,-0.28 -0.08,-0.33 -0.05,-0.05 -0.16,-0.08 -0.33,-0.08zm1.85 -0.84l2.15 0 0 0.99 -0.86 0 0 0.94 0.8 0 0 0.94 -0.8 0 0 1.09 0.95 0 0 0.99 -2.24 0 0 -4.95zm4.02 2.82c-0.27,0.01 -0.4,0.12 -0.4,0.35l0 1.3c0,0.18 -0.02,0.3 -0.06,0.37 -0.04,0.07 -0.07,0.11 -0.08,0.11l-1.06 0c0.09,-0.13 0.13,-0.33 0.13,-0.59l0 -1.11c0,-0.24 0.07,-0.42 0.2,-0.54 0.13,-0.13 0.36,-0.22 0.68,-0.27l0 -0.01c-0.58,-0.03 -0.87,-0.3 -0.87,-0.8l0 -1.05c0,-0.26 -0.05,-0.45 -0.14,-0.58l1.07 0c0.03,0.01 0.06,0.06 0.09,0.13 0.03,0.08 0.04,0.19 0.04,0.34l0 1.23c0,0.23 0.14,0.34 0.4,0.35l0 -2.05 1.29 0 0 2.05c0.27,-0.01 0.4,-0.12 0.4,-0.35l0 -1.23c0,-0.17 0.02,-0.29 0.06,-0.36 0.04,-0.07 0.07,-0.11 0.08,-0.11l1.07 0c-0.1,0.13 -0.14,0.32 -0.14,0.58l0 1.05c0,0.5 -0.29,0.77 -0.87,0.8l0 0.01c0.32,0.05 0.54,0.14 0.68,0.27 0.13,0.12 0.19,0.3 0.19,0.54l0 1.11c0,0.26 0.05,0.46 0.14,0.59l-1.06 0c-0.03,-0.01 -0.06,-0.06 -0.09,-0.14 -0.04,-0.08 -0.05,-0.19 -0.05,-0.34l0 -1.3c0,-0.23 -0.14,-0.34 -0.41,-0.35l0 2.13 -1.29 0 0 -2.13zm6.08 2.13l-1.07 0 0 -2.25 -0.67 2.25 -1.12 0 0 -4.95 1.07 0 0 2.23 0.72 -2.23 1.07 0 0 4.95zm4.49 -4.95l0 4.95 -1.13 0 0 -3.34 -0.45 3.34 -0.79 0 -0.47 -3.27 0 3.27 -1.13 0 0 -4.95 1.66 0c0.05,0.3 0.1,0.65 0.16,1.05l0.18 1.26 0.29 -2.31 1.68 0zm0.52 0l2.14 0 0 0.99 -0.85 0 0 0.94 0.8 0 0 0.94 -0.8 0 0 1.09 0.94 0 0 0.99 -2.23 0 0 -4.95zm6.65 4.95l-1.28 0 0 -3.96 -0.38 0 0 3.96 -1.29 0 0 -4.95 2.95 0 0 4.95zm0.52 -4.95l1.3 0c0.35,0 0.62,0.03 0.81,0.08 0.19,0.06 0.33,0.14 0.42,0.24 0.1,0.1 0.16,0.23 0.2,0.38 0.03,0.15 0.05,0.37 0.05,0.68l0 0.43c0,0.32 -0.04,0.55 -0.1,0.69 -0.07,0.15 -0.19,0.26 -0.36,0.34 -0.17,0.07 -0.4,0.11 -0.68,0.11l-0.35 0 0 2 -1.29 0 0 -4.95zm1.29 0.84l0 1.27c0.04,0 0.07,0 0.1,0 0.12,0 0.2,-0.03 0.24,-0.09 0.05,-0.06 0.07,-0.18 0.07,-0.36l0 -0.41c0,-0.17 -0.03,-0.28 -0.08,-0.33 -0.05,-0.05 -0.16,-0.08 -0.33,-0.08zm4.79 2.06c0,0.5 -0.01,0.85 -0.03,1.06 -0.03,0.2 -0.1,0.39 -0.22,0.56 -0.13,0.18 -0.29,0.31 -0.5,0.4 -0.21,0.09 -0.46,0.14 -0.73,0.14 -0.27,0 -0.51,-0.05 -0.72,-0.13 -0.21,-0.09 -0.38,-0.22 -0.51,-0.39 -0.12,-0.18 -0.2,-0.37 -0.22,-0.57 -0.03,-0.2 -0.04,-0.56 -0.04,-1.07l0 -0.85c0,-0.49 0.01,-0.84 0.03,-1.05 0.03,-0.21 0.1,-0.4 0.22,-0.57 0.13,-0.17 0.29,-0.3 0.5,-0.39 0.21,-0.09 0.46,-0.14 0.74,-0.14 0.26,0 0.5,0.04 0.71,0.13 0.21,0.09 0.38,0.22 0.51,0.39 0.12,0.17 0.2,0.36 0.23,0.56 0.02,0.21 0.03,0.57 0.03,1.07l0 0.85zm-1.29 -1.62c0,-0.23 -0.01,-0.38 -0.04,-0.45 -0.02,-0.06 -0.07,-0.09 -0.15,-0.09 -0.06,0 -0.11,0.02 -0.15,0.08 -0.03,0.05 -0.05,0.2 -0.05,0.46l0 2.31c0,0.28 0.01,0.46 0.03,0.53 0.03,0.06 0.08,0.1 0.16,0.1 0.09,0 0.14,-0.04 0.17,-0.12 0.02,-0.08 0.03,-0.26 0.03,-0.55l0 -2.27zm1.78 -1.28l1.28 0c0.4,0 0.71,0.03 0.92,0.09 0.2,0.07 0.37,0.2 0.5,0.39 0.13,0.19 0.19,0.5 0.19,0.93 0,0.29 -0.04,0.49 -0.13,0.6 -0.09,0.12 -0.27,0.2 -0.54,0.26 0.3,0.07 0.5,0.18 0.61,0.34 0.1,0.16 0.16,0.39 0.16,0.72l0 0.46c0,0.33 -0.04,0.58 -0.12,0.74 -0.07,0.16 -0.2,0.27 -0.36,0.33 -0.17,0.06 -0.51,0.09 -1.03,0.09l-1.48 0 0 -4.95zm1.28 0.84l0 1.11c0.06,-0.01 0.1,-0.01 0.13,-0.01 0.12,0 0.2,-0.03 0.24,-0.09 0.03,-0.06 0.05,-0.24 0.05,-0.53 0,-0.16 -0.02,-0.27 -0.04,-0.33 -0.03,-0.06 -0.07,-0.1 -0.11,-0.12 -0.05,-0.01 -0.14,-0.02 -0.27,-0.03zm0 1.88l0 1.38c0.18,0 0.3,-0.03 0.34,-0.08 0.05,-0.05 0.08,-0.18 0.08,-0.38l0 -0.46c0,-0.21 -0.02,-0.34 -0.07,-0.39 -0.04,-0.04 -0.16,-0.07 -0.35,-0.07zm2.17 -2.72l2.15 0 0 0.99 -0.86 0 0 0.94 0.8 0 0 0.94 -0.8 0 0 1.09 0.94 0 0 0.99 -2.23 0 0 -4.95zm5.19 0l0 0.99 -0.76 0 0 3.96 -1.28 0 0 -3.96 -0.77 0 0 -0.99 2.81 0zm0.3 0l1.29 0c0.35,0 0.62,0.03 0.81,0.08 0.19,0.06 0.33,0.14 0.43,0.24 0.09,0.1 0.15,0.23 0.19,0.38 0.03,0.15 0.05,0.37 0.05,0.68l0 0.43c0,0.32 -0.03,0.55 -0.1,0.69 -0.06,0.15 -0.18,0.26 -0.36,0.34 -0.17,0.07 -0.4,0.11 -0.68,0.11l-0.34 0 0 2 -1.29 0 0 -4.95zm1.29 0.84l0 1.27c0.03,0 0.06,0 0.09,0 0.12,0 0.2,-0.03 0.24,-0.09 0.05,-0.06 0.07,-0.18 0.07,-0.36l0 -0.41c0,-0.17 -0.02,-0.28 -0.08,-0.33 -0.05,-0.05 -0.16,-0.08 -0.32,-0.08zm4.71 4.11l-1.07 0 0 -2.25 -0.67 2.25 -1.12 0 0 -4.95 1.07 0 0 2.23 0.72 -2.23 1.07 0 0 4.95zm0.52 -4.95l1.28 0c0.41,0 0.72,0.03 0.92,0.09 0.21,0.07 0.38,0.2 0.51,0.39 0.13,0.19 0.19,0.5 0.19,0.93 0,0.29 -0.04,0.49 -0.14,0.6 -0.09,0.12 -0.27,0.2 -0.53,0.26 0.3,0.07 0.5,0.18 0.6,0.34 0.11,0.16 0.16,0.39 0.16,0.72l0 0.46c0,0.33 -0.03,0.58 -0.11,0.74 -0.08,0.16 -0.2,0.27 -0.36,0.33 -0.17,0.06 -0.51,0.09 -1.03,0.09l-1.49 0 0 -4.95zm1.29 0.84l0 1.11c0.06,-0.01 0.1,-0.01 0.13,-0.01 0.12,0 0.2,-0.03 0.23,-0.09 0.04,-0.06 0.06,-0.24 0.06,-0.53 0,-0.16 -0.02,-0.27 -0.05,-0.33 -0.02,-0.06 -0.06,-0.1 -0.11,-0.12 -0.04,-0.01 -0.13,-0.02 -0.26,-0.03zm0 1.88l0 1.38c0.18,0 0.29,-0.03 0.34,-0.08 0.05,-0.05 0.08,-0.18 0.08,-0.38l0 -0.46c0,-0.21 -0.03,-0.34 -0.07,-0.39 -0.04,-0.04 -0.16,-0.07 -0.35,-0.07zm4.39 -2.72l0.74 4.95 -1.32 0 -0.07 -0.89 -0.46 0 -0.07 0.89 -1.34 0 0.66 -4.95 1.86 0zm-0.68 3.19c-0.07,-0.57 -0.13,-1.26 -0.2,-2.09 -0.13,0.95 -0.21,1.65 -0.24,2.09l0.44 0zm4.59 -3.19l0 4.95 -1.29 0 0 -2.08 -0.37 0 0 2.08 -1.29 0 0 -4.95 1.29 0 0 1.77 0.37 0 0 -1.77 1.29 0zm3.39 4.95l-1.08 0 0 -2.25 -0.67 2.25 -1.12 0 0 -4.95 1.08 0 0 2.23 0.72 -2.23 1.07 0 0 4.95zm3.38 0l-1.29 0 0 -2.23c-0.16,0 -0.27,0.03 -0.31,0.08 -0.05,0.06 -0.07,0.18 -0.07,0.36l0 1.79 -1.2 0 0 -1.48c0,-0.25 0.01,-0.44 0.04,-0.57 0.03,-0.13 0.09,-0.24 0.19,-0.32 0.1,-0.09 0.26,-0.16 0.48,-0.22 -0.3,-0.02 -0.49,-0.11 -0.58,-0.25 -0.09,-0.14 -0.13,-0.39 -0.13,-0.76 0,-0.33 0.04,-0.59 0.12,-0.77 0.08,-0.19 0.2,-0.32 0.36,-0.41 0.15,-0.08 0.33,-0.13 0.53,-0.14 0.2,-0.02 0.52,-0.03 0.95,-0.03l0.91 0 0 4.95zm-1.29 -3l0 -1.1 -0.06 0c-0.11,0 -0.19,0.02 -0.24,0.07 -0.06,0.05 -0.08,0.15 -0.08,0.31l0 0.27c0,0.19 0.02,0.31 0.06,0.36 0.05,0.06 0.16,0.09 0.32,0.09z"/>
   <path id="1" class="fil22" d="M12.6 61.78c0,0.5 -0.01,0.85 -0.04,1.06 -0.02,0.2 -0.09,0.39 -0.22,0.56 -0.12,0.17 -0.29,0.31 -0.5,0.4 -0.21,0.09 -0.45,0.14 -0.73,0.14 -0.26,0 -0.5,-0.05 -0.71,-0.14 -0.21,-0.08 -0.38,-0.21 -0.51,-0.38 -0.13,-0.18 -0.2,-0.37 -0.23,-0.57 -0.02,-0.2 -0.03,-0.56 -0.03,-1.07l0 -0.85c0,-0.49 0.01,-0.85 0.03,-1.05 0.02,-0.21 0.1,-0.4 0.22,-0.57 0.12,-0.17 0.29,-0.3 0.5,-0.39 0.21,-0.1 0.45,-0.14 0.73,-0.14 0.27,0 0.5,0.04 0.71,0.13 0.22,0.09 0.39,0.21 0.51,0.39 0.13,0.17 0.21,0.36 0.23,0.56 0.03,0.21 0.04,0.56 0.04,1.07l0 0.85zm-1.29 -1.63c0,-0.23 -0.01,-0.37 -0.04,-0.44 -0.02,-0.06 -0.07,-0.09 -0.15,-0.09 -0.07,0 -0.12,0.02 -0.15,0.08 -0.04,0.05 -0.06,0.2 -0.06,0.45l0 2.31c0,0.29 0.02,0.47 0.04,0.54 0.02,0.06 0.08,0.1 0.16,0.1 0.08,0 0.14,-0.04 0.16,-0.12 0.03,-0.08 0.04,-0.26 0.04,-0.55l0 -2.28zm4.36 -1.27l0 0.99 -0.75 0 0 3.96 -1.29 0 0 -3.96 -0.77 0 0 -0.99 2.81 0zm0.3 0l1.29 0 0 2.09c0.24,-0.01 0.36,-0.14 0.37,-0.4l0.03 -0.97c0.01,-0.36 0.07,-0.6 0.2,-0.72l1.19 0c-0.11,0.12 -0.17,0.37 -0.17,0.74l0.01 0.85c0,0.52 -0.29,0.81 -0.87,0.88 0.58,0.07 0.87,0.37 0.87,0.89l-0.01 0.79c0,0.37 0.06,0.64 0.17,0.8l-1.19 0c-0.13,-0.13 -0.2,-0.37 -0.2,-0.72l0 -0.97c0,-0.12 -0.04,-0.22 -0.11,-0.29 -0.08,-0.08 -0.17,-0.12 -0.29,-0.12l0 2.1 -1.29 0 0 -4.95zm3.35 0l1.3 0c0.35,0 0.62,0.03 0.81,0.08 0.18,0.06 0.33,0.14 0.42,0.24 0.1,0.1 0.16,0.23 0.19,0.38 0.04,0.14 0.05,0.37 0.05,0.68l0 0.43c0,0.32 -0.03,0.55 -0.09,0.69 -0.07,0.15 -0.19,0.26 -0.36,0.34 -0.18,0.07 -0.4,0.11 -0.68,0.11l-0.35 0 0 2 -1.29 0 0 -4.95zm1.29 0.84l0 1.26c0.04,0.01 0.07,0.01 0.1,0.01 0.11,0 0.19,-0.03 0.24,-0.09 0.05,-0.06 0.07,-0.18 0.07,-0.36l0 -0.41c0,-0.17 -0.03,-0.28 -0.08,-0.33 -0.05,-0.05 -0.16,-0.08 -0.33,-0.08zm4.79 2.06c0,0.5 -0.01,0.85 -0.04,1.06 -0.02,0.2 -0.09,0.39 -0.22,0.56 -0.12,0.17 -0.29,0.31 -0.5,0.4 -0.2,0.09 -0.45,0.14 -0.73,0.14 -0.26,0 -0.5,-0.05 -0.71,-0.14 -0.21,-0.08 -0.38,-0.21 -0.51,-0.38 -0.13,-0.18 -0.2,-0.37 -0.23,-0.57 -0.02,-0.2 -0.03,-0.56 -0.03,-1.07l0 -0.85c0,-0.49 0.01,-0.85 0.03,-1.05 0.02,-0.21 0.1,-0.4 0.22,-0.57 0.12,-0.17 0.29,-0.3 0.5,-0.39 0.21,-0.1 0.45,-0.14 0.73,-0.14 0.27,0 0.5,0.04 0.71,0.13 0.22,0.09 0.39,0.21 0.51,0.39 0.13,0.17 0.21,0.36 0.23,0.56 0.03,0.21 0.04,0.56 0.04,1.07l0 0.85zm-1.29 -1.63c0,-0.23 -0.01,-0.37 -0.04,-0.44 -0.02,-0.06 -0.07,-0.09 -0.15,-0.09 -0.07,0 -0.12,0.02 -0.15,0.08 -0.04,0.05 -0.05,0.2 -0.05,0.45l0 2.31c0,0.29 0.01,0.47 0.03,0.54 0.02,0.06 0.08,0.1 0.16,0.1 0.09,0 0.14,-0.04 0.16,-0.12 0.03,-0.08 0.04,-0.26 0.04,-0.55l0 -2.28zm4.64 3.68l-1.08 0 0 -2.25 -0.67 2.25 -1.12 0 0 -4.95 1.08 0 0 2.23 0.72 -2.23 1.07 0 0 4.95zm-1.08 -6.03l0.52 0c-0.02,0.27 -0.1,0.5 -0.25,0.67 -0.15,0.17 -0.36,0.25 -0.62,0.25 -0.27,0 -0.48,-0.08 -0.63,-0.25 -0.15,-0.17 -0.23,-0.4 -0.24,-0.67l0.52 0c0.03,0.28 0.14,0.42 0.35,0.42 0.21,0 0.32,-0.14 0.35,-0.42zm4.19 1.08l0 0.99 -0.76 0 0 3.96 -1.29 0 0 -3.96 -0.76 0 0 -0.99 2.81 0zm0.29 0l2.15 0 0 0.99 -0.86 0 0 0.94 0.8 0 0 0.94 -0.8 0 0 1.09 0.95 0 0 0.99 -2.24 0 0 -4.95zm6.64 2.9c0,0.5 -0.01,0.85 -0.03,1.06 -0.03,0.2 -0.1,0.39 -0.22,0.56 -0.13,0.17 -0.29,0.31 -0.5,0.4 -0.21,0.09 -0.46,0.14 -0.73,0.14 -0.27,0 -0.51,-0.05 -0.72,-0.14 -0.21,-0.08 -0.38,-0.21 -0.5,-0.38 -0.13,-0.18 -0.21,-0.37 -0.23,-0.57 -0.03,-0.2 -0.04,-0.56 -0.04,-1.07l0 -0.85c0,-0.49 0.01,-0.85 0.03,-1.05 0.03,-0.21 0.1,-0.4 0.22,-0.57 0.13,-0.17 0.29,-0.3 0.5,-0.39 0.21,-0.1 0.46,-0.14 0.74,-0.14 0.26,0 0.5,0.04 0.71,0.13 0.21,0.09 0.38,0.21 0.51,0.39 0.12,0.17 0.2,0.36 0.23,0.56 0.02,0.21 0.03,0.56 0.03,1.07l0 0.85zm-1.29 -1.63c0,-0.23 -0.01,-0.37 -0.03,-0.44 -0.03,-0.06 -0.08,-0.09 -0.16,-0.09 -0.06,0 -0.11,0.02 -0.15,0.08 -0.03,0.05 -0.05,0.2 -0.05,0.45l0 2.31c0,0.29 0.01,0.47 0.03,0.54 0.03,0.06 0.08,0.1 0.16,0.1 0.09,0 0.14,-0.04 0.17,-0.12 0.02,-0.08 0.03,-0.26 0.03,-0.55l0 -2.28zm1.78 -1.27l1.28 0 0.01 2.09c0.24,-0.01 0.36,-0.14 0.37,-0.4l0.03 -0.97c0,-0.36 0.07,-0.6 0.2,-0.72l1.19 0c-0.11,0.12 -0.17,0.37 -0.17,0.74l0.01 0.85c0,0.52 -0.29,0.81 -0.87,0.88 0.58,0.07 0.87,0.37 0.87,0.89l-0.01 0.79c0,0.37 0.06,0.64 0.17,0.8l-1.19 0c-0.14,-0.13 -0.2,-0.37 -0.2,-0.72l0 -0.97c0,-0.12 -0.04,-0.22 -0.11,-0.29 -0.08,-0.08 -0.17,-0.12 -0.29,-0.12l-0.01 2.1 -1.28 0 0 -4.95zm6.3 0l0 4.95 -1.28 0 0 -2.08 -0.38 0 0 2.08 -1.29 0 0 -4.95 1.29 0 0 1.77 0.38 0 0 -1.77 1.28 0zm3.46 2.9c0,0.5 -0.01,0.85 -0.04,1.06 -0.02,0.2 -0.09,0.39 -0.21,0.56 -0.13,0.17 -0.29,0.31 -0.5,0.4 -0.21,0.09 -0.46,0.14 -0.74,0.14 -0.26,0 -0.5,-0.05 -0.71,-0.14 -0.21,-0.08 -0.38,-0.21 -0.51,-0.38 -0.12,-0.18 -0.2,-0.37 -0.23,-0.57 -0.02,-0.2 -0.03,-0.56 -0.03,-1.07l0 -0.85c0,-0.49 0.01,-0.85 0.03,-1.05 0.03,-0.21 0.1,-0.4 0.22,-0.57 0.13,-0.17 0.29,-0.3 0.5,-0.39 0.21,-0.1 0.46,-0.14 0.73,-0.14 0.27,0 0.51,0.04 0.72,0.13 0.21,0.09 0.38,0.21 0.5,0.39 0.13,0.17 0.21,0.36 0.23,0.56 0.03,0.21 0.04,0.56 0.04,1.07l0 0.85zm-1.29 -1.63c0,-0.23 -0.01,-0.37 -0.04,-0.44 -0.02,-0.06 -0.07,-0.09 -0.15,-0.09 -0.07,0 -0.12,0.02 -0.15,0.08 -0.04,0.05 -0.05,0.2 -0.05,0.45l0 2.31c0,0.29 0.01,0.47 0.03,0.54 0.02,0.06 0.08,0.1 0.16,0.1 0.09,0 0.14,-0.04 0.17,-0.12 0.02,-0.08 0.03,-0.26 0.03,-0.55l0 -2.28zm-38.09 4.76l1.28 0c0.41,0 0.72,0.03 0.92,0.09 0.21,0.07 0.38,0.2 0.51,0.39 0.13,0.19 0.19,0.5 0.19,0.93 0,0.29 -0.04,0.49 -0.13,0.6 -0.1,0.12 -0.28,0.2 -0.54,0.26 0.3,0.07 0.5,0.18 0.61,0.34 0.1,0.16 0.15,0.39 0.15,0.72l0 0.46c0,0.33 -0.03,0.58 -0.11,0.74 -0.08,0.16 -0.2,0.27 -0.36,0.33 -0.17,0.06 -0.51,0.09 -1.03,0.09l-1.49 0 0 -4.95zm1.29 0.84l0 1.11c0.06,-0.01 0.1,-0.01 0.13,-0.01 0.12,0 0.2,-0.03 0.23,-0.09 0.04,-0.06 0.06,-0.24 0.06,-0.53 0,-0.16 -0.02,-0.27 -0.05,-0.33 -0.02,-0.06 -0.06,-0.1 -0.11,-0.12 -0.04,-0.01 -0.13,-0.02 -0.26,-0.03zm0 1.88l0 1.38c0.18,0 0.29,-0.03 0.34,-0.08 0.05,-0.05 0.08,-0.18 0.08,-0.38l0 -0.46c0,-0.21 -0.03,-0.34 -0.07,-0.39 -0.04,-0.04 -0.16,-0.07 -0.35,-0.07zm3.27 -2.72l1.3 0c0.35,0 0.62,0.03 0.81,0.08 0.18,0.06 0.33,0.14 0.42,0.24 0.1,0.1 0.16,0.23 0.19,0.38 0.04,0.15 0.05,0.37 0.05,0.68l0 0.43c0,0.32 -0.03,0.55 -0.09,0.69 -0.07,0.15 -0.19,0.26 -0.36,0.34 -0.18,0.07 -0.4,0.11 -0.68,0.11l-0.35 0 0 2 -1.29 0 0 -4.95zm1.29 0.84l0 1.27c0.04,0 0.07,0 0.1,0 0.11,0 0.19,-0.03 0.24,-0.09 0.05,-0.06 0.07,-0.18 0.07,-0.36l0 -0.41c0,-0.17 -0.03,-0.28 -0.08,-0.33 -0.05,-0.05 -0.16,-0.08 -0.33,-0.08zm1.85 -0.84l2.15 0 0 0.99 -0.86 0 0 0.94 0.8 0 0 0.94 -0.8 0 0 1.09 0.95 0 0 0.99 -2.24 0 0 -4.95zm4.02 2.82c-0.27,0.01 -0.4,0.12 -0.4,0.35l0 1.3c0,0.18 -0.02,0.3 -0.06,0.37 -0.04,0.07 -0.07,0.11 -0.08,0.11l-1.06 0c0.09,-0.13 0.13,-0.33 0.13,-0.59l0 -1.11c0,-0.24 0.07,-0.42 0.2,-0.54 0.13,-0.13 0.36,-0.22 0.68,-0.27l0 -0.01c-0.58,-0.03 -0.87,-0.3 -0.87,-0.8l0 -1.05c0,-0.26 -0.05,-0.45 -0.14,-0.58l1.07 0c0.03,0.01 0.06,0.06 0.09,0.13 0.03,0.08 0.04,0.19 0.04,0.34l0 1.23c0,0.23 0.14,0.34 0.4,0.35l0 -2.05 1.29 0 0 2.05c0.27,-0.01 0.4,-0.12 0.4,-0.35l0 -1.23c0,-0.17 0.02,-0.29 0.06,-0.36 0.04,-0.07 0.07,-0.11 0.08,-0.11l1.07 0c-0.1,0.13 -0.14,0.32 -0.14,0.58l0 1.05c0,0.5 -0.29,0.77 -0.87,0.8l0 0.01c0.32,0.05 0.54,0.14 0.68,0.27 0.13,0.12 0.19,0.3 0.19,0.54l0 1.11c0,0.26 0.05,0.46 0.14,0.59l-1.06 0c-0.03,-0.01 -0.06,-0.06 -0.09,-0.14 -0.04,-0.08 -0.05,-0.19 -0.05,-0.34l0 -1.3c0,-0.23 -0.14,-0.34 -0.41,-0.35l0 2.13 -1.29 0 0 -2.13zm6.08 2.13l-1.07 0 0 -2.25 -0.67 2.25 -1.12 0 0 -4.95 1.07 0 0 2.23 0.72 -2.23 1.07 0 0 4.95zm4.49 -4.95l0 4.95 -1.13 0 0 -3.34 -0.45 3.34 -0.79 0 -0.47 -3.27 0 3.27 -1.13 0 0 -4.95 1.66 0c0.05,0.3 0.1,0.65 0.16,1.05l0.18 1.26 0.29 -2.31 1.68 0zm0.52 0l2.14 0 0 0.99 -0.85 0 0 0.94 0.8 0 0 0.94 -0.8 0 0 1.09 0.94 0 0 0.99 -2.23 0 0 -4.95zm6.65 4.95l-1.28 0 0 -3.96 -0.38 0 0 3.96 -1.29 0 0 -4.95 2.95 0 0 4.95zm0.52 -4.95l1.3 0c0.35,0 0.62,0.03 0.81,0.08 0.19,0.06 0.33,0.14 0.42,0.24 0.1,0.1 0.16,0.23 0.2,0.38 0.03,0.15 0.05,0.37 0.05,0.68l0 0.43c0,0.32 -0.04,0.55 -0.1,0.69 -0.07,0.15 -0.19,0.26 -0.36,0.34 -0.17,0.07 -0.4,0.11 -0.68,0.11l-0.35 0 0 2 -1.29 0 0 -4.95zm1.29 0.84l0 1.27c0.04,0 0.07,0 0.1,0 0.12,0 0.2,-0.03 0.24,-0.09 0.05,-0.06 0.07,-0.18 0.07,-0.36l0 -0.41c0,-0.17 -0.03,-0.28 -0.08,-0.33 -0.05,-0.05 -0.16,-0.08 -0.33,-0.08zm4.79 2.06c0,0.5 -0.01,0.85 -0.03,1.06 -0.03,0.2 -0.1,0.39 -0.22,0.56 -0.13,0.18 -0.29,0.31 -0.5,0.4 -0.21,0.09 -0.46,0.14 -0.73,0.14 -0.27,0 -0.51,-0.05 -0.72,-0.13 -0.21,-0.09 -0.38,-0.22 -0.51,-0.39 -0.12,-0.18 -0.2,-0.37 -0.22,-0.57 -0.03,-0.2 -0.04,-0.56 -0.04,-1.07l0 -0.85c0,-0.49 0.01,-0.84 0.03,-1.05 0.03,-0.21 0.1,-0.4 0.22,-0.57 0.13,-0.17 0.29,-0.3 0.5,-0.39 0.21,-0.09 0.46,-0.14 0.74,-0.14 0.26,0 0.5,0.04 0.71,0.13 0.21,0.09 0.38,0.22 0.51,0.39 0.12,0.17 0.2,0.36 0.23,0.56 0.02,0.21 0.03,0.57 0.03,1.07l0 0.85zm-1.29 -1.62c0,-0.23 -0.01,-0.38 -0.04,-0.45 -0.02,-0.06 -0.07,-0.09 -0.15,-0.09 -0.06,0 -0.11,0.02 -0.15,0.08 -0.03,0.05 -0.05,0.2 -0.05,0.46l0 2.31c0,0.28 0.01,0.46 0.03,0.53 0.03,0.06 0.08,0.1 0.16,0.1 0.09,0 0.14,-0.04 0.17,-0.12 0.02,-0.08 0.03,-0.26 0.03,-0.55l0 -2.27zm1.78 -1.28l1.28 0c0.4,0 0.71,0.03 0.92,0.09 0.2,0.07 0.37,0.2 0.5,0.39 0.13,0.19 0.19,0.5 0.19,0.93 0,0.29 -0.04,0.49 -0.13,0.6 -0.09,0.12 -0.27,0.2 -0.54,0.26 0.3,0.07 0.5,0.18 0.61,0.34 0.1,0.16 0.16,0.39 0.16,0.72l0 0.46c0,0.33 -0.04,0.58 -0.12,0.74 -0.07,0.16 -0.2,0.27 -0.36,0.33 -0.17,0.06 -0.51,0.09 -1.03,0.09l-1.48 0 0 -4.95zm1.28 0.84l0 1.11c0.06,-0.01 0.1,-0.01 0.13,-0.01 0.12,0 0.2,-0.03 0.24,-0.09 0.03,-0.06 0.05,-0.24 0.05,-0.53 0,-0.16 -0.02,-0.27 -0.04,-0.33 -0.03,-0.06 -0.07,-0.1 -0.11,-0.12 -0.05,-0.01 -0.14,-0.02 -0.27,-0.03zm0 1.88l0 1.38c0.18,0 0.3,-0.03 0.34,-0.08 0.05,-0.05 0.08,-0.18 0.08,-0.38l0 -0.46c0,-0.21 -0.02,-0.34 -0.07,-0.39 -0.04,-0.04 -0.16,-0.07 -0.35,-0.07zm2.17 -2.72l2.15 0 0 0.99 -0.86 0 0 0.94 0.8 0 0 0.94 -0.8 0 0 1.09 0.94 0 0 0.99 -2.23 0 0 -4.95zm5.19 0l0 0.99 -0.76 0 0 3.96 -1.28 0 0 -3.96 -0.77 0 0 -0.99 2.81 0zm0.3 0l1.29 0c0.35,0 0.62,0.03 0.81,0.08 0.19,0.06 0.33,0.14 0.43,0.24 0.09,0.1 0.15,0.23 0.19,0.38 0.03,0.15 0.05,0.37 0.05,0.68l0 0.43c0,0.32 -0.03,0.55 -0.1,0.69 -0.06,0.15 -0.18,0.26 -0.36,0.34 -0.17,0.07 -0.4,0.11 -0.68,0.11l-0.34 0 0 2 -1.29 0 0 -4.95zm1.29 0.84l0 1.27c0.03,0 0.06,0 0.09,0 0.12,0 0.2,-0.03 0.24,-0.09 0.05,-0.06 0.07,-0.18 0.07,-0.36l0 -0.41c0,-0.17 -0.02,-0.28 -0.08,-0.33 -0.05,-0.05 -0.16,-0.08 -0.32,-0.08zm4.71 4.11l-1.07 0 0 -2.25 -0.67 2.25 -1.12 0 0 -4.95 1.07 0 0 2.23 0.72 -2.23 1.07 0 0 4.95zm0.52 -4.95l1.28 0c0.41,0 0.72,0.03 0.92,0.09 0.21,0.07 0.38,0.2 0.51,0.39 0.13,0.19 0.19,0.5 0.19,0.93 0,0.29 -0.04,0.49 -0.14,0.6 -0.09,0.12 -0.27,0.2 -0.53,0.26 0.3,0.07 0.5,0.18 0.6,0.34 0.11,0.16 0.16,0.39 0.16,0.72l0 0.46c0,0.33 -0.03,0.58 -0.11,0.74 -0.08,0.16 -0.2,0.27 -0.36,0.33 -0.17,0.06 -0.51,0.09 -1.03,0.09l-1.49 0 0 -4.95zm1.29 0.84l0 1.11c0.06,-0.01 0.1,-0.01 0.13,-0.01 0.12,0 0.2,-0.03 0.23,-0.09 0.04,-0.06 0.06,-0.24 0.06,-0.53 0,-0.16 -0.02,-0.27 -0.05,-0.33 -0.02,-0.06 -0.06,-0.1 -0.11,-0.12 -0.04,-0.01 -0.13,-0.02 -0.26,-0.03zm0 1.88l0 1.38c0.18,0 0.29,-0.03 0.34,-0.08 0.05,-0.05 0.08,-0.18 0.08,-0.38l0 -0.46c0,-0.21 -0.03,-0.34 -0.07,-0.39 -0.04,-0.04 -0.16,-0.07 -0.35,-0.07zm4.39 -2.72l0.74 4.95 -1.32 0 -0.07 -0.89 -0.46 0 -0.07 0.89 -1.34 0 0.66 -4.95 1.86 0zm-0.68 3.19c-0.07,-0.57 -0.13,-1.26 -0.2,-2.09 -0.13,0.95 -0.21,1.65 -0.24,2.09l0.44 0zm4.59 -3.19l0 4.95 -1.29 0 0 -2.08 -0.37 0 0 2.08 -1.29 0 0 -4.95 1.29 0 0 1.77 0.37 0 0 -1.77 1.29 0zm3.39 4.95l-1.08 0 0 -2.25 -0.67 2.25 -1.12 0 0 -4.95 1.08 0 0 2.23 0.72 -2.23 1.07 0 0 4.95zm3.38 0l-1.29 0 0 -2.23c-0.16,0 -0.27,0.03 -0.31,0.08 -0.05,0.06 -0.07,0.18 -0.07,0.36l0 1.79 -1.2 0 0 -1.48c0,-0.25 0.01,-0.44 0.04,-0.57 0.03,-0.13 0.09,-0.24 0.19,-0.32 0.1,-0.09 0.26,-0.16 0.48,-0.22 -0.3,-0.02 -0.49,-0.11 -0.58,-0.25 -0.09,-0.14 -0.13,-0.39 -0.13,-0.76 0,-0.33 0.04,-0.59 0.12,-0.77 0.08,-0.19 0.2,-0.32 0.36,-0.41 0.15,-0.08 0.33,-0.13 0.53,-0.14 0.2,-0.02 0.52,-0.03 0.95,-0.03l0.91 0 0 4.95zm-1.29 -3l0 -1.1 -0.06 0c-0.11,0 -0.19,0.02 -0.24,0.07 -0.06,0.05 -0.08,0.15 -0.08,0.31l0 0.27c0,0.19 0.02,0.31 0.06,0.36 0.05,0.06 0.16,0.09 0.32,0.09z"/>
  </g>
 </g>
</svg>
