<?xml version="1.0" encoding="UTF-8"?>
<!DOCTYPE svg PUBLIC "-//W3C//DTD SVG 1.1//EN" "http://www.w3.org/Graphics/SVG/1.1/DTD/svg11.dtd">
<!-- Creator: CorelDRAW 2019 (64-Bit) -->
<svg xmlns="http://www.w3.org/2000/svg" xml:space="preserve" width="663px" height="526px" version="1.1" style="shape-rendering:geometricPrecision; text-rendering:geometricPrecision; image-rendering:optimizeQuality; fill-rule:evenodd; clip-rule:evenodd"
viewBox="0 0 132.77 105.36"
 xmlns:xlink="http://www.w3.org/1999/xlink"
 xmlns:xodm="http://www.corel.com/coreldraw/odm/2003">
 <defs>
  <style type="text/css">
   <![CDATA[
    .str0 {stroke:#00A0E3;stroke-width:3.21;stroke-linejoin:round;stroke-miterlimit:22.9256}
    .fil19 {fill:none;fill-rule:nonzero}
    .fil0 {fill:#00A0E3}
    .fil14 {fill:#448CCB}
    .fil8 {fill:#4585C7}
    .fil13 {fill:#478CCD}
    .fil11 {fill:#4A8BCA}
    .fil9 {fill:#5894CB}
    .fil1 {fill:#98D1F6}
    .fil17 {fill:#CC9363}
    .fil18 {fill:#D3925C}
    .fil3 {fill:#DD8D46}
    .fil7 {fill:#DE8D49}
    .fil4 {fill:#E28B45}
    .fil16 {fill:#F4F8EB}
    .fil12 {fill:#F4FCFB}
    .fil6 {fill:#F5FDF4}
    .fil10 {fill:#FAFBF5}
    .fil5 {fill:#FAFEFA}
    .fil15 {fill:#FDF5EA}
    .fil2 {fill:#FEFDFE}
    .fil20 {fill:white;fill-rule:nonzero}
   ]]>
  </style>
 </defs>
 <g id="Слой_x0020_1">
  <metadata id="CorelCorpID_0Corel-Layer"/>
  <path class="fil0" d="M16.28 72.79l100.21 0c8.96,0 16.28,7.32 16.28,16.28l0 0c0,8.96 -7.32,16.29 -16.28,16.29l-100.21 0c-8.95,0 -16.28,-7.33 -16.28,-16.29l0 0c0,-8.96 7.33,-16.28 16.28,-16.28z"/>
  <g id="_1639123105664">
   <path class="fil1" d="M35.43 12.5l0.01 1.06c-1.14,0.29 -8.97,0.21 -10.47,0.07l0.02 -1.22c1.44,-0.11 9.45,-0.21 10.44,0.09zm-10.43 -2.83l10.43 0.11 0.02 1.2 -10.49 -0.01 0.04 -1.3zm4.62 -2.65l5.27 0.03c0.53,0.1 0.22,0.01 0.53,0.17l-0.01 0.83c-0.27,0.17 -0.12,0.11 -0.51,0.21l-3.63 0.05c-1.36,0 -2.77,0.1 -4.12,-0.07 -1.42,0.11 -8.61,5.25 -9.55,6.58 5.65,0.37 22.87,-0.4 25.79,0.1 1.81,0.31 2.67,1.82 2.67,3.9l0 19.72 0.14 0.01 0.03 -0.76 -0.04 -2.62 0.07 -0.63 0.12 -1.1c4.24,-1.47 5.07,-0.99 8.83,-4.43 7.75,-7.07 21.39,-7.24 28.73,0.16 3.28,3.31 6.5,7.99 6.73,13.49 0.09,2.15 0,1.13 0.76,2.46 1.37,2.4 0.55,5.47 -1.63,7.27 -2.71,2.25 -2.51,-0.06 -3.91,2.66 -0.85,1.66 -1.76,2.8 -2.81,3.94 -0.56,0.61 -1.18,1.14 -1.71,1.58 -0.38,0.32 -0.53,0.44 -0.92,0.69 -0.74,0.49 -0.54,0.14 -0.94,1.06 1.96,0.48 9.16,3.63 9.34,5.75 7.4,-14.96 5.8,-33.17 -4.26,-46.83 -2.73,-3.7 -5.11,-5.94 -8.49,-8.72 -6.19,-5.09 -16.66,-9.33 -24.78,-9.52 -2.87,-0.07 -5.64,-0.09 -8.51,0.13 -2.94,0.22 -7.51,1.54 -10.23,2.55 -1.22,0.46 -2.03,0.42 -2.96,1.34z"/>
   <path class="fil1" d="M53.11 93.13c-0.3,-2.6 0.36,-6.15 0.3,-8.7 -2.11,0.22 -3.28,0.9 -5.75,0.8 -5.21,-0.23 -9.43,-2.5 -12.7,-6.33 -1.08,-1.27 -1.77,-2.16 -2.65,-3.72 -0.6,-1.05 -1.58,-3.68 -2.06,-4.32 -0.55,-0.74 -2.7,-2.4 -3,-3.38 -0.29,-0.93 0.15,-5.42 0.36,-6.17 -1.34,0.47 -5.41,0.18 -7.07,0.18 -6.97,0 -7.11,-0.09 -7.11,-6.81 0,-2.35 0.01,-4.7 0,-7.05 -0.03,-6.25 0.31,-23.67 -0.03,-28.4 -0.48,0.29 -0.15,0.05 -0.58,0.59 -0.12,0.15 -0.18,0.23 -0.27,0.35l-2.06 2.89c-0.02,0.04 -0.06,0.08 -0.08,0.12l-0.61 1.03c-1.22,2.12 -1.89,3.2 -2.95,5.49 -2.62,5.68 -2.56,7.44 -3.7,13.19 -0.48,2.44 -0.23,5.92 -0.16,8.48 0.12,4.94 2.27,12.23 4.46,16.71 0.45,0.93 1.08,1.82 1.5,2.62 2,3.88 6.27,9.03 9.6,11.7 0.97,0.78 1.35,1.16 2.27,1.85 0.74,0.55 1.61,1.37 2.44,1.84 3.24,1.83 4.67,2.87 8.49,4.21 0.93,0.32 1.97,1.02 2.97,1.21 3.62,0.71 5.6,1.78 10.52,1.93 1.59,0.05 7.1,0.12 7.87,-0.31z"/>
   <path class="fil2" d="M25.63 34.78c0.5,-0.23 5.55,-0.16 6.46,-0.13 2.74,0.1 2.55,3.14 1.07,3.73 -0.71,0.29 -5.41,0.2 -6.56,0.15 -2.68,-0.09 -2.62,-2.97 -0.97,-3.75zm-11.42 -16.35l0 29.22 15.08 0.05c-0.35,-0.58 -0.19,-0.37 -0.75,-0.79 -2.66,-2.02 -6.34,-1.58 -7.01,-1.97 0.55,-0.77 2.27,-1.46 3.31,-2.02 1.21,-0.66 2.11,-1.71 3.53,-1.06 3.49,1.6 4.54,4.31 5.38,5 1.3,0.57 -1.01,-0.67 0.39,0.3 0.92,0.63 -0.61,0 0.47,0.25 0.58,0.15 8.9,-0.2 10.6,0.1 0.25,-0.3 0.19,-1 0.19,-1.52 -0.01,-0.63 -0.01,-1.25 -0.01,-1.88 0,-4.52 0.19,-25.69 -0.15,-26.74 -0.75,-2.33 -3.4,-1.83 -5.66,-1.83l-22.52 0c-0.83,0.2 -2.62,2.33 -2.85,2.89z"/>
   <path class="fil3" d="M13.4 19.23c0.46,-0.83 0.16,-0.05 0.81,-0.8 0.23,-0.56 2.02,-2.69 2.85,-2.89 0.21,-0.65 0.07,-0.44 0.54,-0.72 0.94,-1.33 8.13,-6.47 9.55,-6.58l1.14 -0.77c0.5,-0.23 0.83,-0.25 1.33,-0.45 0.93,-0.92 1.74,-0.88 2.96,-1.34 2.72,-1.01 7.29,-2.33 10.23,-2.55 2.87,-0.22 5.64,-0.2 8.51,-0.13 8.12,0.19 18.59,4.43 24.78,9.52 3.38,2.78 5.76,5.02 8.49,8.72 10.06,13.66 11.66,31.87 4.26,46.83 -0.26,0.5 -0.4,0.98 -0.81,1.22 -0.62,2.97 -6.59,9.65 -9.13,12.17 -3.61,3.58 -8.32,6.21 -12.87,8.37 -3.14,1.48 -5.62,1.8 -7.98,2.58 -0.88,0.29 -2.36,0.44 -3.29,0.48l-1.66 0.24c-0.77,0.43 -6.28,0.36 -7.87,0.31 -4.92,-0.15 -6.9,-1.22 -10.52,-1.93 -1,-0.19 -2.04,-0.89 -2.97,-1.21 -3.82,-1.34 -5.25,-2.38 -8.49,-4.21 -0.83,-0.47 -1.7,-1.29 -2.44,-1.84 -0.92,-0.69 -1.3,-1.07 -2.27,-1.85 -3.33,-2.67 -7.6,-7.82 -9.6,-11.7 -0.42,-0.8 -1.05,-1.69 -1.5,-2.62 -2.19,-4.48 -4.34,-11.77 -4.46,-16.71 -0.07,-2.56 -0.32,-6.04 0.16,-8.48 1.14,-5.75 1.08,-7.51 3.7,-13.19 1.06,-2.29 1.73,-3.37 2.95,-5.49l0.61 -1.03c0.02,-0.04 0.06,-0.08 0.08,-0.12l2.06 -2.89c0.09,-0.12 0.15,-0.2 0.27,-0.35 0.43,-0.54 0.1,-0.3 0.58,-0.59zm30.61 -18.94c-8.55,1.13 -10.86,1.75 -18.46,5.43 -4.64,2.24 -10.43,7.07 -13.35,10.57 -4.3,5.14 -6.52,8.65 -9.03,15.03 -1.9,4.84 -3.87,14.97 -2.92,21.18 2.08,13.69 6.28,22.98 16.25,31.8 8.69,7.7 20.76,12.91 35.84,11.73 25.05,-1.97 46.14,-24.39 43.66,-51.96 -1.76,-19.45 -14.39,-34.94 -31.13,-41 -5.91,-2.14 -13.45,-3.75 -20.86,-2.78z"/>
   <path class="fil4" d="M84.3 50.33c0.48,-1.58 3.77,-8.34 5.43,-4.29 1.41,3.45 -3.17,7.09 -5.43,4.29zm-23.8 -5.11c4.57,0.15 6.13,-0.45 9.38,-2.21 1.27,-0.69 2.35,-1.58 3.25,-2.48 0.54,-0.54 0.98,-0.88 1.42,-1.46 0.39,-0.51 0.79,-1.48 1.27,-1.74 1.07,2.32 -0.1,1.86 3,5.99 2.07,2.76 1.76,2.99 2.19,7.1 0.97,0.26 1.48,-0.04 2.27,0.15 0.42,0.1 1.06,0.64 1.61,1 0,1.47 -2.08,4.2 -2.99,5.19 -7.99,8.73 -21.66,7.59 -28.16,-1.24 -2.34,-3.17 -4.04,-8.55 -2.75,-13.42 2.15,-0.04 3.43,0.92 5.18,1.04 2.18,0.15 3.94,0.1 6.1,0.05l-0.84 0.9c-0.06,0.05 -0.44,0.34 -0.46,0.36 -0.35,0.38 -0.28,0.15 -0.47,0.77zm-14.24 -10.68l-0.07 0.63c0.56,0.16 4.38,1.84 4.77,2.31 -1.41,0.74 -3.05,0.41 -4.73,0.31l-0.03 0.76c0.75,0.5 1.31,1.12 2.07,1.65 0.81,0.55 1.23,0.7 2.16,1.21 0.03,0.98 -0.43,2.45 -0.46,3.94 -0.03,1.58 0.09,2.51 0.36,3.92 1.23,6.22 6.37,11.74 12.62,13.28l0.5 0.24 0.8 0.04c0.8,0.09 0.42,-0.05 0.63,0.27 3.34,0.14 4.7,0.35 7.89,-0.31l0.52 -0.03c0.63,-0.36 1.02,-0.42 1.76,-0.4l0.37 -0.05c0.25,-0.76 -0.23,-0.09 1.45,-0.95l3.18 -1.97c2.16,-1.5 4.24,-4.76 5.59,-7.49 2.51,-0.27 3.41,-0.57 4.47,-2.51 1.09,-2 0.32,-3.96 -1.12,-5.05 -0.44,-3.71 -0.1,-4.16 -1.51,-7.41 -2.62,-6.07 -8.11,-10.92 -15.29,-11.74 -5.44,-0.63 -10.02,0.91 -13.91,3.46 -4.45,2.92 -5.27,5.13 -12.02,5.89z"/>
   <path class="fil5" d="M67.01 57.52c-1.17,0.32 -5.53,0.82 -6.11,-0.52 0.3,-0.36 1.82,0.21 2.77,0.24l2.65 -0.2c0.77,0.15 0.23,-0.08 0.69,0.48zm2.71 -10.32c0.48,-0.54 -0.17,-0.74 0.17,-1.35 2.8,-0.75 3.92,2.57 2.17,3.96 -1.75,1.4 -4.27,-0.07 -3.48,-3.01 0.72,0.17 0.67,0.92 1.14,0.4zm-15.07 -0.33c1.31,-0.11 -0.34,0.44 1.3,0.32 0.06,-0.99 -0.95,-1.23 0.42,-1.46 2.02,-0.34 3.38,2.08 2.13,3.65 -1.6,2.05 -4.97,0.39 -3.85,-2.51zm13.97 -1.93c0.28,-0.75 2.29,-1.54 3.14,-1.44 0.23,0.02 2.45,0.9 2.56,1.98 -1.2,0 -1.71,-1.33 -2.73,-1.3 -0.95,0.02 -2.21,1.23 -2.97,0.76zm-8.12 0.28c0.19,-0.62 0.12,-0.39 0.47,-0.77 0.02,-0.02 0.4,-0.31 0.46,-0.36l0.84 -0.9c-2.16,0.05 -3.92,0.1 -6.1,-0.05 -1.75,-0.12 -3.03,-1.08 -5.18,-1.04 -1.29,4.87 0.41,10.25 2.75,13.42 6.5,8.83 20.17,9.97 28.16,1.24 0.91,-0.99 2.99,-3.72 2.99,-5.19 -0.55,-0.36 -1.19,-0.9 -1.61,-1 -0.79,-0.19 -1.3,0.11 -2.27,-0.15 -0.43,-4.11 -0.12,-4.34 -2.19,-7.1 -3.1,-4.13 -1.93,-3.67 -3,-5.99 -0.48,0.26 -0.88,1.23 -1.27,1.74 -0.44,0.58 -0.88,0.92 -1.42,1.46 -0.9,0.9 -1.98,1.79 -3.25,2.48 -3.25,1.76 -4.81,2.36 -9.38,2.21z"/>
   <path class="fil5" d="M27.61 61.31c-0.21,0.75 -0.65,5.24 -0.36,6.17 0.3,0.98 2.45,2.64 3,3.38 0.48,0.64 1.46,3.27 2.06,4.32 0.88,1.56 1.57,2.45 2.65,3.72 3.27,3.83 7.49,6.1 12.7,6.33 2.47,0.1 3.64,-0.58 5.75,-0.8 0.06,2.55 -0.6,6.1 -0.3,8.7l1.66 -0.24 0.67 -11.74c-1.13,0.32 -2.09,0.99 -3.47,1.38 -6.22,1.76 -12.15,-0.78 -15.99,-5.53 -0.87,-1.07 -3.15,-4.06 -3.25,-5.69l1.38 -0.63c-2.73,-0.71 -3.2,-1.63 -4.78,-3.24 -1.11,-1.13 -0.43,-1.62 -0.55,-2.93 -0.14,-1.5 0.13,-0.66 0.31,-1.42 0.16,-0.65 -0.22,-0.43 -0.05,-1.63 0.84,-0.98 0.49,0.24 0.82,-1.19 0.23,-0.95 -0.01,-0.75 0.92,-1.11 0.01,-0.01 0.58,-0.13 0.88,-0.34 0.13,-1.53 0.12,-4.94 -0.09,-6.29 -0.23,-1.48 -0.86,-4.11 -2.03,-4.22l-15.2 0.06c-0.36,1.15 -0.14,5.05 -0.14,6.52 0,6.76 -0.59,6.07 13.23,5.86 0.24,0.31 0.69,-0.5 0.18,0.56z"/>
   <path class="fil1" d="M38.3 61.45l0.53 0.63c1.36,1.65 1.27,1.82 1.49,4.27 0.69,-0.07 0.56,-0.16 1.2,-0.16 1.05,2.25 1.45,3.76 3.24,5.37 2.06,1.85 3.94,2.01 6.16,0.33 2.23,-1.69 2.14,-3.98 6.05,-6.88 1.48,-1.1 2,-0.94 2.44,-1.63 -0.6,-0.96 -5.02,-2.09 -8.27,-7.69 -3.37,-5.81 -2.34,-7.99 -2.58,-13.33 -2.31,-1.2 -2.35,-2.99 -2.5,-3.33l-0.02 15.23c0.01,2.91 0.5,4.91 -1.21,6.43 -0.87,0.77 -1.4,0.78 -2.82,0.78 -1.24,0 -2.48,0 -3.71,-0.02z"/>
   <path class="fil5" d="M46.06 39.03c0.15,0.34 0.19,2.13 2.5,3.33 0.24,5.34 -0.79,7.52 2.58,13.33 3.25,5.6 7.67,6.73 8.27,7.69 -0.44,0.69 -0.96,0.53 -2.44,1.63 -3.91,2.9 -3.82,5.19 -6.05,6.88 -2.22,1.68 -4.1,1.52 -6.16,-0.33 -1.79,-1.61 -2.19,-3.12 -3.24,-5.37 -0.64,0 -0.51,0.09 -1.2,0.16 -0.22,-2.45 -0.13,-2.62 -1.49,-4.27l-0.53 -0.63c-0.39,-0.22 -0.39,-0.06 -0.43,-0.64 2.84,-0.31 7.13,1.02 7.5,-2.41 0.2,-1.9 0.16,-8.1 -0.03,-10.02 -1.84,-0.23 -9.36,0.1 -10.23,-0.11l0.61 -0.56 9.49 -0.2c-1.7,-0.3 -10.02,0.05 -10.6,-0.1 -1.08,-0.25 0.45,0.38 -0.47,-0.25 -1.4,-0.97 0.91,0.27 -0.39,-0.3l1.02 2.57c1.02,2.37 -0.12,6.8 0.76,9.17 1.46,3.91 0.38,2.04 2.39,4.41 1.29,1.53 0.67,3.63 0.75,5.77l1.9 -0.7c2.08,4.67 6.71,9.14 11.84,4.51 1.83,-1.65 2.57,-3.9 4.59,-5.67 2.08,-1.83 3.41,-2.11 3.86,-2.47 0.66,-0.53 0.05,-0.1 0.54,-0.69 0.27,-0.32 0.36,-0.32 0.7,-0.53l0.85 -0.68c-6.25,-1.54 -11.39,-7.06 -12.62,-13.28 -0.27,-1.41 -0.39,-2.34 -0.36,-3.92 0.03,-1.49 0.49,-2.96 0.46,-3.94 -0.93,-0.51 -1.35,-0.66 -2.16,-1.21 -0.76,-0.53 -1.32,-1.15 -2.07,-1.65l-0.14 -0.01 0 0.49z"/>
   <path class="fil6" d="M46.26 34.54c6.75,-0.76 7.57,-2.97 12.02,-5.89 3.89,-2.55 8.47,-4.09 13.91,-3.46 7.18,0.82 12.67,5.67 15.29,11.74 1.41,3.25 1.07,3.7 1.51,7.41 1.44,1.09 2.21,3.05 1.12,5.05 -1.06,1.94 -1.96,2.24 -4.47,2.51 -1.35,2.73 -3.43,5.99 -5.59,7.49l-3.18 1.97c-1.68,0.86 -1.2,0.19 -1.45,0.95 0.86,0.18 2.4,0.99 3.55,1.36 1.21,0.39 2.36,0.79 3.55,1.35 2.44,1.16 4.59,2.57 5.52,4.27 0.41,-0.24 0.55,-0.72 0.81,-1.22 -0.18,-2.12 -7.38,-5.27 -9.34,-5.75 0.4,-0.92 0.2,-0.57 0.94,-1.06 0.39,-0.25 0.54,-0.37 0.92,-0.69 0.53,-0.44 1.15,-0.97 1.71,-1.58 1.05,-1.14 1.96,-2.28 2.81,-3.94 1.4,-2.72 1.2,-0.41 3.91,-2.66 2.18,-1.8 3,-4.87 1.63,-7.27 -0.76,-1.33 -0.67,-0.31 -0.76,-2.46 -0.23,-5.5 -3.45,-10.18 -6.73,-13.49 -7.34,-7.4 -20.98,-7.23 -28.73,-0.16 -3.76,3.44 -4.59,2.96 -8.83,4.43l-0.12 1.1z"/>
   <path class="fil7" d="M32.17 66.75c-0.35,0.33 -1.56,0.15 -2.1,0.08 -1.03,-0.13 -0.99,-0.39 -0.78,-1.32 0.57,-0.14 4.3,-0.1 2.88,1.24zm-2.88 -19.05c0.26,0.45 0.06,0.1 0.25,0.61 1.17,0.11 1.8,2.74 2.03,4.22 0.21,1.35 0.22,4.76 0.09,6.29 -0.3,0.21 -0.87,0.33 -0.88,0.34 -0.93,0.36 -0.69,0.16 -0.92,1.11 -0.33,1.43 0.02,0.21 -0.82,1.19 -0.17,1.2 0.21,0.98 0.05,1.63 -0.18,0.76 -0.45,-0.08 -0.31,1.42 0.12,1.31 -0.56,1.8 0.55,2.93 1.58,1.61 2.05,2.53 4.78,3.24 1.24,-0.08 1.3,0.27 1.8,-0.66 -1.97,0.11 -4.3,-0.39 -5.36,-2.28 0.28,-0.19 0.09,-0.1 0.54,-0.19 1.49,-0.29 -1.23,0.14 0.39,-0.04 0.64,-0.07 1.33,0.33 1.44,-1.61 1.1,-0.11 0.83,-0.28 1.88,-0.4 0.06,-0.01 0.29,0.01 0.42,-0.04 -0.3,-1.01 -0.7,-1.03 -0.81,-2.3 -0.06,-1.23 -0.38,-3.59 0.1,-4.57 1.55,0.25 -0.01,1.59 2.66,4.36 1.77,1.83 0.83,3.14 0.96,6.03l-0.39 0.3 0.82 0 0.11 -0.5c-0.08,-2.14 0.54,-4.24 -0.75,-5.77 -2.01,-2.37 -0.93,-0.5 -2.39,-4.41 -0.88,-2.37 0.26,-6.8 -0.76,-9.17l-1.02 -2.57c-0.84,-0.69 -1.89,-3.4 -5.38,-5 -1.42,-0.65 -2.32,0.4 -3.53,1.06 -1.04,0.56 -2.76,1.25 -3.31,2.02 0.67,0.39 4.35,-0.05 7.01,1.97 0.56,0.42 0.4,0.21 0.75,0.79zm3.29 11.98c0.26,0.5 0.41,0.47 -0.03,1.14l-2.13 -0.11 0.09 -0.84c0.66,-0.32 1.19,-0.24 2.07,-0.19zm-1.31 1.82c0.98,0.05 1.54,0.08 2.22,0.44 0.09,1.23 -0.23,1.24 -1.36,1.14 -0.75,-0.06 -1.6,-0.24 -2.32,-0.22 -0.16,-0.44 -0.25,-0.67 -0.08,-1.34l1.54 -0.02zm0.49 2.15l1.84 0.15 0.37 0.69c0.06,0.35 -0.05,0.42 -0.16,0.67 -0.9,0.27 -1.89,-0.15 -2.76,-0.22 -1.16,-0.08 -1.84,0.06 -1.68,-1.23 0.85,-0.47 1.41,-0.16 2.39,-0.06z"/>
   <path class="fil8" d="M17.06 15.54l22.52 0c2.26,0 4.91,-0.5 5.66,1.83 0.34,1.05 0.15,22.22 0.15,26.74 0,0.63 0,1.25 0.01,1.88 0,0.52 0.06,1.22 -0.19,1.52l-9.49 0.2 -0.61 0.56c0.87,0.21 8.39,-0.12 10.23,0.11 0.19,1.92 0.23,8.12 0.03,10.02 -0.37,3.43 -4.66,2.1 -7.5,2.41 0.04,0.58 0.04,0.42 0.43,0.64 1.23,0.02 2.47,0.02 3.71,0.02 1.42,0 1.95,-0.01 2.82,-0.78 1.71,-1.52 1.22,-3.52 1.21,-6.43l0.02 -15.23 0 -0.49 0 -19.72c0,-2.08 -0.86,-3.59 -2.67,-3.9 -2.92,-0.5 -20.14,0.27 -25.79,-0.1 -0.47,0.28 -0.33,0.07 -0.54,0.72z"/>
   <path class="fil9" d="M13.4 19.23c0.34,4.73 0,22.15 0.03,28.4 0.01,2.35 0,4.7 0,7.05 0,6.72 0.14,6.81 7.11,6.81 1.66,0 5.73,0.29 7.07,-0.18 0.51,-1.06 0.06,-0.25 -0.18,-0.56 -13.82,0.21 -13.23,0.9 -13.23,-5.86 0,-1.47 -0.22,-5.37 0.14,-6.52l15.2 -0.06c-0.19,-0.51 0.01,-0.16 -0.25,-0.61l-15.08 -0.05 0 -29.22c-0.65,0.75 -0.35,-0.03 -0.81,0.8z"/>
   <path class="fil10" d="M34.41 63.16c0.11,1.27 0.51,1.29 0.81,2.3 -0.13,0.05 -0.36,0.03 -0.42,0.04 -1.05,0.12 -0.78,0.29 -1.88,0.4 -0.11,1.94 -0.8,1.54 -1.44,1.61 -1.62,0.18 1.1,-0.25 -0.39,0.04 -0.45,0.09 -0.26,0 -0.54,0.19 1.06,1.89 3.39,2.39 5.36,2.28l1.83 -0.74 0.39 -0.3c-0.13,-2.89 0.81,-4.2 -0.96,-6.03 -2.67,-2.77 -1.11,-4.11 -2.66,-4.36 -0.48,0.98 -0.16,3.34 -0.1,4.57z"/>
   <path class="fil5" d="M73.29 62.76c-0.82,2.73 -4.55,4.33 -5.83,5.39 0.52,0.7 1.77,1.15 2.5,1.64l0.85 0.72c0.54,0.05 0.18,-0.03 0.8,0.29 0.5,0.27 0.35,0.3 0.94,0.41 0.69,-1.68 3.7,-6.78 3.88,-8.03l-1.38 -0.82c-0.74,-0.02 -1.13,0.04 -1.76,0.4z"/>
   <path class="fil11" d="M25.63 34.78c-1.65,0.78 -1.71,3.66 0.97,3.75 1.15,0.05 5.85,0.14 6.56,-0.15 1.48,-0.59 1.67,-3.63 -1.07,-3.73 -0.91,-0.03 -5.96,-0.1 -6.46,0.13z"/>
   <path class="fil12" d="M63.63 72.92l0.75 4.92c0.04,0.26 0.09,0.58 0.16,0.8l0.35 0.83c0.57,-0.48 1.98,-3.36 2.56,-4.35 0.85,-1.46 1.74,-3.36 2.68,-4.16 -0.07,-0.57 0.46,-0.55 -1.39,-1.24 -0.49,0.41 -1.1,1.43 -1.5,2.07l-1.34 2.08c-0.5,-0.66 -0.84,-3.54 -0.92,-4.37 -0.73,0.18 -0.94,0.32 -1.55,0.72 -0.14,1.02 0.13,1.68 0.2,2.7z"/>
   <path class="fil10" d="M84.3 50.33c2.26,2.8 6.84,-0.84 5.43,-4.29 -1.66,-4.05 -4.95,2.71 -5.43,4.29z"/>
   <path class="fil10" d="M64.88 63.1c0.22,1.45 0.86,3.87 1.74,4.69 1.62,0 5.8,-3.6 6.15,-5 -3.19,0.66 -4.55,0.45 -7.89,0.31z"/>
   <path class="fil12" d="M61.98 69.39l0.48 0.74 3.71 -1.91c-0.27,-0.79 -0.78,-1.57 -1.09,-2.55 -0.24,-0.77 -0.49,-2.19 -0.83,-2.84l-0.8 -0.04c-0.49,0.44 -1.26,0.83 -1.83,1.16 -0.04,1.69 0.66,3.81 0.36,5.44z"/>
   <path class="fil11" d="M55.95 47.19c-1.64,0.12 0.01,-0.43 -1.3,-0.32 -1.12,2.9 2.25,4.56 3.85,2.51 1.25,-1.57 -0.11,-3.99 -2.13,-3.65 -1.37,0.23 -0.36,0.47 -0.42,1.46z"/>
   <path class="fil11" d="M69.89 45.85c-0.34,0.61 0.31,0.81 -0.17,1.35 -0.47,0.52 -0.42,-0.23 -1.14,-0.4 -0.79,2.94 1.73,4.41 3.48,3.01 1.75,-1.39 0.63,-4.71 -2.17,-3.96z"/>
   <path class="fil13" d="M24.97 13.63c1.5,0.14 9.33,0.22 10.47,-0.07l-0.01 -1.06c-0.99,-0.3 -9,-0.2 -10.44,-0.09l-0.02 1.22z"/>
   <polygon class="fil11" points="24.96,10.97 35.45,10.98 35.43,9.78 25,9.67 "/>
   <path class="fil14" d="M27.15 8.24c1.35,0.17 2.76,0.07 4.12,0.07l3.63 -0.05c0.39,-0.1 0.24,-0.04 0.51,-0.21l0.01 -0.83c-0.31,-0.16 0,-0.07 -0.53,-0.17l-5.27 -0.03c-0.5,0.2 -0.83,0.22 -1.33,0.45l-1.14 0.77z"/>
   <path class="fil15" d="M46.23 37.79c1.68,0.1 3.32,0.43 4.73,-0.31 -0.39,-0.47 -4.21,-2.15 -4.77,-2.31l0.04 2.62z"/>
   <path class="fil16" d="M33.6 63.8l-1.84 -0.15c-0.98,-0.1 -1.54,-0.41 -2.39,0.06 -0.16,1.29 0.52,1.15 1.68,1.23 0.87,0.07 1.86,0.49 2.76,0.22 0.11,-0.25 0.22,-0.32 0.16,-0.67l-0.37 -0.69z"/>
   <path class="fil6" d="M68.09 69.39c-0.44,-0.55 -0.96,-0.83 -1.82,-0.8l-0.66 0.46c-0.1,0.82 0.15,2.76 0.53,3.44l1.95 -3.1z"/>
   <path class="fil16" d="M29.81 62.86c0.72,-0.02 1.57,0.16 2.32,0.22 1.13,0.1 1.45,0.09 1.36,-1.14 -0.68,-0.36 -1.24,-0.39 -2.22,-0.44l-1.54 0.02c-0.17,0.67 -0.08,0.9 0.08,1.34z"/>
   <path class="fil17" d="M68.62 44.94c0.76,0.47 2.02,-0.74 2.97,-0.76 1.02,-0.03 1.53,1.3 2.73,1.3 -0.11,-1.08 -2.33,-1.96 -2.56,-1.98 -0.85,-0.1 -2.86,0.69 -3.14,1.44z"/>
   <path class="fil16" d="M29.29 65.51c-0.21,0.93 -0.25,1.19 0.78,1.32 0.54,0.07 1.75,0.25 2.1,-0.08 1.42,-1.34 -2.31,-1.38 -2.88,-1.24z"/>
   <path class="fil18" d="M60.9 57c0.58,1.34 4.94,0.84 6.11,0.52 -0.46,-0.56 0.08,-0.33 -0.69,-0.48l-2.65 0.2c-0.95,-0.03 -2.47,-0.6 -2.77,-0.24z"/>
   <path class="fil16" d="M32.55 60.82c0.44,-0.67 0.29,-0.64 0.03,-1.14 -0.88,-0.05 -1.41,-0.13 -2.07,0.19l-0.09 0.84 2.13 0.11z"/>
   <path class="fil13" d="M66.14 72.49c-0.38,-0.68 -0.63,-2.62 -0.53,-3.44l0.66 -0.46c0.86,-0.03 1.38,0.25 1.82,0.8l-1.95 3.1zm3.99 -1.53c-0.94,0.8 -1.83,2.7 -2.68,4.16 -0.58,0.99 -1.99,3.87 -2.56,4.35l-0.35 -0.83c-0.07,-0.22 -0.12,-0.54 -0.16,-0.8l-0.75 -4.92c-0.07,-1.02 -0.34,-1.68 -0.2,-2.7 0.61,-0.4 0.82,-0.54 1.55,-0.72 0.08,0.83 0.42,3.71 0.92,4.37l1.34 -2.08c0.4,-0.64 1.01,-1.66 1.5,-2.07 1.85,0.69 1.32,0.67 1.39,1.24zm-8.15 -1.57c0.3,-1.63 -0.4,-3.75 -0.36,-5.44 0.57,-0.33 1.34,-0.72 1.83,-1.16l-0.5 -0.24 -0.85 0.68c-0.34,0.21 -0.43,0.21 -0.7,0.53 -0.49,0.59 0.12,0.16 -0.54,0.69 -0.45,0.36 -1.78,0.64 -3.86,2.47 -2.02,1.77 -2.76,4.02 -4.59,5.67 -5.13,4.63 -9.76,0.16 -11.84,-4.51l-1.9 0.7 -0.11 0.5 -0.82 0 -1.83 0.74c-0.5,0.93 -0.56,0.58 -1.8,0.66l-1.38 0.63c0.1,1.63 2.38,4.62 3.25,5.69 3.84,4.75 9.77,7.29 15.99,5.53 1.38,-0.39 2.34,-1.06 3.47,-1.38l-0.67 11.74c0.93,-0.04 2.41,-0.19 3.29,-0.48 2.36,-0.78 4.84,-1.1 7.98,-2.58 4.55,-2.16 9.26,-4.79 12.87,-8.37 2.54,-2.52 8.51,-9.2 9.13,-12.17 -0.93,-1.7 -3.08,-3.11 -5.52,-4.27 -1.19,-0.56 -2.34,-0.96 -3.55,-1.35 -1.15,-0.37 -2.69,-1.18 -3.55,-1.36l-0.37 0.05 1.38 0.82c-0.18,1.25 -3.19,6.35 -3.88,8.03 -0.59,-0.11 -0.44,-0.14 -0.94,-0.41 -0.62,-0.32 -0.26,-0.24 -0.8,-0.29l-0.85 -0.72c-0.73,-0.49 -1.98,-0.94 -2.5,-1.64 1.28,-1.06 5.01,-2.66 5.83,-5.39l-0.52 0.03c-0.35,1.4 -4.53,5 -6.15,5 -0.88,-0.82 -1.52,-3.24 -1.74,-4.69 -0.21,-0.32 0.17,-0.18 -0.63,-0.27 0.34,0.65 0.59,2.07 0.83,2.84 0.31,0.98 0.82,1.76 1.09,2.55l-3.71 1.91 -0.48 -0.74z"/>
  </g>
  <path class="fil0" d="M48.1 0c26.56,0 48.1,21.53 48.1,48.1 0,26.56 -21.54,48.1 -48.1,48.1 -26.57,0 -48.1,-21.54 -48.1,-48.1 0,-26.57 21.53,-48.1 48.1,-48.1zm0 3.01c24.9,0 45.09,20.19 45.09,45.09 0,24.9 -20.19,45.09 -45.09,45.09 -24.9,0 -45.09,-20.19 -45.09,-45.09 0,-24.9 20.19,-45.09 45.09,-45.09z"/>
  <g>
   <path class="fil19 str0" d="M34.83 93.56l-2.34 0 0 -7.19 -0.68 0 0 7.19 -2.34 0 0 -8.99 5.36 0 0 8.99zm0.95 -8.99l2.35 0c0.64,0 1.13,0.05 1.47,0.15 0.34,0.1 0.6,0.24 0.77,0.43 0.18,0.19 0.29,0.42 0.35,0.69 0.06,0.27 0.09,0.68 0.09,1.24l0 0.79c0,0.57 -0.05,0.99 -0.17,1.25 -0.12,0.26 -0.34,0.46 -0.65,0.6 -0.32,0.14 -0.73,0.21 -1.24,0.21l-0.63 0 0 3.63 -2.34 0 0 -8.99zm2.34 1.53l0 2.29c0.07,0.01 0.12,0.01 0.17,0.01 0.22,0 0.36,-0.05 0.45,-0.16 0.08,-0.1 0.12,-0.32 0.12,-0.66l0 -0.74c0,-0.3 -0.05,-0.5 -0.14,-0.6 -0.1,-0.09 -0.3,-0.14 -0.6,-0.14zm8.7 3.74c0,0.9 -0.02,1.54 -0.07,1.92 -0.04,0.37 -0.17,0.72 -0.4,1.03 -0.22,0.31 -0.52,0.55 -0.9,0.71 -0.38,0.17 -0.83,0.25 -1.33,0.25 -0.48,0 -0.91,-0.08 -1.3,-0.23 -0.38,-0.16 -0.69,-0.4 -0.92,-0.71 -0.23,-0.31 -0.37,-0.66 -0.42,-1.03 -0.04,-0.37 -0.06,-1.02 -0.06,-1.94l0 -1.54c0,-0.9 0.02,-1.54 0.06,-1.92 0.04,-0.37 0.18,-0.72 0.4,-1.03 0.22,-0.31 0.53,-0.55 0.91,-0.71 0.38,-0.17 0.82,-0.25 1.33,-0.25 0.48,0 0.91,0.08 1.29,0.23 0.38,0.16 0.69,0.4 0.92,0.71 0.24,0.32 0.37,0.66 0.42,1.03 0.04,0.37 0.07,1.02 0.07,1.94l0 1.54zm-2.35 -2.95c0,-0.42 -0.02,-0.69 -0.06,-0.8 -0.05,-0.12 -0.14,-0.18 -0.28,-0.18 -0.12,0 -0.21,0.05 -0.28,0.14 -0.06,0.1 -0.09,0.37 -0.09,0.84l0 4.19c0,0.52 0.02,0.85 0.06,0.97 0.04,0.12 0.14,0.18 0.29,0.18 0.16,0 0.26,-0.07 0.3,-0.21 0.04,-0.14 0.06,-0.48 0.06,-1l0 -4.13zm3.23 -2.32l2.32 0c0.74,0 1.29,0.06 1.67,0.17 0.38,0.12 0.69,0.35 0.92,0.7 0.23,0.35 0.35,0.91 0.35,1.69 0,0.52 -0.08,0.89 -0.25,1.09 -0.16,0.21 -0.49,0.37 -0.97,0.48 0.54,0.12 0.91,0.33 1.1,0.61 0.19,0.28 0.29,0.72 0.29,1.3l0 0.84c0,0.61 -0.07,1.06 -0.21,1.35 -0.14,0.29 -0.36,0.49 -0.66,0.6 -0.3,0.11 -0.93,0.16 -1.87,0.16l-2.69 0 0 -8.99zm2.34 1.53l0 2c0.1,0 0.17,0 0.23,0 0.22,0 0.36,-0.06 0.42,-0.17 0.07,-0.11 0.1,-0.44 0.1,-0.97 0,-0.28 -0.03,-0.48 -0.08,-0.59 -0.05,-0.11 -0.12,-0.19 -0.2,-0.22 -0.08,-0.02 -0.24,-0.04 -0.47,-0.05zm0 3.4l0 2.53c0.32,-0.02 0.53,-0.07 0.61,-0.16 0.09,-0.09 0.14,-0.32 0.14,-0.69l0 -0.84c0,-0.38 -0.04,-0.62 -0.12,-0.7 -0.08,-0.08 -0.29,-0.13 -0.63,-0.14zm3.93 -4.93l3.9 0 0 1.8 -1.56 0 0 1.71 1.46 0 0 1.71 -1.46 0 0 1.97 1.72 0 0 1.8 -4.06 0 0 -8.99zm4.72 0l2.36 0c0.63,0 1.12,0.05 1.47,0.15 0.34,0.1 0.59,0.24 0.77,0.43 0.17,0.19 0.29,0.42 0.35,0.69 0.06,0.27 0.09,0.68 0.09,1.24l0 0.79c0,0.57 -0.06,0.99 -0.18,1.25 -0.12,0.26 -0.33,0.46 -0.65,0.6 -0.32,0.14 -0.73,0.21 -1.24,0.21l-0.63 0 0 3.63 -2.34 0 0 -8.99zm2.34 1.53l0 2.29c0.07,0.01 0.13,0.01 0.18,0.01 0.21,0 0.36,-0.05 0.44,-0.16 0.08,-0.1 0.12,-0.32 0.12,-0.66l0 -0.74c0,-0.3 -0.04,-0.5 -0.14,-0.6 -0.09,-0.09 -0.29,-0.14 -0.6,-0.14zm8.81 5.36c0,0.67 -0.08,1.15 -0.26,1.44 -0.17,0.29 -0.44,0.47 -0.79,0.55 -0.35,0.07 -0.91,0.11 -1.69,0.11l-2.7 0 0 -8.99 2.34 0 0 3.08 0.36 0c0.72,0 1.27,0.04 1.64,0.13 0.37,0.08 0.65,0.27 0.83,0.56 0.18,0.29 0.27,0.75 0.27,1.37l0 1.75zm-2.34 -0.27l0 -1.3c0,-0.38 -0.04,-0.61 -0.11,-0.69 -0.08,-0.08 -0.29,-0.13 -0.65,-0.14l0 2.95c0.3,0 0.5,-0.03 0.6,-0.11 0.11,-0.08 0.16,-0.31 0.16,-0.71zm7.88 -6.62l0 1.8 -1.38 0 0 7.19 -2.34 0 0 -7.19 -1.39 0 0 -1.8 5.11 0zm0.53 0l3.9 0 0 1.8 -1.56 0 0 1.71 1.46 0 0 1.71 -1.46 0 0 1.97 1.72 0 0 1.8 -4.06 0 0 -8.99zm11.43 0l0 1.8 -1.37 0 0 7.19 -2.34 0 0 -7.19 -1.39 0 0 -1.8 5.1 0zm5.74 8.99l-2.34 0 0 -4.05c-0.29,0 -0.48,0.05 -0.57,0.15 -0.09,0.1 -0.13,0.31 -0.13,0.65l0 3.25 -2.17 0 0 -2.68c0,-0.45 0.02,-0.8 0.07,-1.04 0.05,-0.24 0.17,-0.43 0.35,-0.59 0.18,-0.15 0.47,-0.28 0.86,-0.39 -0.54,-0.04 -0.88,-0.2 -1.04,-0.45 -0.16,-0.26 -0.24,-0.72 -0.24,-1.39 0,-0.6 0.07,-1.07 0.22,-1.4 0.15,-0.34 0.36,-0.59 0.64,-0.73 0.28,-0.15 0.61,-0.24 0.97,-0.27 0.37,-0.03 0.94,-0.05 1.72,-0.05l1.66 0 0 8.99zm-2.34 -5.46l0 -1.98 -0.11 0c-0.19,0 -0.34,0.04 -0.44,0.13 -0.1,0.08 -0.15,0.27 -0.15,0.56l0 0.49c0,0.33 0.04,0.55 0.12,0.65 0.09,0.1 0.28,0.15 0.58,0.15zm7.31 -1.73l-1.71 0 0 7.19 -2.35 0 0 -8.99 4.06 0 0 1.8zm5.25 -1.8l-0.63 5.95c-0.11,0.94 -0.21,1.6 -0.33,1.98 -0.11,0.38 -0.33,0.65 -0.66,0.82 -0.33,0.16 -0.87,0.24 -1.63,0.24l-1.36 0 0 -1.16 0.14 0c0.31,0 0.5,-0.02 0.57,-0.07 0.07,-0.05 0.11,-0.13 0.11,-0.23 0,-0.01 -0.04,-0.27 -0.13,-0.77l-1.23 -6.76 2.03 0 0.73 5.61 0.35 -5.61 2.04 0z"/>
   <path id="1" class="fil20" d="M34.83 93.56l-2.34 0 0 -7.19 -0.68 0 0 7.19 -2.34 0 0 -8.99 5.36 0 0 8.99zm0.95 -8.99l2.35 0c0.64,0 1.13,0.05 1.47,0.15 0.34,0.1 0.6,0.24 0.77,0.43 0.18,0.19 0.29,0.42 0.35,0.69 0.06,0.27 0.09,0.68 0.09,1.24l0 0.79c0,0.57 -0.05,0.99 -0.17,1.25 -0.12,0.26 -0.34,0.46 -0.65,0.6 -0.32,0.14 -0.73,0.21 -1.24,0.21l-0.63 0 0 3.63 -2.34 0 0 -8.99zm2.34 1.53l0 2.29c0.07,0.01 0.12,0.01 0.17,0.01 0.22,0 0.36,-0.05 0.45,-0.16 0.08,-0.1 0.12,-0.32 0.12,-0.66l0 -0.74c0,-0.3 -0.05,-0.5 -0.14,-0.6 -0.1,-0.09 -0.3,-0.14 -0.6,-0.14zm8.7 3.74c0,0.9 -0.02,1.54 -0.07,1.92 -0.04,0.37 -0.17,0.72 -0.4,1.03 -0.22,0.31 -0.52,0.55 -0.9,0.71 -0.38,0.17 -0.83,0.25 -1.33,0.25 -0.48,0 -0.91,-0.08 -1.3,-0.23 -0.38,-0.16 -0.69,-0.4 -0.92,-0.71 -0.23,-0.31 -0.37,-0.66 -0.42,-1.03 -0.04,-0.37 -0.06,-1.02 -0.06,-1.94l0 -1.54c0,-0.9 0.02,-1.54 0.06,-1.92 0.04,-0.37 0.18,-0.72 0.4,-1.03 0.22,-0.31 0.53,-0.55 0.91,-0.71 0.38,-0.17 0.82,-0.25 1.33,-0.25 0.48,0 0.91,0.08 1.29,0.23 0.38,0.16 0.69,0.4 0.92,0.71 0.24,0.32 0.37,0.66 0.42,1.03 0.04,0.37 0.07,1.02 0.07,1.94l0 1.54zm-2.35 -2.95c0,-0.42 -0.02,-0.69 -0.06,-0.8 -0.05,-0.12 -0.14,-0.18 -0.28,-0.18 -0.12,0 -0.21,0.05 -0.28,0.14 -0.06,0.1 -0.09,0.37 -0.09,0.84l0 4.19c0,0.52 0.02,0.85 0.06,0.97 0.04,0.12 0.14,0.18 0.29,0.18 0.16,0 0.26,-0.07 0.3,-0.21 0.04,-0.14 0.06,-0.48 0.06,-1l0 -4.13zm3.23 -2.32l2.32 0c0.74,0 1.29,0.06 1.67,0.17 0.38,0.12 0.69,0.35 0.92,0.7 0.23,0.35 0.35,0.91 0.35,1.69 0,0.52 -0.08,0.89 -0.25,1.09 -0.16,0.21 -0.49,0.37 -0.97,0.48 0.54,0.12 0.91,0.33 1.1,0.61 0.19,0.28 0.29,0.72 0.29,1.3l0 0.84c0,0.61 -0.07,1.06 -0.21,1.35 -0.14,0.29 -0.36,0.49 -0.66,0.6 -0.3,0.11 -0.93,0.16 -1.87,0.16l-2.69 0 0 -8.99zm2.34 1.53l0 2c0.1,0 0.17,0 0.23,0 0.22,0 0.36,-0.06 0.42,-0.17 0.07,-0.11 0.1,-0.44 0.1,-0.97 0,-0.28 -0.03,-0.48 -0.08,-0.59 -0.05,-0.11 -0.12,-0.19 -0.2,-0.22 -0.08,-0.02 -0.24,-0.04 -0.47,-0.05zm0 3.4l0 2.53c0.32,-0.02 0.53,-0.07 0.61,-0.16 0.09,-0.09 0.14,-0.32 0.14,-0.69l0 -0.84c0,-0.38 -0.04,-0.62 -0.12,-0.7 -0.08,-0.08 -0.29,-0.13 -0.63,-0.14zm3.93 -4.93l3.9 0 0 1.8 -1.56 0 0 1.71 1.46 0 0 1.71 -1.46 0 0 1.97 1.72 0 0 1.8 -4.06 0 0 -8.99zm4.72 0l2.36 0c0.63,0 1.12,0.05 1.47,0.15 0.34,0.1 0.59,0.24 0.77,0.43 0.17,0.19 0.29,0.42 0.35,0.69 0.06,0.27 0.09,0.68 0.09,1.24l0 0.79c0,0.57 -0.06,0.99 -0.18,1.25 -0.12,0.26 -0.33,0.46 -0.65,0.6 -0.32,0.14 -0.73,0.21 -1.24,0.21l-0.63 0 0 3.63 -2.34 0 0 -8.99zm2.34 1.53l0 2.29c0.07,0.01 0.13,0.01 0.18,0.01 0.21,0 0.36,-0.05 0.44,-0.16 0.08,-0.1 0.12,-0.32 0.12,-0.66l0 -0.74c0,-0.3 -0.04,-0.5 -0.14,-0.6 -0.09,-0.09 -0.29,-0.14 -0.6,-0.14zm8.81 5.36c0,0.67 -0.08,1.15 -0.26,1.44 -0.17,0.29 -0.44,0.47 -0.79,0.55 -0.35,0.07 -0.91,0.11 -1.69,0.11l-2.7 0 0 -8.99 2.34 0 0 3.08 0.36 0c0.72,0 1.27,0.04 1.64,0.13 0.37,0.08 0.65,0.27 0.83,0.56 0.18,0.29 0.27,0.75 0.27,1.37l0 1.75zm-2.34 -0.27l0 -1.3c0,-0.38 -0.04,-0.61 -0.11,-0.69 -0.08,-0.08 -0.29,-0.13 -0.65,-0.14l0 2.95c0.3,0 0.5,-0.03 0.6,-0.11 0.11,-0.08 0.16,-0.31 0.16,-0.71zm7.88 -6.62l0 1.8 -1.38 0 0 7.19 -2.34 0 0 -7.19 -1.39 0 0 -1.8 5.11 0zm0.53 0l3.9 0 0 1.8 -1.56 0 0 1.71 1.46 0 0 1.71 -1.46 0 0 1.97 1.72 0 0 1.8 -4.06 0 0 -8.99zm11.43 0l0 1.8 -1.37 0 0 7.19 -2.34 0 0 -7.19 -1.39 0 0 -1.8 5.1 0zm5.74 8.99l-2.34 0 0 -4.05c-0.29,0 -0.48,0.05 -0.57,0.15 -0.09,0.1 -0.13,0.31 -0.13,0.65l0 3.25 -2.17 0 0 -2.68c0,-0.45 0.02,-0.8 0.07,-1.04 0.05,-0.24 0.17,-0.43 0.35,-0.59 0.18,-0.15 0.47,-0.28 0.86,-0.39 -0.54,-0.04 -0.88,-0.2 -1.04,-0.45 -0.16,-0.26 -0.24,-0.72 -0.24,-1.39 0,-0.6 0.07,-1.07 0.22,-1.4 0.15,-0.34 0.36,-0.59 0.64,-0.73 0.28,-0.15 0.61,-0.24 0.97,-0.27 0.37,-0.03 0.94,-0.05 1.72,-0.05l1.66 0 0 8.99zm-2.34 -5.46l0 -1.98 -0.11 0c-0.19,0 -0.34,0.04 -0.44,0.13 -0.1,0.08 -0.15,0.27 -0.15,0.56l0 0.49c0,0.33 0.04,0.55 0.12,0.65 0.09,0.1 0.28,0.15 0.58,0.15zm7.31 -1.73l-1.71 0 0 7.19 -2.35 0 0 -8.99 4.06 0 0 1.8zm5.25 -1.8l-0.63 5.95c-0.11,0.94 -0.21,1.6 -0.33,1.98 -0.11,0.38 -0.33,0.65 -0.66,0.82 -0.33,0.16 -0.87,0.24 -1.63,0.24l-1.36 0 0 -1.16 0.14 0c0.31,0 0.5,-0.02 0.57,-0.07 0.07,-0.05 0.11,-0.13 0.11,-0.23 0,-0.01 -0.04,-0.27 -0.13,-0.77l-1.23 -6.76 2.03 0 0.73 5.61 0.35 -5.61 2.04 0z"/>
  </g>
 </g>
</svg>
