<?xml version="1.0" encoding="UTF-8"?>
<!DOCTYPE svg PUBLIC "-//W3C//DTD SVG 1.1//EN" "http://www.w3.org/Graphics/SVG/1.1/DTD/svg11.dtd">
<!-- Creator: CorelDRAW 2019 (64-Bit) -->
<svg xmlns="http://www.w3.org/2000/svg" xml:space="preserve" width="663px" height="551px" version="1.1" style="shape-rendering:geometricPrecision; text-rendering:geometricPrecision; image-rendering:optimizeQuality; fill-rule:evenodd; clip-rule:evenodd"
viewBox="0 0 49.85 41.44"
 xmlns:xlink="http://www.w3.org/1999/xlink"
 xmlns:xodm="http://www.corel.com/coreldraw/odm/2003">
 <defs>
  <style type="text/css">
   <![CDATA[
    .str0 {stroke:#00A0E3;stroke-width:1.2;stroke-linejoin:round;stroke-miterlimit:22.9256}
    .fil11 {fill:none;fill-rule:nonzero}
    .fil0 {fill:#00A0E3}
    .fil6 {fill:#448AC6}
    .fil8 {fill:#458BCB}
    .fil4 {fill:#478CCD}
    .fil7 {fill:#5288C6}
    .fil10 {fill:#75C5F7}
    .fil1 {fill:#99D1F6}
    .fil9 {fill:#DC8D4A}
    .fil3 {fill:#DE8D46}
    .fil5 {fill:#FAFEFA}
    .fil2 {fill:#FDFDFD}
    .fil12 {fill:white;fill-rule:nonzero}
   ]]>
  </style>
 </defs>
 <g id="Слой_x0020_1">
  <metadata id="CorelCorpID_0Corel-Layer"/>
  <path class="fil0" d="M6.11 29.21l37.63 0c3.36,0 6.11,2.75 6.11,6.11l0 0c0,3.37 -2.75,6.12 -6.11,6.12l-37.63 0c-3.36,0 -6.11,-2.75 -6.11,-6.12l0 0c0,-3.36 2.75,-6.11 6.11,-6.11z"/>
  <g id="_1638609479088">
   <path class="fil1" d="M8.61 29.73c-0.11,-0.57 -0.04,-22.37 -0.03,-22.72 0.02,-2.35 0.97,-2.42 3.17,-2.42 1.58,0 13.25,-0.07 13.91,0.04 0.67,0.12 1.32,0.71 1.44,1.42 0.11,0.69 0.03,21.99 0.03,22.66 0,2.6 -1.31,2.43 -3.2,2.43 -1.54,0 -13.28,0.08 -13.89,-0.04 -0.71,-0.15 -1.29,-0.7 -1.43,-1.37zm5.77 -26.65c0.35,-0.1 6.57,-0.1 6.93,0l-0.01 0.89 -6.93 -0.03 0.01 -0.86zm0.02 -1.54l6.9 0 0 0.92 -6.92 -0.01 0.02 -0.91zm1.71 -0.36c-0.54,0.17 -1.25,0.16 -1.78,0.3 -2.77,0.78 -2.27,0.6 -4.59,1.77 -1.72,0.87 -3.47,2.45 -4.64,3.82 -3.86,4.48 -5.06,10.72 -3.15,16.5 0.4,1.22 1.32,3.16 2.12,4.2 0.15,0.2 0.35,0.43 0.47,0.61 0.23,0.35 0.23,0.34 0.46,0.62 1.14,1.34 1.99,2.06 3.31,3 4.37,3.12 9.98,3.9 15.2,2.2l1.48 -0.59c1.41,-0.72 1.23,-0.52 2.72,-1.51 5.05,-3.36 8.08,-9.85 7.24,-16.04 -0.25,-1.82 -0.62,-3.31 -1.38,-4.97 -0.75,-1.64 -1.75,-3.14 -2.93,-4.48 -0.18,-0.2 -0.33,-0.36 -0.53,-0.54 -0.41,-0.37 -0.77,-0.71 -1.12,-1.04 -1.18,-1.08 -3.82,-2.54 -5.41,-3.04 -1.08,-0.34 -2.21,-0.67 -3.43,-0.78 -0.79,-0.08 -3.28,-0.27 -4.04,-0.03z"/>
   <path class="fil2" d="M23.05 16.5c-0.23,1.06 -1.01,1.56 -2.24,1.56 -1.13,0 -6.73,0.13 -7.39,-0.15 -1.76,-0.74 -1.87,-4.16 1.07,-4.15 1.12,0 6.77,-0.13 7.41,0.15 0.9,0.4 1.42,1.35 1.15,2.59zm3.81 5.48c0.07,-0.7 0.02,-12.15 0.02,-13.18 0,-0.89 0.16,-2.44 -0.2,-3.12 -0.45,-0.87 -1.33,-0.82 -2.37,-0.82l-12.94 0c-2.91,0 -2.54,0.87 -2.54,3.94 0,1.14 -0.06,12.4 0.01,13.2l18.02 -0.02z"/>
   <path class="fil3" d="M16.11 1.18c0.76,-0.24 3.25,-0.05 4.04,0.03 1.22,0.11 2.35,0.44 3.43,0.78 1.59,0.5 4.23,1.96 5.41,3.04 0.35,0.33 0.71,0.67 1.12,1.04 0.2,0.18 0.35,0.34 0.53,0.54 1.18,1.34 2.18,2.84 2.93,4.48 0.76,1.66 1.13,3.15 1.38,4.97 0.84,6.19 -2.19,12.68 -7.24,16.04 -1.49,0.99 -1.31,0.79 -2.72,1.51l-1.48 0.59c-5.22,1.7 -10.83,0.92 -15.2,-2.2 -1.32,-0.94 -2.17,-1.66 -3.31,-3 -0.23,-0.28 -0.23,-0.27 -0.46,-0.62 -0.12,-0.18 -0.32,-0.41 -0.47,-0.61 -0.8,-1.04 -1.72,-2.98 -2.12,-4.2 -1.91,-5.78 -0.71,-12.02 3.15,-16.5 1.17,-1.37 2.92,-2.95 4.64,-3.82 2.32,-1.17 1.82,-0.99 4.59,-1.77 0.53,-0.14 1.24,-0.13 1.78,-0.3zm0.62 -1.09c-1.74,0.21 -2.06,0.2 -3.79,0.67 -3.04,0.83 -6.29,2.95 -8.29,5.22 -2.75,3.13 -5.04,7.68 -4.59,13.47 0.39,5 2.61,9 5.96,12.08 9.18,8.43 24.48,4.74 28.89,-6.92 0.98,-2.58 1.37,-5.13 1.15,-7.95 -0.55,-7.09 -5.21,-13.06 -11.61,-15.46 -2.12,-0.8 -5.04,-1.44 -7.72,-1.11z"/>
   <path class="fil2" d="M13.23 28.48c-0.11,-0.53 -0.01,-3.01 -0.01,-3.74 0,-0.64 0.17,-0.97 0.81,-1 1.72,-0.09 5.43,0.01 7.47,0 1.74,-0.01 1.35,0.58 1.31,4.36 -0.02,1.28 -0.92,0.97 -2.76,0.97l-5.56 0c-0.63,0.01 -1.15,-0.02 -1.26,-0.59zm-4.39 -6.17c-0.08,1.42 -0.01,3.02 -0.01,4.46 0,1.27 -0.33,3.01 0.6,3.77 0.7,0.56 2.98,0.34 4.07,0.34 2.92,0 5.84,0 8.76,0 1.02,0 3.28,0.23 4,-0.33 0.91,-0.71 0.62,-2.54 0.62,-3.86 0,-1.32 0.1,-3.14 -0.02,-4.4 -0.7,-0.13 -17.76,-0.06 -18.02,0.02z"/>
   <path class="fil4" d="M19.9 15.18c0.17,0.26 0.48,0.92 0.4,1.32 -0.08,0.41 -0.55,0.72 -0.98,0.59 -0.97,-0.3 0.21,-1.78 0.58,-1.91zm-2.21 -0.01c0.21,0.09 0.25,0.22 0.39,0.46 0.1,0.17 0.23,0.38 0.27,0.52 0.5,1.53 -2.56,1.26 -0.66,-0.98zm-2.06 -0.01c0.27,0.18 1.62,1.76 0.45,1.95 -1.14,0.18 -1.08,-1.32 -0.45,-1.95zm-2.15 0c0.25,0.09 0.31,0.21 0.49,0.39 0.26,0.27 1.23,1.24 0.48,1.53 -0.45,0.18 -0.95,-0.22 -1.09,-0.51 -0.21,-0.41 0.01,-1.02 0.12,-1.41zm8.5 0c0.13,0.37 0.36,0.99 0.14,1.43 -0.16,0.31 -0.71,0.66 -1.11,0.48 -0.88,-0.39 0.72,-1.79 0.97,-1.91zm1.07 1.34c0.27,-1.24 -0.25,-2.19 -1.15,-2.59 -0.64,-0.28 -6.29,-0.15 -7.41,-0.15 -2.94,-0.01 -2.83,3.41 -1.07,4.15 0.66,0.28 6.26,0.15 7.39,0.15 1.23,0 2.01,-0.5 2.24,-1.56z"/>
   <path class="fil5" d="M15.16 27.47c0.18,-0.2 2,-1.27 2.26,-1.29 0.09,0.7 -0.15,1.17 -0.63,1.47 -0.39,0.24 -0.83,0.29 -1.29,0.1 -0.26,-0.1 -0.22,-0.08 -0.34,-0.28zm4.05 0c0.14,-0.17 2.05,-1.26 2.25,-1.3 0.3,1.6 -1.77,2.16 -2.25,1.3zm-0.48 -0.59c-0.29,-2.16 2.16,-2.15 2.44,-1.28 -0.25,0.19 -0.92,0.56 -1.2,0.71 -0.28,0.16 -0.93,0.65 -1.24,0.57zm-1.63 -1.25l-2.05 1.18c-0.39,0.21 -0.45,0.08 -0.41,-0.43 0.09,-1.43 2.07,-1.79 2.46,-0.75zm-3.57 2.92c0.41,0.39 1.41,0.24 2.33,0.24l5.18 0c1.76,0 1.49,0.55 1.49,-3.81 0,-1.22 -0.19,-0.97 -2.56,-0.97l-5.48 0c-0.75,-0.01 -1,-0.02 -1,0.81 0.01,1.02 -0.1,2.81 0.04,3.73z"/>
   <path class="fil6" d="M8.84 22.31c0.26,-0.08 17.32,-0.15 18.02,-0.02 0.12,1.26 0.02,3.08 0.02,4.4 0,1.32 0.29,3.15 -0.62,3.86 -0.72,0.56 -2.98,0.33 -4,0.33 -2.92,0 -5.84,0 -8.76,0 -1.09,0 -3.37,0.22 -4.07,-0.34 -0.93,-0.76 -0.6,-2.5 -0.6,-3.77 0,-1.44 -0.07,-3.04 0.01,-4.46zm18.02 -0.33l-18.02 0.02c-0.07,-0.8 -0.01,-12.06 -0.01,-13.2 0,-3.07 -0.37,-3.94 2.54,-3.94l12.94 0c1.04,0 1.92,-0.05 2.37,0.82 0.36,0.68 0.2,2.23 0.2,3.12 0,1.03 0.05,12.48 -0.02,13.18zm-18.25 7.75c0.14,0.67 0.72,1.22 1.43,1.37 0.61,0.12 12.35,0.04 13.89,0.04 1.89,0 3.2,0.17 3.2,-2.43 0,-0.67 0.08,-21.97 -0.03,-22.66 -0.12,-0.71 -0.77,-1.3 -1.44,-1.42 -0.66,-0.11 -12.33,-0.04 -13.91,-0.04 -2.2,0 -3.15,0.07 -3.17,2.42 -0.01,0.35 -0.08,22.15 0.03,22.72z"/>
   <path class="fil7" d="M13.53 28.55c-0.14,-0.92 -0.03,-2.71 -0.04,-3.73 0,-0.83 0.25,-0.82 1,-0.81l5.48 0c2.37,0 2.56,-0.25 2.56,0.97 0,4.36 0.27,3.81 -1.49,3.81l-5.18 0c-0.92,0 -1.92,0.15 -2.33,-0.24zm-0.3 -0.07c0.11,0.57 0.63,0.6 1.26,0.59l5.56 0c1.84,0 2.74,0.31 2.76,-0.97 0.04,-3.78 0.43,-4.37 -1.31,-4.36 -2.04,0.01 -5.75,-0.09 -7.47,0 -0.64,0.03 -0.81,0.36 -0.81,1 0,0.73 -0.1,3.21 0.01,3.74z"/>
   <path class="fil4" d="M14.37 3.94l6.93 0.03 0.01 -0.89c-0.36,-0.1 -6.58,-0.1 -6.93,0l-0.01 0.86z"/>
   <polygon class="fil8" points="14.38,2.45 21.3,2.46 21.3,1.54 14.4,1.54 "/>
   <path class="fil3" d="M17.1 25.63c-0.39,-1.04 -2.37,-0.68 -2.46,0.75 -0.04,0.51 0.02,0.64 0.41,0.43l2.05 -1.18z"/>
   <path class="fil3" d="M18.73 26.88c0.31,0.08 0.96,-0.41 1.24,-0.57 0.28,-0.15 0.95,-0.52 1.2,-0.71 -0.28,-0.87 -2.73,-0.88 -2.44,1.28z"/>
   <path class="fil9" d="M15.16 27.47c0.12,0.2 0.08,0.18 0.34,0.28 0.46,0.19 0.9,0.14 1.29,-0.1 0.48,-0.3 0.72,-0.77 0.63,-1.47 -0.26,0.02 -2.08,1.09 -2.26,1.29z"/>
   <path class="fil3" d="M19.21 27.47c0.48,0.86 2.55,0.3 2.25,-1.3 -0.2,0.04 -2.11,1.13 -2.25,1.3z"/>
   <path class="fil10" d="M15.63 15.16c-0.63,0.63 -0.69,2.13 0.45,1.95 1.17,-0.19 -0.18,-1.77 -0.45,-1.95z"/>
   <path class="fil10" d="M17.69 15.17c-1.9,2.24 1.16,2.51 0.66,0.98 -0.04,-0.14 -0.17,-0.35 -0.27,-0.52 -0.14,-0.24 -0.18,-0.37 -0.39,-0.46z"/>
   <path class="fil10" d="M21.98 15.16c-0.25,0.12 -1.85,1.52 -0.97,1.91 0.4,0.18 0.95,-0.17 1.11,-0.48 0.22,-0.44 -0.01,-1.06 -0.14,-1.43z"/>
   <path class="fil10" d="M19.9 15.18c-0.37,0.13 -1.55,1.61 -0.58,1.91 0.43,0.13 0.9,-0.18 0.98,-0.59 0.08,-0.4 -0.23,-1.06 -0.4,-1.32z"/>
   <path class="fil10" d="M13.48 15.16c-0.11,0.39 -0.33,1 -0.12,1.41 0.14,0.29 0.64,0.69 1.09,0.51 0.75,-0.29 -0.22,-1.26 -0.48,-1.53 -0.18,-0.18 -0.24,-0.3 -0.49,-0.39z"/>
  </g>
  <path class="fil0" d="M18.06 0c9.97,0 18.06,8.09 18.06,18.06 0,9.97 -8.09,18.06 -18.06,18.06 -9.97,0 -18.06,-8.09 -18.06,-18.06 0,-9.97 8.09,-18.06 18.06,-18.06zm0 1.13c9.35,0 16.93,7.58 16.93,16.93 0,9.35 -7.58,16.93 -16.93,16.93 -9.35,0 -16.93,-7.58 -16.93,-16.93 0,-9.35 7.58,-16.93 16.93,-16.93z"/>
  <g>
   <path class="fil11 str0" d="M7.19 32.79l0.71 0 0.01 1.15c0.13,0 0.2,-0.07 0.2,-0.22l0.02 -0.53c0,-0.2 0.04,-0.33 0.11,-0.4l0.65 0c-0.06,0.07 -0.09,0.21 -0.09,0.41l0.01 0.47c0,0.28 -0.16,0.45 -0.48,0.49 0.32,0.03 0.48,0.2 0.48,0.49l-0.01 0.43c0,0.21 0.03,0.35 0.09,0.44l-0.65 0c-0.08,-0.07 -0.11,-0.2 -0.11,-0.4l0 -0.53c0,-0.07 -0.02,-0.12 -0.06,-0.16 -0.05,-0.04 -0.1,-0.06 -0.16,-0.06l-0.01 1.15 -0.71 0 0 -2.73zm3.47 1.6c0,0.28 -0.01,0.47 -0.02,0.58 -0.01,0.12 -0.05,0.22 -0.12,0.32 -0.07,0.09 -0.16,0.16 -0.27,0.21 -0.12,0.05 -0.25,0.08 -0.41,0.08 -0.14,0 -0.27,-0.02 -0.39,-0.07 -0.12,-0.05 -0.21,-0.12 -0.28,-0.22 -0.07,-0.09 -0.11,-0.2 -0.13,-0.31 -0.01,-0.11 -0.02,-0.31 -0.02,-0.59l0 -0.46c0,-0.28 0.01,-0.47 0.02,-0.59 0.02,-0.11 0.06,-0.22 0.12,-0.31 0.07,-0.09 0.16,-0.17 0.28,-0.22 0.11,-0.05 0.25,-0.07 0.4,-0.07 0.15,0 0.28,0.02 0.39,0.07 0.12,0.05 0.21,0.12 0.28,0.21 0.08,0.1 0.12,0.2 0.13,0.32 0.01,0.11 0.02,0.3 0.02,0.59l0 0.46zm-0.71 -0.89c0,-0.13 -0.01,-0.21 -0.02,-0.25 -0.01,-0.03 -0.04,-0.05 -0.08,-0.05 -0.04,0 -0.07,0.01 -0.09,0.04 -0.02,0.03 -0.03,0.12 -0.03,0.26l0 1.27c0,0.16 0.01,0.25 0.02,0.29 0.01,0.04 0.04,0.06 0.09,0.06 0.05,0 0.08,-0.02 0.09,-0.07 0.01,-0.04 0.02,-0.14 0.02,-0.3l0 -1.25zm2.61 -0.71l0 2.73 -0.71 0 0 -1.14 -0.21 0 0 1.14 -0.71 0 0 -2.73 0.71 0 0 0.98 0.21 0 0 -0.98 0.71 0zm1.71 0l0 0.55 -0.42 0 0 2.18 -0.71 0 0 -2.18 -0.42 0 0 -0.55 1.55 0zm0.16 0l0.72 0c0.19,0 0.34,0.02 0.44,0.05 0.11,0.03 0.18,0.07 0.24,0.13 0.05,0.06 0.08,0.13 0.1,0.21 0.02,0.08 0.03,0.2 0.03,0.38l0 0.23c0,0.18 -0.02,0.3 -0.05,0.38 -0.04,0.08 -0.11,0.14 -0.2,0.19 -0.1,0.04 -0.22,0.06 -0.38,0.06l-0.19 0 0 1.1 -0.71 0 0 -2.73zm0.71 0.47l0 0.69c0.02,0 0.04,0 0.05,0 0.07,0 0.11,-0.01 0.14,-0.04 0.02,-0.03 0.04,-0.1 0.04,-0.2l0 -0.23c0,-0.09 -0.02,-0.15 -0.05,-0.18 -0.03,-0.03 -0.09,-0.04 -0.18,-0.04zm2.64 1.13c0,0.28 0,0.47 -0.02,0.58 -0.01,0.12 -0.05,0.22 -0.12,0.32 -0.07,0.09 -0.16,0.16 -0.27,0.21 -0.12,0.05 -0.25,0.08 -0.41,0.08 -0.14,0 -0.27,-0.02 -0.39,-0.07 -0.12,-0.05 -0.21,-0.12 -0.28,-0.22 -0.07,-0.09 -0.11,-0.2 -0.13,-0.31 -0.01,-0.11 -0.02,-0.31 -0.02,-0.59l0 -0.46c0,-0.28 0.01,-0.47 0.02,-0.59 0.02,-0.11 0.06,-0.22 0.12,-0.31 0.07,-0.09 0.16,-0.17 0.28,-0.22 0.11,-0.05 0.25,-0.07 0.4,-0.07 0.15,0 0.28,0.02 0.4,0.07 0.11,0.05 0.2,0.12 0.28,0.21 0.07,0.1 0.11,0.2 0.12,0.32 0.01,0.11 0.02,0.3 0.02,0.59l0 0.46zm-0.71 -0.89c0,-0.13 -0.01,-0.21 -0.02,-0.25 -0.01,-0.03 -0.04,-0.05 -0.08,-0.05 -0.04,0 -0.07,0.01 -0.09,0.04 -0.02,0.03 -0.03,0.12 -0.03,0.26l0 1.27c0,0.16 0.01,0.25 0.02,0.29 0.02,0.04 0.04,0.06 0.09,0.06 0.05,0 0.08,-0.02 0.09,-0.07 0.01,-0.04 0.02,-0.14 0.02,-0.3l0 -1.25zm2.71 2.02l-0.71 0 0 -2.18 -0.21 0 0 1.54c0,0.21 -0.02,0.35 -0.08,0.44 -0.05,0.09 -0.13,0.14 -0.24,0.17 -0.1,0.02 -0.27,0.03 -0.5,0.03l-0.12 0 0 -0.47c0.09,0 0.15,-0.01 0.18,-0.03 0.04,-0.02 0.05,-0.09 0.05,-0.22l0 -2.01 1.63 0 0 2.73zm1.86 0l-0.59 0 0 -1.24 -0.37 1.24 -0.62 0 0 -2.73 0.6 0 0 1.23 0.39 -1.23 0.59 0 0 2.73zm0.29 -2.73l0.71 0c0.2,0 0.34,0.02 0.45,0.05 0.1,0.03 0.18,0.07 0.23,0.13 0.05,0.06 0.09,0.13 0.11,0.21 0.02,0.08 0.03,0.2 0.03,0.38l0 0.23c0,0.18 -0.02,0.3 -0.06,0.38 -0.03,0.08 -0.1,0.14 -0.19,0.19 -0.1,0.04 -0.23,0.06 -0.38,0.06l-0.19 0 0 1.1 -0.71 0 0 -2.73zm0.71 0.47l0 0.69c0.02,0 0.04,0 0.05,0 0.07,0 0.11,-0.01 0.14,-0.04 0.02,-0.03 0.03,-0.1 0.03,-0.2l0 -0.23c0,-0.09 -0.01,-0.15 -0.04,-0.18 -0.03,-0.03 -0.09,-0.04 -0.18,-0.04zm2.42 -0.47l-0.19 1.81c-0.03,0.28 -0.06,0.49 -0.1,0.6 -0.03,0.12 -0.1,0.2 -0.2,0.25 -0.1,0.05 -0.26,0.07 -0.49,0.07l-0.42 0 0 -0.35 0.05 0c0.09,0 0.15,-0.01 0.17,-0.02 0.02,-0.02 0.03,-0.04 0.03,-0.07 0,-0.01 -0.01,-0.08 -0.04,-0.23l-0.37 -2.06 0.61 0 0.23 1.7 0.1 -1.7 0.62 0zm1.73 2.73l-0.6 0 0 -1.24 -0.37 1.24 -0.61 0 0 -2.73 0.59 0 0 1.23 0.4 -1.23 0.59 0 0 2.73zm-0.6 -3.32l0.28 0c0,0.15 -0.05,0.27 -0.13,0.37 -0.08,0.09 -0.2,0.14 -0.34,0.14 -0.15,0 -0.27,-0.05 -0.35,-0.14 -0.08,-0.1 -0.12,-0.22 -0.13,-0.37l0.29 0c0.01,0.15 0.07,0.23 0.19,0.23 0.11,0 0.18,-0.08 0.19,-0.23zm2.31 0.59l0 0.55 -0.42 0 0 2.18 -0.71 0 0 -2.18 -0.42 0 0 -0.55 1.55 0zm0.16 0l1.18 0 0 0.55 -0.47 0 0 0.52 0.44 0 0 0.52 -0.44 0 0 0.6 0.52 0 0 0.54 -1.23 0 0 -2.73zm2.04 0l0.72 0c0.19,0 0.34,0.02 0.44,0.05 0.11,0.03 0.18,0.07 0.24,0.13 0.05,0.06 0.08,0.13 0.1,0.21 0.02,0.08 0.03,0.2 0.03,0.38l0 0.23c0,0.18 -0.02,0.3 -0.05,0.38 -0.04,0.08 -0.11,0.14 -0.2,0.19 -0.1,0.04 -0.22,0.06 -0.38,0.06l-0.19 0 0 1.1 -0.71 0 0 -2.73zm0.71 0.47l0 0.69c0.02,0 0.04,0 0.05,0 0.07,0 0.11,-0.01 0.14,-0.04 0.02,-0.03 0.04,-0.1 0.04,-0.2l0 -0.23c0,-0.09 -0.02,-0.15 -0.05,-0.18 -0.03,-0.03 -0.09,-0.04 -0.18,-0.04zm2.25 -0.47l0.4 2.73 -0.72 0 -0.04 -0.49 -0.26 0 -0.03 0.49 -0.74 0 0.36 -2.73 1.03 0zm-0.38 1.76c-0.03,-0.31 -0.07,-0.69 -0.11,-1.15 -0.07,0.52 -0.11,0.91 -0.13,1.15l0.24 0zm2.56 0.33c0,0.21 -0.03,0.35 -0.08,0.44 -0.05,0.09 -0.13,0.14 -0.24,0.17 -0.11,0.02 -0.28,0.03 -0.51,0.03l-0.82 0 0 -2.73 1.39 0 0 0.48 -0.68 0 0 0.46 0.11 0c0.21,0 0.38,0.01 0.49,0.04 0.11,0.02 0.2,0.08 0.25,0.17 0.06,0.09 0.09,0.22 0.09,0.41l0 0.53zm-0.71 -0.08l0 -0.39c0,-0.12 -0.01,-0.19 -0.04,-0.21 -0.02,-0.03 -0.09,-0.04 -0.19,-0.04l0 0.89c0.09,0 0.15,-0.01 0.18,-0.03 0.03,-0.03 0.05,-0.1 0.05,-0.22zm2.58 -0.41c0,0.28 -0.01,0.47 -0.02,0.58 -0.02,0.12 -0.06,0.22 -0.12,0.32 -0.07,0.09 -0.16,0.16 -0.28,0.21 -0.11,0.05 -0.25,0.08 -0.4,0.08 -0.15,0 -0.28,-0.02 -0.4,-0.07 -0.11,-0.05 -0.21,-0.12 -0.28,-0.22 -0.07,-0.09 -0.11,-0.2 -0.12,-0.31 -0.02,-0.11 -0.02,-0.31 -0.02,-0.59l0 -0.46c0,-0.28 0,-0.47 0.02,-0.59 0.01,-0.11 0.05,-0.22 0.12,-0.31 0.07,-0.09 0.16,-0.17 0.27,-0.22 0.12,-0.05 0.25,-0.07 0.41,-0.07 0.14,0 0.27,0.02 0.39,0.07 0.12,0.05 0.21,0.12 0.28,0.21 0.07,0.1 0.11,0.2 0.13,0.32 0.01,0.11 0.02,0.3 0.02,0.59l0 0.46zm-0.71 -0.89c0,-0.13 -0.01,-0.21 -0.02,-0.25 -0.02,-0.03 -0.05,-0.05 -0.09,-0.05 -0.04,0 -0.06,0.01 -0.08,0.04 -0.02,0.03 -0.03,0.12 -0.03,0.26l0 1.27c0,0.16 0,0.25 0.02,0.29 0.01,0.04 0.04,0.06 0.09,0.06 0.04,0 0.07,-0.02 0.09,-0.07 0.01,-0.04 0.02,-0.14 0.02,-0.3l0 -1.25zm2.4 -0.71l0 0.55 -0.42 0 0 2.18 -0.71 0 0 -2.18 -0.42 0 0 -0.55 1.55 0zm1.57 0l-0.2 1.81c-0.03,0.28 -0.06,0.49 -0.1,0.6 -0.03,0.12 -0.1,0.2 -0.2,0.25 -0.1,0.05 -0.26,0.07 -0.49,0.07l-0.41 0 0 -0.35 0.04 0c0.09,0 0.15,-0.01 0.17,-0.02 0.02,-0.02 0.04,-0.04 0.04,-0.07 0,-0.01 -0.02,-0.08 -0.04,-0.23l-0.38 -2.06 0.62 0 0.22 1.7 0.11 -1.7 0.62 0zm-32.54 4.03l-0.53 0 0 2.18 -0.71 0 0 -2.72 1.24 0 0 0.54zm1.41 -0.54l0.41 2.72 -0.73 0 -0.04 -0.49 -0.25 0 -0.04 0.49 -0.74 0 0.36 -2.72 1.03 0zm-0.38 1.75c-0.03,-0.31 -0.07,-0.69 -0.1,-1.15 -0.07,0.53 -0.12,0.91 -0.14,1.15l0.24 0zm2.16 -0.57c0.11,0.04 0.18,0.09 0.23,0.17 0.05,0.08 0.08,0.27 0.08,0.56 0,0.21 -0.02,0.38 -0.07,0.5 -0.05,0.12 -0.14,0.21 -0.26,0.28 -0.12,0.06 -0.28,0.09 -0.47,0.09 -0.21,0 -0.38,-0.04 -0.5,-0.11 -0.13,-0.07 -0.21,-0.16 -0.25,-0.27 -0.03,-0.1 -0.05,-0.28 -0.05,-0.54l0 -0.22 0.68 0 0 0.44c0,0.12 0,0.2 0.02,0.23 0.01,0.03 0.04,0.05 0.09,0.05 0.05,0 0.09,-0.02 0.11,-0.06 0.01,-0.04 0.02,-0.15 0.02,-0.32l0 -0.19c0,-0.1 -0.01,-0.18 -0.03,-0.23 -0.03,-0.05 -0.06,-0.08 -0.11,-0.09 -0.05,-0.02 -0.13,-0.03 -0.27,-0.03l0 -0.4c0.16,0 0.26,0 0.3,-0.01 0.04,-0.02 0.07,-0.04 0.09,-0.09 0.01,-0.04 0.02,-0.1 0.02,-0.19l0 -0.15c0,-0.1 -0.01,-0.16 -0.03,-0.19 -0.02,-0.03 -0.05,-0.05 -0.09,-0.05 -0.05,0 -0.08,0.02 -0.1,0.05 -0.02,0.03 -0.02,0.1 -0.02,0.21l0 0.22 -0.68 0 0 -0.23c0,-0.26 0.06,-0.44 0.17,-0.53 0.12,-0.09 0.31,-0.14 0.57,-0.14 0.33,0 0.55,0.07 0.66,0.19 0.12,0.13 0.18,0.31 0.18,0.53 0,0.16 -0.02,0.27 -0.07,0.33 -0.04,0.07 -0.11,0.13 -0.22,0.19zm2.19 0.41c0,0.28 0,0.47 -0.02,0.59 -0.01,0.11 -0.05,0.21 -0.12,0.31 -0.06,0.09 -0.16,0.17 -0.27,0.22 -0.12,0.05 -0.25,0.07 -0.4,0.07 -0.15,0 -0.28,-0.02 -0.4,-0.07 -0.11,-0.05 -0.21,-0.12 -0.28,-0.21 -0.07,-0.1 -0.11,-0.2 -0.12,-0.32 -0.02,-0.11 -0.02,-0.3 -0.02,-0.59l0 -0.46c0,-0.28 0,-0.47 0.02,-0.58 0.01,-0.12 0.05,-0.22 0.12,-0.32 0.06,-0.09 0.16,-0.16 0.27,-0.21 0.12,-0.05 0.25,-0.08 0.41,-0.08 0.14,0 0.27,0.02 0.39,0.07 0.11,0.05 0.21,0.12 0.28,0.22 0.07,0.09 0.11,0.2 0.12,0.31 0.02,0.11 0.02,0.31 0.02,0.59l0 0.46zm-0.71 -0.89c0,-0.13 0,-0.21 -0.02,-0.24 -0.01,-0.04 -0.04,-0.06 -0.08,-0.06 -0.04,0 -0.07,0.02 -0.08,0.05 -0.02,0.02 -0.03,0.11 -0.03,0.25l0 1.27c0,0.16 0,0.26 0.02,0.29 0.01,0.04 0.04,0.06 0.08,0.06 0.05,0 0.08,-0.02 0.09,-0.06 0.02,-0.05 0.02,-0.15 0.02,-0.31l0 -1.25zm0.98 -0.7l0.71 0c0.22,0 0.39,0.01 0.5,0.05 0.12,0.03 0.21,0.1 0.28,0.21 0.07,0.11 0.11,0.28 0.11,0.51 0,0.16 -0.03,0.27 -0.08,0.33 -0.05,0.07 -0.15,0.12 -0.29,0.15 0.16,0.04 0.27,0.1 0.33,0.18 0.06,0.09 0.09,0.22 0.09,0.4l0 0.25c0,0.19 -0.02,0.32 -0.06,0.41 -0.05,0.09 -0.11,0.15 -0.2,0.18 -0.1,0.04 -0.28,0.05 -0.57,0.05l-0.82 0 0 -2.72zm0.71 0.46l0 0.61c0.03,0 0.05,0 0.07,0 0.07,0 0.11,-0.02 0.13,-0.05 0.02,-0.04 0.03,-0.14 0.03,-0.3 0,-0.08 -0.01,-0.14 -0.02,-0.18 -0.02,-0.03 -0.04,-0.05 -0.06,-0.06 -0.03,-0.01 -0.08,-0.02 -0.15,-0.02zm0 1.03l0 0.77c0.1,-0.01 0.16,-0.02 0.19,-0.05 0.03,-0.03 0.04,-0.1 0.04,-0.21l0 -0.25c0,-0.12 -0.01,-0.19 -0.04,-0.22 -0.02,-0.02 -0.09,-0.03 -0.19,-0.04zm2.81 0.1c0,0.28 0,0.47 -0.02,0.59 -0.01,0.11 -0.05,0.21 -0.12,0.31 -0.07,0.09 -0.16,0.17 -0.27,0.22 -0.12,0.05 -0.25,0.07 -0.41,0.07 -0.14,0 -0.27,-0.02 -0.39,-0.07 -0.12,-0.05 -0.21,-0.12 -0.28,-0.21 -0.07,-0.1 -0.11,-0.2 -0.13,-0.32 -0.01,-0.11 -0.02,-0.3 -0.02,-0.59l0 -0.46c0,-0.28 0.01,-0.47 0.02,-0.58 0.02,-0.12 0.06,-0.22 0.12,-0.32 0.07,-0.09 0.16,-0.16 0.28,-0.21 0.12,-0.05 0.25,-0.08 0.4,-0.08 0.15,0 0.28,0.02 0.4,0.07 0.11,0.05 0.21,0.12 0.28,0.22 0.07,0.09 0.11,0.2 0.12,0.31 0.02,0.11 0.02,0.31 0.02,0.59l0 0.46zm-0.71 -0.89c0,-0.13 0,-0.21 -0.02,-0.24 -0.01,-0.04 -0.04,-0.06 -0.08,-0.06 -0.04,0 -0.07,0.02 -0.09,0.05 -0.02,0.02 -0.03,0.11 -0.03,0.25l0 1.27c0,0.16 0.01,0.26 0.02,0.29 0.02,0.04 0.05,0.06 0.09,0.06 0.05,0 0.08,-0.02 0.09,-0.06 0.02,-0.05 0.02,-0.15 0.02,-0.31l0 -1.25zm2.21 -0.16l-0.52 0 0 2.18 -0.71 0 0 -2.72 1.23 0 0 0.54zm1.81 1.05c0,0.28 -0.01,0.47 -0.02,0.59 -0.01,0.11 -0.05,0.21 -0.12,0.31 -0.07,0.09 -0.16,0.17 -0.28,0.22 -0.11,0.05 -0.25,0.07 -0.4,0.07 -0.15,0 -0.28,-0.02 -0.39,-0.07 -0.12,-0.05 -0.21,-0.12 -0.28,-0.21 -0.07,-0.1 -0.12,-0.2 -0.13,-0.32 -0.01,-0.11 -0.02,-0.3 -0.02,-0.59l0 -0.46c0,-0.28 0.01,-0.47 0.02,-0.58 0.01,-0.12 0.05,-0.22 0.12,-0.32 0.07,-0.09 0.16,-0.16 0.28,-0.21 0.11,-0.05 0.25,-0.08 0.4,-0.08 0.15,0 0.28,0.02 0.39,0.07 0.12,0.05 0.21,0.12 0.28,0.22 0.07,0.09 0.11,0.2 0.13,0.31 0.01,0.11 0.02,0.31 0.02,0.59l0 0.46zm-0.71 -0.89c0,-0.13 -0.01,-0.21 -0.02,-0.24 -0.02,-0.04 -0.04,-0.06 -0.09,-0.06 -0.03,0 -0.06,0.02 -0.08,0.05 -0.02,0.02 -0.03,0.11 -0.03,0.25l0 1.27c0,0.16 0.01,0.26 0.02,0.29 0.01,0.04 0.04,0.06 0.09,0.06 0.04,0 0.08,-0.02 0.09,-0.06 0.01,-0.05 0.02,-0.15 0.02,-0.31l0 -1.25zm3.21 2.02l-0.71 0 0 -2.18 -0.21 0 0 2.18 -0.71 0 0 -2.72 1.63 0 0 2.72zm0.29 -2.72l0.71 0c0.2,0 0.34,0.01 0.45,0.04 0.1,0.03 0.18,0.08 0.23,0.13 0.05,0.06 0.09,0.13 0.11,0.21 0.02,0.08 0.03,0.21 0.03,0.38l0 0.24c0,0.17 -0.02,0.3 -0.06,0.38 -0.03,0.08 -0.1,0.14 -0.2,0.18 -0.09,0.04 -0.22,0.06 -0.37,0.06l-0.19 0 0 1.1 -0.71 0 0 -2.72zm0.71 0.46l0 0.7c0.02,0 0.04,0 0.05,0 0.07,0 0.11,-0.02 0.14,-0.05 0.02,-0.03 0.03,-0.1 0.03,-0.2l0 -0.22c0,-0.1 -0.01,-0.16 -0.04,-0.19 -0.03,-0.03 -0.09,-0.04 -0.18,-0.04zm2.6 2.26l-0.59 0 0 -1.24 -0.37 1.24 -0.62 0 0 -2.72 0.59 0 0 1.23 0.4 -1.23 0.59 0 0 2.72zm1.94 -0.63c0,0.2 -0.03,0.34 -0.08,0.43 -0.05,0.09 -0.13,0.15 -0.24,0.17 -0.11,0.02 -0.28,0.03 -0.51,0.03l-0.82 0 0 -2.72 1.39 0 0 0.47 -0.68 0 0 0.46 0.11 0c0.21,0 0.38,0.01 0.49,0.04 0.11,0.02 0.2,0.08 0.25,0.17 0.06,0.09 0.09,0.23 0.09,0.41l0 0.54zm-0.71 -0.09l0 -0.39c0,-0.12 -0.01,-0.19 -0.04,-0.21 -0.02,-0.02 -0.09,-0.04 -0.19,-0.04l0 0.89c0.09,0 0.15,-0.01 0.18,-0.03 0.03,-0.02 0.05,-0.1 0.05,-0.22zm2.58 -0.41c0,0.28 -0.01,0.47 -0.02,0.59 -0.02,0.11 -0.06,0.21 -0.12,0.31 -0.07,0.09 -0.16,0.17 -0.28,0.22 -0.11,0.05 -0.25,0.07 -0.4,0.07 -0.15,0 -0.28,-0.02 -0.4,-0.07 -0.11,-0.05 -0.21,-0.12 -0.28,-0.21 -0.07,-0.1 -0.11,-0.2 -0.12,-0.32 -0.02,-0.11 -0.02,-0.3 -0.02,-0.59l0 -0.46c0,-0.28 0,-0.47 0.02,-0.58 0.01,-0.12 0.05,-0.22 0.12,-0.32 0.07,-0.09 0.16,-0.16 0.27,-0.21 0.12,-0.05 0.25,-0.08 0.41,-0.08 0.14,0 0.27,0.02 0.39,0.07 0.12,0.05 0.21,0.12 0.28,0.22 0.07,0.09 0.11,0.2 0.13,0.31 0.01,0.11 0.02,0.31 0.02,0.59l0 0.46zm-0.71 -0.89c0,-0.13 -0.01,-0.21 -0.02,-0.24 -0.02,-0.04 -0.05,-0.06 -0.09,-0.06 -0.04,0 -0.06,0.02 -0.08,0.05 -0.02,0.02 -0.03,0.11 -0.03,0.25l0 1.27c0,0.16 0,0.26 0.02,0.29 0.01,0.04 0.04,0.06 0.09,0.06 0.04,0 0.07,-0.02 0.09,-0.06 0.01,-0.05 0.02,-0.15 0.02,-0.31l0 -1.25zm0.97 -0.7l0.72 0c0.19,0 0.34,0.01 0.44,0.04 0.11,0.03 0.18,0.08 0.24,0.13 0.05,0.06 0.08,0.13 0.1,0.21 0.02,0.08 0.03,0.21 0.03,0.38l0 0.24c0,0.17 -0.02,0.3 -0.05,0.38 -0.04,0.08 -0.1,0.14 -0.2,0.18 -0.1,0.04 -0.22,0.06 -0.38,0.06l-0.19 0 0 1.1 -0.71 0 0 -2.72zm0.71 0.46l0 0.7c0.02,0 0.04,0 0.06,0 0.06,0 0.1,-0.02 0.13,-0.05 0.03,-0.03 0.04,-0.1 0.04,-0.2l0 -0.22c0,-0.1 -0.02,-0.16 -0.05,-0.19 -0.02,-0.03 -0.09,-0.04 -0.18,-0.04zm2.25 -0.46l0.4 2.72 -0.72 0 -0.04 -0.49 -0.26 0 -0.03 0.49 -0.74 0 0.36 -2.72 1.03 0zm-0.38 1.75c-0.03,-0.31 -0.07,-0.69 -0.11,-1.15 -0.07,0.53 -0.11,0.91 -0.13,1.15l0.24 0z"/>
   <path id="1" class="fil12" d="M7.19 32.79l0.71 0 0.01 1.15c0.13,0 0.2,-0.07 0.2,-0.22l0.02 -0.53c0,-0.2 0.04,-0.33 0.11,-0.4l0.65 0c-0.06,0.07 -0.09,0.21 -0.09,0.41l0.01 0.47c0,0.28 -0.16,0.45 -0.48,0.49 0.32,0.03 0.48,0.2 0.48,0.49l-0.01 0.43c0,0.21 0.03,0.35 0.09,0.44l-0.65 0c-0.08,-0.07 -0.11,-0.2 -0.11,-0.4l0 -0.53c0,-0.07 -0.02,-0.12 -0.06,-0.16 -0.05,-0.04 -0.1,-0.06 -0.16,-0.06l-0.01 1.15 -0.71 0 0 -2.73zm3.47 1.6c0,0.28 -0.01,0.47 -0.02,0.58 -0.01,0.12 -0.05,0.22 -0.12,0.32 -0.07,0.09 -0.16,0.16 -0.27,0.21 -0.12,0.05 -0.25,0.08 -0.41,0.08 -0.14,0 -0.27,-0.02 -0.39,-0.07 -0.12,-0.05 -0.21,-0.12 -0.28,-0.22 -0.07,-0.09 -0.11,-0.2 -0.13,-0.31 -0.01,-0.11 -0.02,-0.31 -0.02,-0.59l0 -0.46c0,-0.28 0.01,-0.47 0.02,-0.59 0.02,-0.11 0.06,-0.22 0.12,-0.31 0.07,-0.09 0.16,-0.17 0.28,-0.22 0.11,-0.05 0.25,-0.07 0.4,-0.07 0.15,0 0.28,0.02 0.39,0.07 0.12,0.05 0.21,0.12 0.28,0.21 0.08,0.1 0.12,0.2 0.13,0.32 0.01,0.11 0.02,0.3 0.02,0.59l0 0.46zm-0.71 -0.89c0,-0.13 -0.01,-0.21 -0.02,-0.25 -0.01,-0.03 -0.04,-0.05 -0.08,-0.05 -0.04,0 -0.07,0.01 -0.09,0.04 -0.02,0.03 -0.03,0.12 -0.03,0.26l0 1.27c0,0.16 0.01,0.25 0.02,0.29 0.01,0.04 0.04,0.06 0.09,0.06 0.05,0 0.08,-0.02 0.09,-0.07 0.01,-0.04 0.02,-0.14 0.02,-0.3l0 -1.25zm2.61 -0.71l0 2.73 -0.71 0 0 -1.14 -0.21 0 0 1.14 -0.71 0 0 -2.73 0.71 0 0 0.98 0.21 0 0 -0.98 0.71 0zm1.71 0l0 0.55 -0.42 0 0 2.18 -0.71 0 0 -2.18 -0.42 0 0 -0.55 1.55 0zm0.16 0l0.72 0c0.19,0 0.34,0.02 0.44,0.05 0.11,0.03 0.18,0.07 0.24,0.13 0.05,0.06 0.08,0.13 0.1,0.21 0.02,0.08 0.03,0.2 0.03,0.38l0 0.23c0,0.18 -0.02,0.3 -0.05,0.38 -0.04,0.08 -0.11,0.14 -0.2,0.19 -0.1,0.04 -0.22,0.06 -0.38,0.06l-0.19 0 0 1.1 -0.71 0 0 -2.73zm0.71 0.47l0 0.69c0.02,0 0.04,0 0.05,0 0.07,0 0.11,-0.01 0.14,-0.04 0.02,-0.03 0.04,-0.1 0.04,-0.2l0 -0.23c0,-0.09 -0.02,-0.15 -0.05,-0.18 -0.03,-0.03 -0.09,-0.04 -0.18,-0.04zm2.64 1.13c0,0.28 0,0.47 -0.02,0.58 -0.01,0.12 -0.05,0.22 -0.12,0.32 -0.07,0.09 -0.16,0.16 -0.27,0.21 -0.12,0.05 -0.25,0.08 -0.41,0.08 -0.14,0 -0.27,-0.02 -0.39,-0.07 -0.12,-0.05 -0.21,-0.12 -0.28,-0.22 -0.07,-0.09 -0.11,-0.2 -0.13,-0.31 -0.01,-0.11 -0.02,-0.31 -0.02,-0.59l0 -0.46c0,-0.28 0.01,-0.47 0.02,-0.59 0.02,-0.11 0.06,-0.22 0.12,-0.31 0.07,-0.09 0.16,-0.17 0.28,-0.22 0.11,-0.05 0.25,-0.07 0.4,-0.07 0.15,0 0.28,0.02 0.4,0.07 0.11,0.05 0.2,0.12 0.28,0.21 0.07,0.1 0.11,0.2 0.12,0.32 0.01,0.11 0.02,0.3 0.02,0.59l0 0.46zm-0.71 -0.89c0,-0.13 -0.01,-0.21 -0.02,-0.25 -0.01,-0.03 -0.04,-0.05 -0.08,-0.05 -0.04,0 -0.07,0.01 -0.09,0.04 -0.02,0.03 -0.03,0.12 -0.03,0.26l0 1.27c0,0.16 0.01,0.25 0.02,0.29 0.02,0.04 0.04,0.06 0.09,0.06 0.05,0 0.08,-0.02 0.09,-0.07 0.01,-0.04 0.02,-0.14 0.02,-0.3l0 -1.25zm2.71 2.02l-0.71 0 0 -2.18 -0.21 0 0 1.54c0,0.21 -0.02,0.35 -0.08,0.44 -0.05,0.09 -0.13,0.14 -0.24,0.17 -0.1,0.02 -0.27,0.03 -0.5,0.03l-0.12 0 0 -0.47c0.09,0 0.15,-0.01 0.18,-0.03 0.04,-0.02 0.05,-0.09 0.05,-0.22l0 -2.01 1.63 0 0 2.73zm1.86 0l-0.59 0 0 -1.24 -0.37 1.24 -0.62 0 0 -2.73 0.6 0 0 1.23 0.39 -1.23 0.59 0 0 2.73zm0.29 -2.73l0.71 0c0.2,0 0.34,0.02 0.45,0.05 0.1,0.03 0.18,0.07 0.23,0.13 0.05,0.06 0.09,0.13 0.11,0.21 0.02,0.08 0.03,0.2 0.03,0.38l0 0.23c0,0.18 -0.02,0.3 -0.06,0.38 -0.03,0.08 -0.1,0.14 -0.19,0.19 -0.1,0.04 -0.23,0.06 -0.38,0.06l-0.19 0 0 1.1 -0.71 0 0 -2.73zm0.71 0.47l0 0.69c0.02,0 0.04,0 0.05,0 0.07,0 0.11,-0.01 0.14,-0.04 0.02,-0.03 0.03,-0.1 0.03,-0.2l0 -0.23c0,-0.09 -0.01,-0.15 -0.04,-0.18 -0.03,-0.03 -0.09,-0.04 -0.18,-0.04zm2.42 -0.47l-0.19 1.81c-0.03,0.28 -0.06,0.49 -0.1,0.6 -0.03,0.12 -0.1,0.2 -0.2,0.25 -0.1,0.05 -0.26,0.07 -0.49,0.07l-0.42 0 0 -0.35 0.05 0c0.09,0 0.15,-0.01 0.17,-0.02 0.02,-0.02 0.03,-0.04 0.03,-0.07 0,-0.01 -0.01,-0.08 -0.04,-0.23l-0.37 -2.06 0.61 0 0.23 1.7 0.1 -1.7 0.62 0zm1.73 2.73l-0.6 0 0 -1.24 -0.37 1.24 -0.61 0 0 -2.73 0.59 0 0 1.23 0.4 -1.23 0.59 0 0 2.73zm-0.6 -3.32l0.28 0c0,0.15 -0.05,0.27 -0.13,0.37 -0.08,0.09 -0.2,0.14 -0.34,0.14 -0.15,0 -0.27,-0.05 -0.35,-0.14 -0.08,-0.1 -0.12,-0.22 -0.13,-0.37l0.29 0c0.01,0.15 0.07,0.23 0.19,0.23 0.11,0 0.18,-0.08 0.19,-0.23zm2.31 0.59l0 0.55 -0.42 0 0 2.18 -0.71 0 0 -2.18 -0.42 0 0 -0.55 1.55 0zm0.16 0l1.18 0 0 0.55 -0.47 0 0 0.52 0.44 0 0 0.52 -0.44 0 0 0.6 0.52 0 0 0.54 -1.23 0 0 -2.73zm2.04 0l0.72 0c0.19,0 0.34,0.02 0.44,0.05 0.11,0.03 0.18,0.07 0.24,0.13 0.05,0.06 0.08,0.13 0.1,0.21 0.02,0.08 0.03,0.2 0.03,0.38l0 0.23c0,0.18 -0.02,0.3 -0.05,0.38 -0.04,0.08 -0.11,0.14 -0.2,0.19 -0.1,0.04 -0.22,0.06 -0.38,0.06l-0.19 0 0 1.1 -0.71 0 0 -2.73zm0.71 0.47l0 0.69c0.02,0 0.04,0 0.05,0 0.07,0 0.11,-0.01 0.14,-0.04 0.02,-0.03 0.04,-0.1 0.04,-0.2l0 -0.23c0,-0.09 -0.02,-0.15 -0.05,-0.18 -0.03,-0.03 -0.09,-0.04 -0.18,-0.04zm2.25 -0.47l0.4 2.73 -0.72 0 -0.04 -0.49 -0.26 0 -0.03 0.49 -0.74 0 0.36 -2.73 1.03 0zm-0.38 1.76c-0.03,-0.31 -0.07,-0.69 -0.11,-1.15 -0.07,0.52 -0.11,0.91 -0.13,1.15l0.24 0zm2.56 0.33c0,0.21 -0.03,0.35 -0.08,0.44 -0.05,0.09 -0.13,0.14 -0.24,0.17 -0.11,0.02 -0.28,0.03 -0.51,0.03l-0.82 0 0 -2.73 1.39 0 0 0.48 -0.68 0 0 0.46 0.11 0c0.21,0 0.38,0.01 0.49,0.04 0.11,0.02 0.2,0.08 0.25,0.17 0.06,0.09 0.09,0.22 0.09,0.41l0 0.53zm-0.71 -0.08l0 -0.39c0,-0.12 -0.01,-0.19 -0.04,-0.21 -0.02,-0.03 -0.09,-0.04 -0.19,-0.04l0 0.89c0.09,0 0.15,-0.01 0.18,-0.03 0.03,-0.03 0.05,-0.1 0.05,-0.22zm2.58 -0.41c0,0.28 -0.01,0.47 -0.02,0.58 -0.02,0.12 -0.06,0.22 -0.12,0.32 -0.07,0.09 -0.16,0.16 -0.28,0.21 -0.11,0.05 -0.25,0.08 -0.4,0.08 -0.15,0 -0.28,-0.02 -0.4,-0.07 -0.11,-0.05 -0.21,-0.12 -0.28,-0.22 -0.07,-0.09 -0.11,-0.2 -0.12,-0.31 -0.02,-0.11 -0.02,-0.31 -0.02,-0.59l0 -0.46c0,-0.28 0,-0.47 0.02,-0.59 0.01,-0.11 0.05,-0.22 0.12,-0.31 0.07,-0.09 0.16,-0.17 0.27,-0.22 0.12,-0.05 0.25,-0.07 0.41,-0.07 0.14,0 0.27,0.02 0.39,0.07 0.12,0.05 0.21,0.12 0.28,0.21 0.07,0.1 0.11,0.2 0.13,0.32 0.01,0.11 0.02,0.3 0.02,0.59l0 0.46zm-0.71 -0.89c0,-0.13 -0.01,-0.21 -0.02,-0.25 -0.02,-0.03 -0.05,-0.05 -0.09,-0.05 -0.04,0 -0.06,0.01 -0.08,0.04 -0.02,0.03 -0.03,0.12 -0.03,0.26l0 1.27c0,0.16 0,0.25 0.02,0.29 0.01,0.04 0.04,0.06 0.09,0.06 0.04,0 0.07,-0.02 0.09,-0.07 0.01,-0.04 0.02,-0.14 0.02,-0.3l0 -1.25zm2.4 -0.71l0 0.55 -0.42 0 0 2.18 -0.71 0 0 -2.18 -0.42 0 0 -0.55 1.55 0zm1.57 0l-0.2 1.81c-0.03,0.28 -0.06,0.49 -0.1,0.6 -0.03,0.12 -0.1,0.2 -0.2,0.25 -0.1,0.05 -0.26,0.07 -0.49,0.07l-0.41 0 0 -0.35 0.04 0c0.09,0 0.15,-0.01 0.17,-0.02 0.02,-0.02 0.04,-0.04 0.04,-0.07 0,-0.01 -0.02,-0.08 -0.04,-0.23l-0.38 -2.06 0.62 0 0.22 1.7 0.11 -1.7 0.62 0zm-32.54 4.03l-0.53 0 0 2.18 -0.71 0 0 -2.72 1.24 0 0 0.54zm1.41 -0.54l0.41 2.72 -0.73 0 -0.04 -0.49 -0.25 0 -0.04 0.49 -0.74 0 0.36 -2.72 1.03 0zm-0.38 1.75c-0.03,-0.31 -0.07,-0.69 -0.1,-1.15 -0.07,0.53 -0.12,0.91 -0.14,1.15l0.24 0zm2.16 -0.57c0.11,0.04 0.18,0.09 0.23,0.17 0.05,0.08 0.08,0.27 0.08,0.56 0,0.21 -0.02,0.38 -0.07,0.5 -0.05,0.12 -0.14,0.21 -0.26,0.28 -0.12,0.06 -0.28,0.09 -0.47,0.09 -0.21,0 -0.38,-0.04 -0.5,-0.11 -0.13,-0.07 -0.21,-0.16 -0.25,-0.27 -0.03,-0.1 -0.05,-0.28 -0.05,-0.54l0 -0.22 0.68 0 0 0.44c0,0.12 0,0.2 0.02,0.23 0.01,0.03 0.04,0.05 0.09,0.05 0.05,0 0.09,-0.02 0.11,-0.06 0.01,-0.04 0.02,-0.15 0.02,-0.32l0 -0.19c0,-0.1 -0.01,-0.18 -0.03,-0.23 -0.03,-0.05 -0.06,-0.08 -0.11,-0.09 -0.05,-0.02 -0.13,-0.03 -0.27,-0.03l0 -0.4c0.16,0 0.26,0 0.3,-0.01 0.04,-0.02 0.07,-0.04 0.09,-0.09 0.01,-0.04 0.02,-0.1 0.02,-0.19l0 -0.15c0,-0.1 -0.01,-0.16 -0.03,-0.19 -0.02,-0.03 -0.05,-0.05 -0.09,-0.05 -0.05,0 -0.08,0.02 -0.1,0.05 -0.02,0.03 -0.02,0.1 -0.02,0.21l0 0.22 -0.68 0 0 -0.23c0,-0.26 0.06,-0.44 0.17,-0.53 0.12,-0.09 0.31,-0.14 0.57,-0.14 0.33,0 0.55,0.07 0.66,0.19 0.12,0.13 0.18,0.31 0.18,0.53 0,0.16 -0.02,0.27 -0.07,0.33 -0.04,0.07 -0.11,0.13 -0.22,0.19zm2.19 0.41c0,0.28 0,0.47 -0.02,0.59 -0.01,0.11 -0.05,0.21 -0.12,0.31 -0.06,0.09 -0.16,0.17 -0.27,0.22 -0.12,0.05 -0.25,0.07 -0.4,0.07 -0.15,0 -0.28,-0.02 -0.4,-0.07 -0.11,-0.05 -0.21,-0.12 -0.28,-0.21 -0.07,-0.1 -0.11,-0.2 -0.12,-0.32 -0.02,-0.11 -0.02,-0.3 -0.02,-0.59l0 -0.46c0,-0.28 0,-0.47 0.02,-0.58 0.01,-0.12 0.05,-0.22 0.12,-0.32 0.06,-0.09 0.16,-0.16 0.27,-0.21 0.12,-0.05 0.25,-0.08 0.41,-0.08 0.14,0 0.27,0.02 0.39,0.07 0.11,0.05 0.21,0.12 0.28,0.22 0.07,0.09 0.11,0.2 0.12,0.31 0.02,0.11 0.02,0.31 0.02,0.59l0 0.46zm-0.71 -0.89c0,-0.13 0,-0.21 -0.02,-0.24 -0.01,-0.04 -0.04,-0.06 -0.08,-0.06 -0.04,0 -0.07,0.02 -0.08,0.05 -0.02,0.02 -0.03,0.11 -0.03,0.25l0 1.27c0,0.16 0,0.26 0.02,0.29 0.01,0.04 0.04,0.06 0.08,0.06 0.05,0 0.08,-0.02 0.09,-0.06 0.02,-0.05 0.02,-0.15 0.02,-0.31l0 -1.25zm0.98 -0.7l0.71 0c0.22,0 0.39,0.01 0.5,0.05 0.12,0.03 0.21,0.1 0.28,0.21 0.07,0.11 0.11,0.28 0.11,0.51 0,0.16 -0.03,0.27 -0.08,0.33 -0.05,0.07 -0.15,0.12 -0.29,0.15 0.16,0.04 0.27,0.1 0.33,0.18 0.06,0.09 0.09,0.22 0.09,0.4l0 0.25c0,0.19 -0.02,0.32 -0.06,0.41 -0.05,0.09 -0.11,0.15 -0.2,0.18 -0.1,0.04 -0.28,0.05 -0.57,0.05l-0.82 0 0 -2.72zm0.71 0.46l0 0.61c0.03,0 0.05,0 0.07,0 0.07,0 0.11,-0.02 0.13,-0.05 0.02,-0.04 0.03,-0.14 0.03,-0.3 0,-0.08 -0.01,-0.14 -0.02,-0.18 -0.02,-0.03 -0.04,-0.05 -0.06,-0.06 -0.03,-0.01 -0.08,-0.02 -0.15,-0.02zm0 1.03l0 0.77c0.1,-0.01 0.16,-0.02 0.19,-0.05 0.03,-0.03 0.04,-0.1 0.04,-0.21l0 -0.25c0,-0.12 -0.01,-0.19 -0.04,-0.22 -0.02,-0.02 -0.09,-0.03 -0.19,-0.04zm2.81 0.1c0,0.28 0,0.47 -0.02,0.59 -0.01,0.11 -0.05,0.21 -0.12,0.31 -0.07,0.09 -0.16,0.17 -0.27,0.22 -0.12,0.05 -0.25,0.07 -0.41,0.07 -0.14,0 -0.27,-0.02 -0.39,-0.07 -0.12,-0.05 -0.21,-0.12 -0.28,-0.21 -0.07,-0.1 -0.11,-0.2 -0.13,-0.32 -0.01,-0.11 -0.02,-0.3 -0.02,-0.59l0 -0.46c0,-0.28 0.01,-0.47 0.02,-0.58 0.02,-0.12 0.06,-0.22 0.12,-0.32 0.07,-0.09 0.16,-0.16 0.28,-0.21 0.12,-0.05 0.25,-0.08 0.4,-0.08 0.15,0 0.28,0.02 0.4,0.07 0.11,0.05 0.21,0.12 0.28,0.22 0.07,0.09 0.11,0.2 0.12,0.31 0.02,0.11 0.02,0.31 0.02,0.59l0 0.46zm-0.71 -0.89c0,-0.13 0,-0.21 -0.02,-0.24 -0.01,-0.04 -0.04,-0.06 -0.08,-0.06 -0.04,0 -0.07,0.02 -0.09,0.05 -0.02,0.02 -0.03,0.11 -0.03,0.25l0 1.27c0,0.16 0.01,0.26 0.02,0.29 0.02,0.04 0.05,0.06 0.09,0.06 0.05,0 0.08,-0.02 0.09,-0.06 0.02,-0.05 0.02,-0.15 0.02,-0.31l0 -1.25zm2.21 -0.16l-0.52 0 0 2.18 -0.71 0 0 -2.72 1.23 0 0 0.54zm1.81 1.05c0,0.28 -0.01,0.47 -0.02,0.59 -0.01,0.11 -0.05,0.21 -0.12,0.31 -0.07,0.09 -0.16,0.17 -0.28,0.22 -0.11,0.05 -0.25,0.07 -0.4,0.07 -0.15,0 -0.28,-0.02 -0.39,-0.07 -0.12,-0.05 -0.21,-0.12 -0.28,-0.21 -0.07,-0.1 -0.12,-0.2 -0.13,-0.32 -0.01,-0.11 -0.02,-0.3 -0.02,-0.59l0 -0.46c0,-0.28 0.01,-0.47 0.02,-0.58 0.01,-0.12 0.05,-0.22 0.12,-0.32 0.07,-0.09 0.16,-0.16 0.28,-0.21 0.11,-0.05 0.25,-0.08 0.4,-0.08 0.15,0 0.28,0.02 0.39,0.07 0.12,0.05 0.21,0.12 0.28,0.22 0.07,0.09 0.11,0.2 0.13,0.31 0.01,0.11 0.02,0.31 0.02,0.59l0 0.46zm-0.71 -0.89c0,-0.13 -0.01,-0.21 -0.02,-0.24 -0.02,-0.04 -0.04,-0.06 -0.09,-0.06 -0.03,0 -0.06,0.02 -0.08,0.05 -0.02,0.02 -0.03,0.11 -0.03,0.25l0 1.27c0,0.16 0.01,0.26 0.02,0.29 0.01,0.04 0.04,0.06 0.09,0.06 0.04,0 0.08,-0.02 0.09,-0.06 0.01,-0.05 0.02,-0.15 0.02,-0.31l0 -1.25zm3.21 2.02l-0.71 0 0 -2.18 -0.21 0 0 2.18 -0.71 0 0 -2.72 1.63 0 0 2.72zm0.29 -2.72l0.71 0c0.2,0 0.34,0.01 0.45,0.04 0.1,0.03 0.18,0.08 0.23,0.13 0.05,0.06 0.09,0.13 0.11,0.21 0.02,0.08 0.03,0.21 0.03,0.38l0 0.24c0,0.17 -0.02,0.3 -0.06,0.38 -0.03,0.08 -0.1,0.14 -0.2,0.18 -0.09,0.04 -0.22,0.06 -0.37,0.06l-0.19 0 0 1.1 -0.71 0 0 -2.72zm0.71 0.46l0 0.7c0.02,0 0.04,0 0.05,0 0.07,0 0.11,-0.02 0.14,-0.05 0.02,-0.03 0.03,-0.1 0.03,-0.2l0 -0.22c0,-0.1 -0.01,-0.16 -0.04,-0.19 -0.03,-0.03 -0.09,-0.04 -0.18,-0.04zm2.6 2.26l-0.59 0 0 -1.24 -0.37 1.24 -0.62 0 0 -2.72 0.59 0 0 1.23 0.4 -1.23 0.59 0 0 2.72zm1.94 -0.63c0,0.2 -0.03,0.34 -0.08,0.43 -0.05,0.09 -0.13,0.15 -0.24,0.17 -0.11,0.02 -0.28,0.03 -0.51,0.03l-0.82 0 0 -2.72 1.39 0 0 0.47 -0.68 0 0 0.46 0.11 0c0.21,0 0.38,0.01 0.49,0.04 0.11,0.02 0.2,0.08 0.25,0.17 0.06,0.09 0.09,0.23 0.09,0.41l0 0.54zm-0.71 -0.09l0 -0.39c0,-0.12 -0.01,-0.19 -0.04,-0.21 -0.02,-0.02 -0.09,-0.04 -0.19,-0.04l0 0.89c0.09,0 0.15,-0.01 0.18,-0.03 0.03,-0.02 0.05,-0.1 0.05,-0.22zm2.58 -0.41c0,0.28 -0.01,0.47 -0.02,0.59 -0.02,0.11 -0.06,0.21 -0.12,0.31 -0.07,0.09 -0.16,0.17 -0.28,0.22 -0.11,0.05 -0.25,0.07 -0.4,0.07 -0.15,0 -0.28,-0.02 -0.4,-0.07 -0.11,-0.05 -0.21,-0.12 -0.28,-0.21 -0.07,-0.1 -0.11,-0.2 -0.12,-0.32 -0.02,-0.11 -0.02,-0.3 -0.02,-0.59l0 -0.46c0,-0.28 0,-0.47 0.02,-0.58 0.01,-0.12 0.05,-0.22 0.12,-0.32 0.07,-0.09 0.16,-0.16 0.27,-0.21 0.12,-0.05 0.25,-0.08 0.41,-0.08 0.14,0 0.27,0.02 0.39,0.07 0.12,0.05 0.21,0.12 0.28,0.22 0.07,0.09 0.11,0.2 0.13,0.31 0.01,0.11 0.02,0.31 0.02,0.59l0 0.46zm-0.71 -0.89c0,-0.13 -0.01,-0.21 -0.02,-0.24 -0.02,-0.04 -0.05,-0.06 -0.09,-0.06 -0.04,0 -0.06,0.02 -0.08,0.05 -0.02,0.02 -0.03,0.11 -0.03,0.25l0 1.27c0,0.16 0,0.26 0.02,0.29 0.01,0.04 0.04,0.06 0.09,0.06 0.04,0 0.07,-0.02 0.09,-0.06 0.01,-0.05 0.02,-0.15 0.02,-0.31l0 -1.25zm0.97 -0.7l0.72 0c0.19,0 0.34,0.01 0.44,0.04 0.11,0.03 0.18,0.08 0.24,0.13 0.05,0.06 0.08,0.13 0.1,0.21 0.02,0.08 0.03,0.21 0.03,0.38l0 0.24c0,0.17 -0.02,0.3 -0.05,0.38 -0.04,0.08 -0.1,0.14 -0.2,0.18 -0.1,0.04 -0.22,0.06 -0.38,0.06l-0.19 0 0 1.1 -0.71 0 0 -2.72zm0.71 0.46l0 0.7c0.02,0 0.04,0 0.06,0 0.06,0 0.1,-0.02 0.13,-0.05 0.03,-0.03 0.04,-0.1 0.04,-0.2l0 -0.22c0,-0.1 -0.02,-0.16 -0.05,-0.19 -0.02,-0.03 -0.09,-0.04 -0.18,-0.04zm2.25 -0.46l0.4 2.72 -0.72 0 -0.04 -0.49 -0.26 0 -0.03 0.49 -0.74 0 0.36 -2.72 1.03 0zm-0.38 1.75c-0.03,-0.31 -0.07,-0.69 -0.11,-1.15 -0.07,0.53 -0.11,0.91 -0.13,1.15l0.24 0z"/>
  </g>
 </g>
</svg>
